<svg width="22" height="24" viewBox="0 0 22 24" fill="none" xmlns="http://www.w3.org/2000/svg">
<path d="M1 5.28571L4.21429 1H17.0714L20.2857 5.28571M1 5.28571V20.2857C1 20.854 1.22576 21.3991 1.62763 21.8009C2.02949 22.2028 2.57454 22.4286 3.14286 22.4286H18.1429C18.7112 22.4286 19.2562 22.2028 19.6581 21.8009C20.06 21.3991 20.2857 20.854 20.2857 20.2857V5.28571M1 5.28571H20.2857M14.9286 9.57143C14.9286 10.7081 14.477 11.7982 13.6733 12.6019C12.8696 13.4056 11.7795 13.8571 10.6429 13.8571C9.50622 13.8571 8.41613 13.4056 7.6124 12.6019C6.80867 11.7982 6.35714 10.7081 6.35714 9.57143" stroke="black" stroke-width="2" stroke-linecap="round" stroke-linejoin="round"/>
</svg>
