<svg xmlns="http://www.w3.org/2000/svg" width="40.04" height="41.82" viewBox="0 0 40.04 41.82">
  <defs>
    <style>
      .cls-1 {
        opacity: 0.28;
      }

      .cls-2, .cls-3 {
        fill: none;
        stroke: #1d1d1b;
        stroke-miterlimit: 10;
        stroke-width: 2.36px;
      }

      .cls-3 {
        stroke-linecap: round;
      }
    </style>
  </defs>
  <g id="Layer_4" data-name="Layer 4">
    <g>
      <path class="cls-2" d="M33,40.65H6.67c-1.39,0-3.33-2.54-3.33-3.93L1.18,19.84c0-1.39.76-2.55,2.16-2.55l33.36-.2c1.39,0,2.16,1.16,2.16,2.56l-2.09,16a6.12,6.12,0,0,1-.49,1.73C35.53,38.92,34.08,40.65,33,40.65Z"/>
      <path class="cls-3" d="M7.26,13C9-2.61,31-2.83,33.17,12.78"/>
      <line class="cls-3" x1="10.3" y1="24.94" x2="10.31" y2="35.94"/>
      <line class="cls-3" x1="16.77" y1="24.94" x2="16.79" y2="35.94"/>
      <line class="cls-3" x1="23.25" y1="24.94" x2="23.27" y2="35.94"/>
      <line class="cls-3" x1="29.92" y1="24.94" x2="29.94" y2="35.94"/>
    </g>
  </g>
</svg>
