<svg xmlns="http://www.w3.org/2000/svg" width="154.72" height="185.57" viewBox="0 0 154.72 185.57">
  <defs>
    <style>
      .cls-1 {
        fill: #fcfcfc;
      }

      .cls-2 {
        opacity: 0.28;
      }
    </style>
  </defs>
  <g id="Layer_2" data-name="Layer 2">
    <path class="cls-1" d="M95.49,141.15a26.67,26.67,0,0,1,2-4.53,23.24,23.24,0,0,1,1.32-2.06l.74-1,.85-1.07q6.87-8.56,13.45-17.36a419.72,419.72,0,0,0,24.46-36.54c3.75-6.31,7.27-12.76,10.68-19.21A64.41,64.41,0,0,0,153.57,49c.15-.47.3-.93.42-1.42s.25-1,.35-1.48a16.15,16.15,0,0,0,.38-3.22l0-.9c0-.33-.08-.66-.14-1s-.19-.71-.29-1.06a9.29,9.29,0,0,0-.6-1.17,7.15,7.15,0,0,0-.89-1,5.26,5.26,0,0,0-1.14-.73,4.84,4.84,0,0,0-1.26-.4,5.24,5.24,0,0,0-1.18-.12,9.67,9.67,0,0,0-2,.23,14.64,14.64,0,0,0-1.62.51l-.75.29-.7.33c-.48.21-.93.45-1.36.69a44.27,44.27,0,0,0-4.87,3.16c-1.68,1.23-3.29,2.54-4.86,3.88.55-2.71,1-5.43,1.43-8.18A63.54,63.54,0,0,0,135.24,26a18.61,18.61,0,0,0-1.18-6.24,7.13,7.13,0,0,0-2.65-3.31,5.71,5.71,0,0,0-2.33-.84,7.71,7.71,0,0,0-2.11.05,12,12,0,0,0-3.3,1.11A21.51,21.51,0,0,0,121,18.34c-.74.49-1.43,1-2.11,1.54.09-1.42.14-2.86.13-4.31a34.31,34.31,0,0,0-.56-5.9c-.1-.5-.24-1-.36-1.51s-.32-1-.48-1.53-.44-1-.66-1.52a12.41,12.41,0,0,0-.93-1.5A8.83,8.83,0,0,0,113.21,1a7.81,7.81,0,0,0-3.85-1,9.73,9.73,0,0,0-3.6.65,13.82,13.82,0,0,0-1.57.69,16.28,16.28,0,0,0-1.4.85,19.45,19.45,0,0,0-4.56,4.29c-.31.41-.63.82-.9,1.25s-.57.85-.83,1.3c-.52.88-1,1.84-1.35,2.64C93.56,15,92.09,18.42,90.76,21.9S88.3,29,87.27,32.44s-2.12,6.83-3.46,10.11a87.56,87.56,0,0,1-4.55,9.58c-.43.76-.86,1.53-1.32,2.26s-.93,1.45-1.4,2.15A16.94,16.94,0,0,1,73.43,60l-.29.23a3.09,3.09,0,0,1-.29.17l-.28.16c-.09,0-.17,0-.25.09a1.55,1.55,0,0,1-.79.11,4.58,4.58,0,0,1-2.09-1.36,76.57,76.57,0,0,1-5-6.32,35.4,35.4,0,0,0-2.95-3.43,15.9,15.9,0,0,0-4-3,28,28,0,0,0-18-2.4,34.8,34.8,0,0,0-4.41,1.14l-2.12.8c-.7.27-1.37.63-2.06.95a36.15,36.15,0,0,0-7.51,5L21.83,53.7c-.54.52-1,1.11-1.54,1.67a20.58,20.58,0,0,0-1.44,1.77c-.23.31-.46.6-.69.92l-.66,1a15.54,15.54,0,0,0-1.87,4.66,13.78,13.78,0,0,0-.09,5.16,17.72,17.72,0,0,0,4.52,8.61l.4.43.21.21.34.34c.5.48,1,.94,1.55,1.36,1.05.62,2.13,2.34,3.14.59q.77-.73,1.53-1.44l1.1-1,1.54-1.34c2.08-1.76,4.21-3.46,6.41-5,.55-.4,1.1-.77,1.66-1.14.26-.17.44-.26.67-.4s.48-.22.72-.34a14.47,14.47,0,0,1,3.4-.85,21.77,21.77,0,0,1,7.41.36,20.56,20.56,0,0,1,3.54,1.13,16.69,16.69,0,0,1,3.17,1.74A13.69,13.69,0,0,1,61,77.69,28.6,28.6,0,0,1,63,85a34.21,34.21,0,0,1,.24,7.77,37.69,37.69,0,0,1-1.41,7.67,16,16,0,0,1-3.56,6.18,19.94,19.94,0,0,1-6,4.31,27.87,27.87,0,0,1-7.27,2.29,26.57,26.57,0,0,1-7.59.28,15,15,0,0,1-1.8-.3c-.58-.13-1.13-.32-1.69-.49a15.83,15.83,0,0,1-3.18-1.61,16.75,16.75,0,0,1-5-5.15,18.52,18.52,0,0,1-2.5-6.85,23.58,23.58,0,0,1,.15-7.49l.16-1,.09-.48.12-.58a17.26,17.26,0,0,0,.29-2.46,9,9,0,0,0-.28-2.87,5.51,5.51,0,0,0-2.17-3.18,5.14,5.14,0,0,0-1.92-.79A6.45,6.45,0,0,0,18,80.26a9.67,9.67,0,0,0-2.78.71A18.52,18.52,0,0,0,11,83.47a30.43,30.43,0,0,0-6.24,6.69A27.91,27.91,0,0,0,.79,98.47,21.14,21.14,0,0,0,0,103.18l0,2.21c0,.73,0,1.48.06,2.21a32.59,32.59,0,0,0,1.61,9,23.74,23.74,0,0,0,4.77,8,35.46,35.46,0,0,0,7,5.72c2.47,1.57,5,2.92,7.47,4.24,5,2.61,9.86,5.12,14.49,8l1.57,1c.73.47,1.46.94,2.18,1.44s1.44,1,2.14,1.5,1.41,1,2.1,1.56a1.6,1.6,0,0,0,.45.07c3.51-.14,3.42-2.6,2.91-3.92a.47.47,0,0,0-.2-.32c-.72-.56-1.47-1.1-2.21-1.63s-1.49-1.06-2.25-1.58-1.52-1-2.29-1.51l-1.64-1c-4.84-3-9.9-5.63-14.81-8.21s-9.69-5.2-13-8.85a18.4,18.4,0,0,1-3.71-6.26,27.41,27.41,0,0,1-1.32-7.49c0-.65-.07-1.3,0-2l0-2a16.2,16.2,0,0,1,.56-3.54A22.89,22.89,0,0,1,9,93.12a25.28,25.28,0,0,1,5.14-5.52,13,13,0,0,1,3-1.79,4.49,4.49,0,0,1,1.26-.35h.3s0-.12.08.22a4.58,4.58,0,0,1,.1,1.28,15.27,15.27,0,0,1-.21,1.69l-.09.45-.1.54-.2,1.12a28.81,28.81,0,0,0-.16,9.18,23.81,23.81,0,0,0,3.22,8.79,22.1,22.1,0,0,0,6.58,6.76,21,21,0,0,0,4.28,2.16c.76.25,1.54.5,2.32.68a21.37,21.37,0,0,0,2.33.39,32.09,32.09,0,0,0,9.09-.32,33.19,33.19,0,0,0,8.66-2.74,25.25,25.25,0,0,0,7.51-5.46A21.25,21.25,0,0,0,66.85,102a43.8,43.8,0,0,0,1.62-8.78,39.28,39.28,0,0,0-.29-8.93,33.62,33.62,0,0,0-2.46-8.72,18.71,18.71,0,0,0-5.85-7.68,21.43,21.43,0,0,0-4.16-2.28,25.71,25.71,0,0,0-4.43-1.43A27,27,0,0,0,42,63.73a19.42,19.42,0,0,0-4.69,1.21c-.39.18-.78.33-1.17.54s-.81.46-1.13.67c-.6.41-1.21.81-1.79,1.23-2.36,1.67-4.6,3.46-6.78,5.31L24.87,74.1l-.46.41-.5-.52a12.46,12.46,0,0,1-3.23-6A8.89,8.89,0,0,1,22,61.76l.48-.74c.17-.24.38-.5.57-.75a18.35,18.35,0,0,1,1.19-1.48c.44-.46.84-1,1.3-1.4l1.4-1.31a31.23,31.23,0,0,1,6.4-4.25c.58-.26,1.14-.57,1.74-.8l1.79-.68a30.44,30.44,0,0,1,3.7-1,24.06,24.06,0,0,1,7.52-.26,24,24,0,0,1,7.11,2.18c1.84.92,3.56,2.86,5.18,5,.81,1.06,1.62,2.18,2.47,3.33a32.17,32.17,0,0,0,2.93,3.5c.3.29.61.58.94.87a11.13,11.13,0,0,0,1.12.81l.63.38a6.8,6.8,0,0,0,.72.32,6.53,6.53,0,0,0,1.59.45,6.78,6.78,0,0,0,3.32-.36,6.94,6.94,0,0,0,.73-.29l.64-.35c.2-.12.43-.24.61-.37l.53-.4a21.43,21.43,0,0,0,4.12-4.49c.53-.79,1.09-1.57,1.56-2.36L83,56.12l.68-1.21A90.63,90.63,0,0,0,88.44,45,105.75,105.75,0,0,0,92,34.72c1-3.43,2-6.74,3.24-10s2.57-6.46,4-9.63c.37-.78.75-1.63,1.11-2.34a17.48,17.48,0,0,1,4.21-5.44,9.27,9.27,0,0,1,3.59-2,3.43,3.43,0,0,1,1.57-.09,2.63,2.63,0,0,1,1.24.56A6.76,6.76,0,0,1,112.92,9a22.13,22.13,0,0,1,.81,4.63,54,54,0,0,1-.47,10.11c-.06.47-.13.93-.2,1.39-1.55,1.56-3,3.17-4.49,4.81A187.13,187.13,0,0,0,95,47.52a177.6,177.6,0,0,0-11.45,19c-.85,1.66-1.66,3.34-2.42,5.07s-1.44,3.51-2.06,5.27a66.08,66.08,0,0,0-2.88,11,36.41,36.41,0,0,0-.51,5.87A19.91,19.91,0,0,0,76,96.85a11.85,11.85,0,0,0,1,3.35A7.12,7.12,0,0,0,78.18,102a5.59,5.59,0,0,0,2.11,1.41,6,6,0,0,0,1.29.28c.21,0,.43,0,.63,0l.59,0a7.22,7.22,0,0,0,2.06-.56,12.15,12.15,0,0,0,2.94-1.87A20.39,20.39,0,0,0,90,99a43.06,43.06,0,0,0,3.41-4.71c1-1.59,2-3.21,2.87-4.84,1.81-3.27,3.45-6.58,5-9.94,3.09-6.71,5.81-13.55,8.27-20.49s4.59-14,6.33-21.19c.81-3.36,1.51-6.74,2.07-10.18a49.4,49.4,0,0,1,4.84-4.18,17.18,17.18,0,0,1,4-2.33,4,4,0,0,1,1.54-.33.74.74,0,0,1,.28.05.75.75,0,0,1,.22.19,3.64,3.64,0,0,1,.67,1.39,11.85,11.85,0,0,1,.43,2.15,30.57,30.57,0,0,1,.13,4.91,82.45,82.45,0,0,1-1.17,10.26c-.58,3.43-1.3,6.86-2.1,10.27l-.36,1.43c-1.76,1.54-3.54,3.11-5.26,4.78a65.83,65.83,0,0,0-7.47,8.58,62.88,62.88,0,0,0-5.77,9.81c-.78,1.72-1.57,3.41-2.24,5.27a23.24,23.24,0,0,0-1.41,6l0,.86.05.92a9.15,9.15,0,0,0,.15,1,7.47,7.47,0,0,0,.37,1.17,5.19,5.19,0,0,0,1.62,2.11,4.68,4.68,0,0,0,2.47.93,6.19,6.19,0,0,0,1.36,0,10.92,10.92,0,0,0,1.09-.25,10.6,10.6,0,0,0,1.73-.75,14.55,14.55,0,0,0,2.68-2,25.14,25.14,0,0,0,3.94-4.64,36.56,36.56,0,0,0,2.87-5.13,108.12,108.12,0,0,0,4-10.46c1.18-3.5,2.25-7,3.24-10.58q.66-2.4,1.27-4.8l2.13-1.89a96.77,96.77,0,0,1,8-6.62,35.21,35.21,0,0,1,4.18-2.7,10.46,10.46,0,0,1,1.05-.54,10.66,10.66,0,0,1,1-.43c.35-.16.64-.19,1-.31a4.71,4.71,0,0,1,.73-.08c.19,0,.22,0,.21,0h0a.68.68,0,0,0,.07.23,5.54,5.54,0,0,1,.06.79,8.79,8.79,0,0,1,0,1c-.07.37-.09.72-.18,1.1a20.86,20.86,0,0,1-.6,2.32,56.91,56.91,0,0,1-4,9.33c-1.65,3.12-3.32,6.25-5,9.34a384.22,384.22,0,0,1-22.48,35.89c-4.05,5.79-8.29,11.46-12.58,17.08-2.16,2.8-4.33,5.6-6.55,8.36l-1.65,2.07-.83,1-.88,1.17a30.25,30.25,0,0,0-2.94,5.07,39,39,0,0,0-3,11,72,72,0,0,0-.49,11c0,.91.06,1.82.1,2.72l0,.49V162l0,.43c.06,1.16.14,2.31.22,3.46l.32,2.28c.21,1.36.48,3.16.75,4.94.56,3.54,1.07,7,1.1,6.68.54,2.87,1,5.23,1.58,5.72s1.09-.95,1.32-5.75c.19-2.83.2-6.24.2-8.92s0-4.66,0-4.66c-.08-1.15-.16-2.3-.23-3.44l0-.86,0-.43-.09-2.26c0-.89-.05-1.78-.05-2.67,0-1.77,0-3.52.17-5.26A40.47,40.47,0,0,1,95.49,141.15Zm10.18-86.88c-2.26,6.66-4.78,13.24-7.6,19.67-1.41,3.22-2.89,6.4-4.49,9.5a91.36,91.36,0,0,1-5.16,9,31.78,31.78,0,0,1-3,3.88L85,96.7l-.39.36a7.2,7.2,0,0,1-.81.65,4.81,4.81,0,0,1-1.45.74,1.6,1.6,0,0,1-.3,0s0,0-.07,0a2.25,2.25,0,0,1-.57-1,13.14,13.14,0,0,1-.51-4.34,42.51,42.51,0,0,1,1.64-9.86A73.1,73.1,0,0,1,86,73.57,141.14,141.14,0,0,1,96.13,55.3a199.07,199.07,0,0,1,12.3-17.07q1.36-1.69,2.79-3.35C109.71,41.41,107.82,47.88,105.67,54.27Zm15.2,15.94a75.56,75.56,0,0,1-3.93,9.48,27.16,27.16,0,0,1-2.64,4.08,14.93,14.93,0,0,1-3.22,3.15,4.84,4.84,0,0,1-1.47.72l-.08,0v0a.2.2,0,0,1,0-.07l0-.17a1.46,1.46,0,0,1,0-.39,8.3,8.3,0,0,1,.18-2,39.7,39.7,0,0,1,3.55-9.25,56.47,56.47,0,0,1,10.7-14.86C122.94,64,122,67.13,120.87,70.21Z"/>
  </g>
</svg>
