<svg xmlns="http://www.w3.org/2000/svg" width="474.01" height="420.17" viewBox="0 0 474.01 420.17">
  <defs>
    <style>
      .cls-1 {
        fill: #8181812a;
      }
    </style>
  </defs>
  <g id="Layer_2" data-name="Layer 2">
    <g>
      <path class="cls-1" d="M47.6,346a46.85,46.85,0,0,1,3.52,3.67,87.43,87.43,0,0,1,6.21,8.14c1,1.42,1.89,2.84,2.79,4.27l.26.43.23.37c2.41,3.91,3.88,6.66,4,6.8a1.23,1.23,0,0,0,.38.25c1.63.65,2.67.42,3.32-.16a3.29,3.29,0,0,0,.94-2.23.4.4,0,0,0,0-.36c-.09-.16-1.59-3-4-7-.64-1-1.29-2-2-3.08-1.92-2.93-4-5.83-6.21-8.65-1.15-1.4-2.32-2.79-3.6-4.13s-2.63-2.61-4-3.84c-5.43-4.82-11.14-9.29-16.92-13.82l-8.71-6.83c-2.9-2.3-5.82-4.62-8.6-7-.7-.6-1.34-1.22-2-1.83-.32-.3-.61-.61-.92-.92a12,12,0,0,1-.91-1,41.32,41.32,0,0,1-3.37-4.2,18.25,18.25,0,0,1-2.35-4.39c-.11-.35-.2-.7-.28-1a4.44,4.44,0,0,1-.07-.94,2.59,2.59,0,0,1,.37-1.45A5.45,5.45,0,0,1,8.71,295a11.67,11.67,0,0,1,4.75-.21,32.18,32.18,0,0,1,10.21,3.56,91.41,91.41,0,0,1,18.7,13.71l8.93,8.24c1.53,1.38,3.05,2.76,4.72,4.11a32,32,0,0,0,2.67,2,12.58,12.58,0,0,0,3.51,1.66,9.06,9.06,0,0,0,4.23.07l.48-.1.56-.17a7.66,7.66,0,0,0,1-.42,11.4,11.4,0,0,0,1.74-1.08,17.82,17.82,0,0,0,2.61-2.5,29.28,29.28,0,0,0,2.07-2.65,92.71,92.71,0,0,0,6.38-11.1c1.9-3.75,3.68-7.53,5.55-11.2.94-1.84,1.89-3.6,3-5.3a37.26,37.26,0,0,1,3.45-4.75,13.9,13.9,0,0,1,4-3.33,4.57,4.57,0,0,1,1.93-.5,3.48,3.48,0,0,1,1.74.49,6.41,6.41,0,0,1,1.72,1.46l.31.38-.77.52a27.3,27.3,0,0,0-5.31,4.92l-.58.68c-.19.24-.36.49-.54.73l-1,1.45c-.61,1-1.28,2-1.79,3.09a34.12,34.12,0,0,0-3.77,13.63,30,30,0,0,0,.46,7.19,22.8,22.8,0,0,0,2.46,6.95,11.15,11.15,0,0,0,2.75,3.27A7.37,7.37,0,0,0,97.22,331a6.3,6.3,0,0,0,2.83.09,8.43,8.43,0,0,0,4.07-2.32,18.08,18.08,0,0,0,2.4-3,39.42,39.42,0,0,0,3.17-6.24,54,54,0,0,0,2.17-6.51A38.55,38.55,0,0,0,113,299.2a34.38,34.38,0,0,0-1.51-6.85c-.34-1-.73-1.94-1.16-2.89a24.83,24.83,0,0,1,5.28-1.54,10.85,10.85,0,0,1,5.2.39,11.61,11.61,0,0,1,5.16,3.92,35.65,35.65,0,0,0-8.23,10.66,72.59,72.59,0,0,0-5,12.68,49.92,49.92,0,0,0-1.62,6.72,26.74,26.74,0,0,0-.32,7.31,13.77,13.77,0,0,0,1.06,3.94,9,9,0,0,0,2.83,3.58,8.83,8.83,0,0,0,4.32,1.65,11.88,11.88,0,0,0,4.2-.33,16,16,0,0,0,6.86-3.83,12.36,12.36,0,0,0,1.37-1.51c.23-.29.39-.52.56-.77l.5-.73a34.49,34.49,0,0,0,1.83-3A35.27,35.27,0,0,0,137,322a33.54,33.54,0,0,0-.68-21.1l-.59-1.66c-.2-.55-.46-1.08-.69-1.62l-.71-1.6-.8-1.56c-.12-.23-.25-.46-.38-.69a14,14,0,0,1,4.54-1.16,13.6,13.6,0,0,1,5.28.72,10,10,0,0,1,4.25,2.66,22,22,0,0,1,2.94,4.79c.27.61.54,1.23.79,1.85a12.71,12.71,0,0,0-3,1.72A18.53,18.53,0,0,0,143.4,310a33.39,33.39,0,0,0-1.47,3.09c-.38,1-.82,2.08-1.13,3.14l-.5,1.58-.42,1.58c-.13.55-.28,1-.41,1.62s-.23,1.15-.32,1.73a35.34,35.34,0,0,0-.33,6.81,27.5,27.5,0,0,0,1.11,6.89,15,15,0,0,0,1.56,3.51,8.52,8.52,0,0,0,3.29,3.13,6.37,6.37,0,0,0,2.57.69,6.65,6.65,0,0,0,2.56-.4,10,10,0,0,0,3.58-2.35,20.72,20.72,0,0,0,4.1-6,26.16,26.16,0,0,0,1.28-3.32c.17-.57.33-1.15.46-1.75.07-.29.13-.59.19-.89s.08-.58.12-.86l.23-1.72c.07-.57.09-1.14.13-1.71.1-1.15.08-2.28.09-3.42a57,57,0,0,0-1.74-12.77,13.16,13.16,0,0,1,1.24,1.33,18.6,18.6,0,0,1,2.55,4.6c.37.83.61,1.74.91,2.6s.51,1.79.68,2.73l.28,1.38c.09.46.15.93.22,1.4l.22,1.41.19,1.49c.26,2,.53,4,.9,6,.19,1,.41,2,.7,3.1a15.48,15.48,0,0,0,1.25,3.31,8.17,8.17,0,0,0,1.3,1.8c.16.15.32.3.49.44s.4.29.6.42a5.07,5.07,0,0,0,2.8.73,5.58,5.58,0,0,0,1.29-.18,7.86,7.86,0,0,0,2-.79,19.42,19.42,0,0,0,5.08-4.5l1-1.21.91-1.23c.62-.82,1.15-1.66,1.73-2.49,2.2-3.33,4.12-6.73,6-10.11,3.7-6.76,7.07-13.51,10.77-19.82a81.28,81.28,0,0,1,6-8.94,40.67,40.67,0,0,1,7.18-7.29,25.37,25.37,0,0,1,4.14-2.6L219,282l.08.17a19.12,19.12,0,0,1,1.54,4.44c.21.76.29,1.56.44,2.34s.18,1.59.18,2.4a34.4,34.4,0,0,1-1.11,9.56c-.22.78-.41,1.56-.65,2.34l-.78,2.37c-.56,1.56-1.11,3.11-1.75,4.63s-1.28,3-1.94,4.52-1.39,2.95-2.16,4.38c-1.47,2.88-3.09,5.65-4.77,8.35s-3.49,5.26-5.33,7.77-3.8,4.87-5.84,7.12-4.1,4.4-6.25,6.44-4.38,4-6.62,5.88c-4.47,3.79-9,7.38-13.28,11.12a135.07,135.07,0,0,0-11.91,11.59c-.88,1-1.81,2-2.63,3l-1.9,2.33-.22.26c-.13.17-.27.34-.4.49-.25.32-.46.62-.67.89l-1.26,1.7-1.27,1.95-2.58,4.36c-1.74,3.21-3.38,6.36-3.15,6.13-2.37,5.51-3.15,9.26,2.41,1.62.86-1.09,1.81-2.3,2.76-3.49l1.36-1.78,1.34-1.62,2.06-2.55.86-1,1.22-1.65c.4-.51.85-1.17,1.44-1.86l.63-.78c1.68-2.12,3.49-4.16,5.38-6.2a141.07,141.07,0,0,1,12.58-11.76c4.54-3.83,9.39-7.67,14.18-11.92,1.2-1.06,2.37-2.17,3.57-3.26l1.76-1.72c.59-.57,1.17-1.16,1.73-1.77,2.32-2.36,4.47-4.91,6.6-7.52A120.92,120.92,0,0,0,216,324.16a107.65,107.65,0,0,0,8.48-19.68,43,43,0,0,0,1.92-11.27c0-1,0-2-.06-2.94s-.15-2-.34-2.95a26.39,26.39,0,0,0-1.58-5.83c-.19-.48-.41-.95-.62-1.42l-.45-.89a13,13,0,0,0-.7-1.15,22.65,22.65,0,0,0-1.55-2.12c-.1-.27-.33-.13-.54-.05l-.62.23-1.25.45-1.25.46-.63.23a1.76,1.76,0,0,0-.39.19l-1.35.72-.68.36-.63.42-1.28.83A42.52,42.52,0,0,0,203.9,288c-5,6.17-8.64,13.09-12.32,19.93-1.83,3.44-3.62,6.88-5.49,10.29s-3.79,6.8-5.92,10a51.21,51.21,0,0,1-3.37,4.53,13.18,13.18,0,0,1-3.66,3.14,1.73,1.73,0,0,1-.57.18h0a1.39,1.39,0,0,1-.23-.26,4.93,4.93,0,0,1-.46-.85,25.15,25.15,0,0,1-1.34-5.24c-1.27-7.47-1.32-17-8-24.37a13.64,13.64,0,0,0-3-2.38,9.61,9.61,0,0,0-3.24-1.1c-.06-.14-.11-.28-.16-.42a37.49,37.49,0,0,0-3-6.26c-.29-.51-.68-1-1-1.53s-.82-1-1.23-1.5a13.81,13.81,0,0,0-3.19-2.45A18.42,18.42,0,0,0,133,288.23a21.39,21.39,0,0,0-2.65,1.1c-.24-.3-.47-.6-.72-.89a17.35,17.35,0,0,0-6.14-4.67,15.47,15.47,0,0,0-7.75-1.1,26.81,26.81,0,0,0-7.07,1.83c-.32.12-.62.26-.93.39a19.2,19.2,0,0,0-1.52-1.87,10.64,10.64,0,0,0-3.4-2.45,8.77,8.77,0,0,0-2.18-.67,9.41,9.41,0,0,0-2.31,0,10.76,10.76,0,0,0-4,1.36,20.75,20.75,0,0,0-5.46,4.83,45.11,45.11,0,0,0-3.89,5.54c-2.29,3.84-4.07,7.69-5.94,11.47s-3.7,7.51-5.73,11a48.6,48.6,0,0,1-3.23,5,13.12,13.12,0,0,1-3.63,3.58c-.15.09-.28.12-.41.2l-.37.11-.57.11-.5.05a3.68,3.68,0,0,1-1.8-.42,9.54,9.54,0,0,1-1.06-.58c-.37-.26-.74-.49-1.12-.78-.75-.56-1.51-1.19-2.27-1.82-3-2.62-6-5.43-9-8.2l-4.53-4.17c-1.55-1.38-3.11-2.73-4.72-4a91.24,91.24,0,0,0-10.1-7.22,50.35,50.35,0,0,0-11.4-5.33,25.57,25.57,0,0,0-6.5-1.14,14.57,14.57,0,0,0-7,1.42l-.83.47-.79.56a9.07,9.07,0,0,0-1.49,1.37,6.3,6.3,0,0,0-.64.87,4.55,4.55,0,0,0-.53.94c-.15.34-.29.68-.41,1s-.16.7-.23,1.06c0,.17-.07.35-.09.52l0,.51c0,.34,0,.69,0,1a12.16,12.16,0,0,0,.31,1.87l.23.88c.09.28.2.55.3.82a14.47,14.47,0,0,0,.67,1.55,31.28,31.28,0,0,0,3.42,5.32c.62.81,1.27,1.57,1.92,2.33l1,1.12L9,314.18c1.46,1.44,2.93,2.7,4.41,3.95s3,2.46,4.44,3.64c3,2.37,5.92,4.68,8.85,7,5.86,4.58,11.63,9.08,17,13.69C45,343.6,46.35,344.76,47.6,346ZM154.81,324.2l-.1,1.47-.19,1.44a14.67,14.67,0,0,1-.56,2.73,20.45,20.45,0,0,1-2.26,5.07,14.3,14.3,0,0,1-1.58,2.09,6.14,6.14,0,0,1-1.7,1.33,1.42,1.42,0,0,1-1.1.16,2.11,2.11,0,0,1-.55-.31,4.21,4.21,0,0,1-.61-.64,12,12,0,0,1-1.74-4.68,27.82,27.82,0,0,1-.42-5.65,25.33,25.33,0,0,1,.67-5.56,51.85,51.85,0,0,1,1.7-5.59,23.69,23.69,0,0,1,2.44-5,9.71,9.71,0,0,1,3.39-3.34l.49-.23c.46,1.56.85,3.15,1.16,4.75A46.81,46.81,0,0,1,154.81,324.2Zm-21.67-10.83a26,26,0,0,1-.8,5.89c-.22,1-.55,1.91-.86,2.86s-.73,1.85-1.18,2.75c-.2.46-.44.89-.68,1.33s-.48.89-.76,1.31-.51.86-.81,1.27l-.43.62-.21.31-.19.24a10.43,10.43,0,0,1-4.12,3,6.74,6.74,0,0,1-4.51.42,3.21,3.21,0,0,1-1.46-1,5.14,5.14,0,0,1-.93-1.95,15.15,15.15,0,0,1-.25-5.48,38.6,38.6,0,0,1,1.17-5.95c.56-2,1.19-4,1.89-6,.32-1,.74-1.94,1.11-2.92s.82-1.89,1.24-2.83a44.27,44.27,0,0,1,3-5.32,29.26,29.26,0,0,1,3.7-4.59c.26-.25.52-.48.78-.71a37.65,37.65,0,0,1,3.87,10.78,12.47,12.47,0,0,1,.23,1.49c.05.49.13,1,.17,1.49A29.64,29.64,0,0,1,133.14,313.37Zm-25.34-7.32a41,41,0,0,1-3,11.63,33.22,33.22,0,0,1-2.7,5.29,13.14,13.14,0,0,1-1.64,2A3.49,3.49,0,0,1,99,326a1.26,1.26,0,0,1-.39,0,2.21,2.21,0,0,1-.55-.3,5.8,5.8,0,0,1-1.38-1.7,17.78,17.78,0,0,1-1.87-5.27A26,26,0,0,1,95.34,307c.22-1,.6-1.89.9-2.84s.73-1.85,1.21-2.72a26.93,26.93,0,0,1,3.2-5,25.19,25.19,0,0,1,4.19-4.07l.83-.55c.37.84.69,1.71,1,2.59a28.16,28.16,0,0,1,1.18,5.7A31.44,31.44,0,0,1,107.8,306.05Z"/>
      <path class="cls-1" d="M366.45,98.85c-.55,6.23-1.24,12.36-2,18.36q-.37,2.75-.72,5.39c-.64,4.6-1.14,7.71-1.16,7.88a1.36,1.36,0,0,0,.14.43c1.79,3.05,3.92,1.75,4.84.7a.44.44,0,0,0,.18-.32c0-.17.52-3.28,1.16-7.87.14-1,.29-2.12.44-3.21.79-6,1.5-12.08,2.09-18.3s1.06-12.56,1.31-19c.06-1.62.13-3.24.14-4.87s.07-3.27,0-4.92c0-3.32-.13-6.58-.24-9.89-.24-6.6-.57-13.3-1.08-20.07s-1.25-13.63-2.05-20.49c-.43-3.56-1.11-7-1.45-10.25a19.46,19.46,0,0,1,0-4.57,4.9,4.9,0,0,1,.49-1.59,1.63,1.63,0,0,1,.74-.73,6.57,6.57,0,0,1,3.59-.09,27,27,0,0,1,4.61,1.37,19.16,19.16,0,0,1,7.68,5.31,25.6,25.6,0,0,1,4.76,8.46,53.78,53.78,0,0,1,2.37,10.07c.52,3.48.87,7.07,1.13,10.67a99.18,99.18,0,0,0,1.23,11.21,29.86,29.86,0,0,0,4.23,11.27,19.89,19.89,0,0,0,4.31,4.67,20.73,20.73,0,0,0,5.53,3.07,26.66,26.66,0,0,0,3,.93c.5.12,1,.21,1.5.31a12.55,12.55,0,0,0,1.49.26l1.5.19c.5.05,1,.07,1.5.1a29.45,29.45,0,0,0,3,.08A54.38,54.38,0,0,0,426.5,73c1-.08,1.92-.24,2.88-.37l2.78-.41,2.71-.39,2.71-.27c.45,0,.9-.09,1.35-.12l1.35,0c.89,0,1.8-.12,2.68-.06A26.42,26.42,0,0,1,453,73a11.29,11.29,0,0,1,3.86,2.52,11.46,11.46,0,0,1,1.42,1.74l.55,1c.19.34.31.73.47,1.08a8.61,8.61,0,0,1,.38,1.15l.18.58c.05.2.09.41.13.61a13,13,0,0,1,.34,2.34,9.39,9.39,0,0,1-.84,4.36l0,0-.45-.36a33.47,33.47,0,0,0-11.17-5.37,23.22,23.22,0,0,0-3.16-.61c-1-.13-2-.2-3-.25-2-.11-3.94-.14-5.9-.14q-5.86,0-11.72.53a76.29,76.29,0,0,0-11.8,1.86,24.74,24.74,0,0,0-6,2.26,8.74,8.74,0,0,0-3.05,2.67,5.5,5.5,0,0,0-.6,5.08,9.5,9.5,0,0,0,2.2,3.3c.4.43.88.79,1.32,1.18s.93.66,1.39,1a29,29,0,0,0,5.76,2.73,57.57,57.57,0,0,0,23.94,2.45A56.58,56.58,0,0,0,449,102.36a29.92,29.92,0,0,0,10.9-6,11.08,11.08,0,0,1,.94,1.71,8.13,8.13,0,0,1,.66,4.16,9.64,9.64,0,0,1-.49,2.13,13.16,13.16,0,0,1-1,2.09,16.24,16.24,0,0,1-2.87,3.59h0c-.9-.32-1.8-.7-2.71-1a41.65,41.65,0,0,0-5.54-1.32,54.46,54.46,0,0,0-11.25-.7,71.43,71.43,0,0,0-11.19,1.38,41.89,41.89,0,0,0-11,3.63,18.81,18.81,0,0,0-5.12,3.74,10.47,10.47,0,0,0-2,3,6.45,6.45,0,0,0,2.1,8,9.59,9.59,0,0,0,3.35,1.6,18.87,18.87,0,0,0,6.4.52A41.15,41.15,0,0,0,426,128q2.76-.57,5.53-1.23c3.68-.88,7.36-1.88,11-3.1a69.27,69.27,0,0,0,10.8-4.56,41.35,41.35,0,0,0,4.58-2.9,16,16,0,0,1,1.82,1.22c.29.22.52.48.78.71l.39.35.3.38a6.47,6.47,0,0,1,.6.78l.51.85a11.4,11.4,0,0,1,.68,1.88,11,11,0,0,1-1.06,8l-.24.47-.29.43-.59.87-.69.8-.35.4-.39.36-.79.73c-.27.23-.58.42-.87.64a9.31,9.31,0,0,1-.89.61l-.16.09a25.89,25.89,0,0,0-7.61-3.49,38.29,38.29,0,0,0-4.78-1.08c-1.61-.27-3.22-.45-4.84-.56a61.58,61.58,0,0,0-9.79.1c-1.65.15-3.28.36-4.93.65a31.64,31.64,0,0,0-5.05,1.27,17,17,0,0,0-2.62,1.16,10.77,10.77,0,0,0-1.35.92,7,7,0,0,0-1.39,1.49,4.88,4.88,0,0,0-.55,4.56,5.94,5.94,0,0,0,1.27,1.94,7.89,7.89,0,0,0,1.44,1.15,9,9,0,0,0,1.6.75c.53.2,1,.29,1.47.43.91.19,1.81.35,2.67.45,1.75.22,3.46.32,5.17.37a96.35,96.35,0,0,0,20.52-1.74c1.73-.35,3.4-.71,5.16-1.21.95-.28,1.89-.6,2.82-1a9.43,9.43,0,0,1,1.63,2.61,11.76,11.76,0,0,1,.33,6.76l-.22.9-.11.44c0,.15-.09.25-.13.38l-.27.74-.38.72a3.81,3.81,0,0,1-.43.72c-.16.24-.3.48-.47.71-.39.45-.7.93-1.14,1.35a32.19,32.19,0,0,1-5.7,4.74,71,71,0,0,1-6.51,3.86c-4.46,2.36-9,4.41-13.46,6.3s-8.86,3.64-13.14,5.33l-7.48,2.92-1.93.76s-3.33,1.54-6.58,3.09-6.4,3.14-6.1,3.08c-2.59,1.42-4.63,2.8-4.88,3.46s1.27.59,5.83-.73c5.42-1.42,13-3.81,13-3.81l1.95-.76,2.24-.88,7.72-3c4.62-1.83,9.39-3.74,14.24-5.87a137.74,137.74,0,0,0,14.71-7.32,54.56,54.56,0,0,0,7.2-5,22.34,22.34,0,0,0,6.05-7.48,16.88,16.88,0,0,0,.82-2.46l.29-1.18.21-1.22a17.11,17.11,0,0,0,.06-5.11,14.62,14.62,0,0,0-1.72-5.09,14.08,14.08,0,0,0-1-1.45,18.53,18.53,0,0,0,6.11-6.87,17.49,17.49,0,0,0,1.18-2.82,18.25,18.25,0,0,0,.6-3,15,15,0,0,0-.56-6.22,14.35,14.35,0,0,0-3.17-5.56,19.81,19.81,0,0,0-2.75-2.31c.34-.38.68-.77,1-1.18a18.5,18.5,0,0,0,3.14-5.78,13.57,13.57,0,0,0,.43-6.94,15.43,15.43,0,0,0-2.9-6.17c-.08-.1-.17-.2-.25-.31a14.34,14.34,0,0,0,.7-1.28,15.08,15.08,0,0,0,1.5-6.73,12.32,12.32,0,0,0-.12-1.72c0-.28-.06-.58-.11-.85l-.16-.78a22.9,22.9,0,0,0-.88-3.13A16,16,0,0,0,460.75,72a8.7,8.7,0,0,0-1.26-1.17c-.45-.35-.89-.72-1.36-1a18.82,18.82,0,0,0-2.94-1.55,25.75,25.75,0,0,0-6.13-1.7,51,51,0,0,0-12-.18c-1,.1-2,.18-2.93.3l-2.89.41-2.8.41c-.9.14-1.8.27-2.71.35a42.83,42.83,0,0,1-10.62-.06,22.24,22.24,0,0,1-4.87-1.3,16,16,0,0,1-4.14-2.43A17.09,17.09,0,0,1,400.89,56c-2.15-6.51-2-14-2.84-21.45a85.57,85.57,0,0,0-1.88-11.2,39.33,39.33,0,0,0-4.28-10.84,12.94,12.94,0,0,0-.82-1.26L390.21,10c-.63-.78-1.29-1.55-2-2.29l-1.11-1a9.76,9.76,0,0,0-1.15-1l-1.22-.91c-.2-.14-.4-.3-.61-.44L383.48,4a18.67,18.67,0,0,0-2.65-1.4,27.67,27.67,0,0,0-2.72-1.1A26,26,0,0,0,372.3.07a11.5,11.5,0,0,0-3.43.13,7.17,7.17,0,0,0-3.64,1.85,7.88,7.88,0,0,0-2,3.41,13.93,13.93,0,0,0-.51,3.24,33.94,33.94,0,0,0,.33,5.72c.23,1.81.51,3.56.78,5.28l.37,2.54c.12.85.21,1.64.31,2.53.19,1.73.39,3.46.58,5.17.39,3.43.72,6.82,1,10.21.56,6.77.94,13.49,1.21,20.13.13,3.32.25,6.63.33,9.9,0,1.62,0,3.24,0,4.85s-.05,3.22-.07,4.83C367.43,86.28,367,92.62,366.45,98.85ZM447.18,139a92.05,92.05,0,0,1-9.44,1.35,87.31,87.31,0,0,1-9.39.37c-1.55,0-3.08-.1-4.57-.25-.38,0-.74-.08-1.1-.13s-.73-.08-1.07-.16a11.32,11.32,0,0,1-1.82-.44,2.53,2.53,0,0,1-1-.62l0-.05.22-.21a6.21,6.21,0,0,1,1.39-.82,20.27,20.27,0,0,1,3.9-1.22c1.4-.3,2.84-.53,4.3-.7a53,53,0,0,1,17.05.66,34.31,34.31,0,0,1,3.89,1.13c.31.12.59.25.89.38l-.84.2C448.75,138.69,448,138.84,447.18,139ZM442.8,98.64a56.84,56.84,0,0,1-21.63.39c-.89-.16-1.76-.37-2.64-.56S416.8,98,416,97.74a24.53,24.53,0,0,1-4.77-2,8.21,8.21,0,0,1-1-.63,6.76,6.76,0,0,1-.93-.68,7.31,7.31,0,0,1-1.45-1.51c-.35-.5-.37-.81-.35-.8a.41.41,0,0,1,.09-.19,2.65,2.65,0,0,1,.48-.49,13.92,13.92,0,0,1,4.25-1.91,47.47,47.47,0,0,1,5.23-1.18,99.79,99.79,0,0,1,11-1.18c3.7-.21,7.43-.28,11.09-.17.92,0,1.83.07,2.73.13s1.79.15,2.56.27a24.63,24.63,0,0,1,4.86,1.43,27.31,27.31,0,0,1,6.62,3.77,20.93,20.93,0,0,1-3.57,2.51A36.26,36.26,0,0,1,442.8,98.64ZM428,122.28c-1.74.39-3.56.77-5.26,1.1a22.72,22.72,0,0,1-4.87.43,9.12,9.12,0,0,1-4-.91,2.08,2.08,0,0,1-.84-.8,1.09,1.09,0,0,1-.05-.84,6.37,6.37,0,0,1,2.25-2.87,19.2,19.2,0,0,1,4.06-2.36A31.66,31.66,0,0,1,424,114.4c.79-.24,1.66-.39,2.48-.6s1.67-.39,2.52-.51a57.57,57.57,0,0,1,10.1-1,48.74,48.74,0,0,1,9.92.81c1.07.21,2.12.46,3.15.76a40.67,40.67,0,0,1-3.7,2A101.55,101.55,0,0,1,428,122.28Z"/>
      <path class="cls-1" d="M139.34,142a26,26,0,0,1,2-4.53,20.17,20.17,0,0,1,1.32-2.07l.73-1,.86-1.07q6.87-8.55,13.44-17.36a418.31,418.31,0,0,0,24.47-36.54c3.74-6.31,7.27-12.75,10.68-19.21a65.18,65.18,0,0,0,4.57-10.42c.15-.47.29-.94.42-1.43s.25-1,.35-1.47a15.56,15.56,0,0,0,.37-3.23l0-.9c0-.33-.09-.65-.14-1s-.19-.7-.3-1a7.13,7.13,0,0,0-.59-1.17,6.71,6.71,0,0,0-.9-1,5.42,5.42,0,0,0-2.39-1.13,5.26,5.26,0,0,0-1.19-.11,9,9,0,0,0-1.95.23,16.28,16.28,0,0,0-1.62.5l-.75.3c-.25.1-.47.22-.71.32-.47.22-.92.45-1.35.7a42.86,42.86,0,0,0-4.87,3.16c-1.69,1.23-3.3,2.54-4.86,3.87q.82-4.05,1.43-8.18a65.33,65.33,0,0,0,.74-11.37,18.69,18.69,0,0,0-1.19-6.25,7.06,7.06,0,0,0-2.65-3.31,5.59,5.59,0,0,0-2.33-.83,7.36,7.36,0,0,0-2.11.05,12.19,12.19,0,0,0-3.3,1.1,22.13,22.13,0,0,0-2.66,1.56c-.74.5-1.44,1-2.12,1.55.1-1.43.15-2.86.14-4.31a36.55,36.55,0,0,0-.56-5.91c-.11-.5-.24-1-.36-1.51s-.32-1-.49-1.52-.43-1-.66-1.53a14.07,14.07,0,0,0-.92-1.5,8.79,8.79,0,0,0-2.82-2.58,7.74,7.74,0,0,0-3.86-1,9.53,9.53,0,0,0-3.6.65,13.61,13.61,0,0,0-1.56.68c-.47.28-1,.53-1.41.85a19.64,19.64,0,0,0-4.55,4.3c-.31.41-.63.81-.91,1.24s-.57.86-.82,1.3A28.86,28.86,0,0,0,139,12.52c-1.6,3.33-3.06,6.75-4.39,10.23s-2.46,7.06-3.5,10.55a102.72,102.72,0,0,1-3.46,10.11A85.54,85.54,0,0,1,123.12,53c-.43.77-.86,1.53-1.32,2.26s-.93,1.45-1.41,2.15a16.91,16.91,0,0,1-3.1,3.47l-.3.23a2.19,2.19,0,0,1-.29.17l-.27.17-.25.08a1.48,1.48,0,0,1-.79.12,4.44,4.44,0,0,1-2.09-1.37,72.92,72.92,0,0,1-5-6.32,36.78,36.78,0,0,0-3-3.43,16.12,16.12,0,0,0-4-3,28.93,28.93,0,0,0-8.82-2.71,29.47,29.47,0,0,0-9.14.31A33.15,33.15,0,0,0,79,46.26l-2.12.81c-.71.27-1.37.63-2.06.94a36.26,36.26,0,0,0-7.52,5l-1.65,1.55c-.55.53-1,1.11-1.55,1.67A20.62,20.62,0,0,0,62.71,58c-.23.3-.47.59-.69.92l-.66,1a15.18,15.18,0,0,0-1.87,4.66,13.57,13.57,0,0,0-.09,5.16,17.55,17.55,0,0,0,4.51,8.6l.41.43.2.21.35.34c.5.48,1,.94,1.54,1.37,1.06.61,2.14,2.33,3.14.58.51-.49,1-1,1.54-1.44l1.1-1,1.54-1.34c2.07-1.77,4.21-3.47,6.4-5,.55-.39,1.11-.76,1.66-1.14.26-.17.45-.26.67-.4s.49-.22.73-.33a14.36,14.36,0,0,1,3.4-.86,21.78,21.78,0,0,1,7.41.36,21.08,21.08,0,0,1,3.53,1.14A16.91,16.91,0,0,1,100.7,73a13.58,13.58,0,0,1,4.11,5.55,28.42,28.42,0,0,1,2.06,7.35,33.72,33.72,0,0,1,.25,7.78,37.61,37.61,0,0,1-1.42,7.66,15.7,15.7,0,0,1-3.55,6.18,20.22,20.22,0,0,1-6,4.32,27.87,27.87,0,0,1-7.27,2.29,27,27,0,0,1-7.6.28c-.61-.08-1.22-.17-1.79-.3s-1.13-.32-1.7-.5A15.09,15.09,0,0,1,74.65,112a16.83,16.83,0,0,1-5-5.15,18.3,18.3,0,0,1-2.5-6.84,23.63,23.63,0,0,1,.14-7.5l.17-.94.09-.49.11-.58A17.06,17.06,0,0,0,68,88a9.54,9.54,0,0,0-.28-2.86A5.56,5.56,0,0,0,65.5,82a5.25,5.25,0,0,0-1.91-.78,6.5,6.5,0,0,0-1.78-.09,10.37,10.37,0,0,0-2.78.71,18.33,18.33,0,0,0-4.19,2.51A30.14,30.14,0,0,0,48.6,91a27.87,27.87,0,0,0-4,8.32,21.54,21.54,0,0,0-.75,4.71l0,2.2c0,.73,0,1.48.06,2.22a32.57,32.57,0,0,0,1.6,8.94,23.67,23.67,0,0,0,4.78,8,35.11,35.11,0,0,0,7,5.72c2.47,1.57,5,2.93,7.47,4.24,5,2.62,9.85,5.13,14.48,8l1.57,1c.74.47,1.47.95,2.18,1.45s1.44,1,2.14,1.5,1.42,1,2.11,1.55a1.29,1.29,0,0,0,.44.08c3.52-.15,3.42-2.61,2.92-3.93a.47.47,0,0,0-.2-.31c-.73-.57-1.47-1.1-2.22-1.64s-1.49-1.06-2.25-1.57-1.51-1-2.29-1.52L82,139c-4.83-3-9.89-5.63-14.8-8.22s-9.69-5.19-13-8.84a18.47,18.47,0,0,1-3.7-6.26,27.41,27.41,0,0,1-1.33-7.49c0-.66-.07-1.31-.05-2l0-2a16,16,0,0,1,.57-3.54A22.58,22.58,0,0,1,52.9,94,25,25,0,0,1,58,88.46a13,13,0,0,1,3-1.8,4.6,4.6,0,0,1,1.26-.34,1.32,1.32,0,0,1,.3,0h0s0-.11.08.22a4.26,4.26,0,0,1,.1,1.28,11.94,11.94,0,0,1-.21,1.7l-.09.45-.1.54-.19,1.12A28.75,28.75,0,0,0,62,100.8a23.51,23.51,0,0,0,3.22,8.79,22,22,0,0,0,6.58,6.77,21.4,21.4,0,0,0,4.27,2.16c.77.24,1.55.49,2.33.67a21.37,21.37,0,0,0,2.33.39,32.12,32.12,0,0,0,9.09-.32,33.35,33.35,0,0,0,8.65-2.73,25.38,25.38,0,0,0,7.52-5.47,21.08,21.08,0,0,0,4.72-8.22,42.89,42.89,0,0,0,1.62-8.77,39.26,39.26,0,0,0-.28-8.93,33.58,33.58,0,0,0-2.46-8.73,18.78,18.78,0,0,0-5.86-7.68,21.9,21.9,0,0,0-4.15-2.28A26,26,0,0,0,95.14,65a26.77,26.77,0,0,0-9.24-.44,19.74,19.74,0,0,0-4.69,1.2c-.4.18-.79.34-1.18.54s-.8.46-1.13.67c-.6.41-1.2.82-1.79,1.24-2.36,1.67-4.59,3.46-6.77,5.31L68.72,75l-.46.41-.49-.52a12.41,12.41,0,0,1-3.23-6,8.82,8.82,0,0,1,1.3-6.22l.48-.74c.17-.25.38-.5.57-.75a15.41,15.41,0,0,1,1.19-1.48c.43-.47.84-1,1.3-1.4l1.39-1.32a31.32,31.32,0,0,1,6.4-4.24c.59-.26,1.15-.58,1.75-.8l1.79-.69a29.49,29.49,0,0,1,3.7-.94A22.74,22.74,0,0,1,99,52.17c1.84.93,3.56,2.86,5.17,5,.82,1.06,1.62,2.18,2.48,3.33a33,33,0,0,0,2.92,3.5c.31.29.61.58,1,.86a12.28,12.28,0,0,0,1.11.82l.63.37c.22.12.48.22.72.33a7.24,7.24,0,0,0,1.6.45,6.68,6.68,0,0,0,3.32-.37c.24-.09.5-.18.73-.28l.63-.36a5.34,5.34,0,0,0,.62-.37l.53-.4a21.19,21.19,0,0,0,4.12-4.49c.53-.78,1.09-1.56,1.56-2.36l.73-1.19.68-1.2a89.82,89.82,0,0,0,4.75-9.9,107.59,107.59,0,0,0,3.6-10.3c1-3.42,2-6.74,3.23-10s2.58-6.46,4-9.64c.37-.77.74-1.63,1.1-2.34a17.54,17.54,0,0,1,1.17-2,16.37,16.37,0,0,1,3-3.42,9.24,9.24,0,0,1,3.59-2,3.47,3.47,0,0,1,1.58-.08,2.47,2.47,0,0,1,1.23.56,6.52,6.52,0,0,1,1.89,3.2,21,21,0,0,1,.81,4.63,54.13,54.13,0,0,1-.47,10.12c-.05.46-.13.92-.19,1.38-1.56,1.57-3,3.17-4.49,4.81A186.87,186.87,0,0,0,138.9,48.38a176.56,176.56,0,0,0-11.46,19c-.84,1.66-1.66,3.35-2.41,5.07S123.59,76,123,77.72a66.1,66.1,0,0,0-2.89,11,37.48,37.48,0,0,0-.5,5.87,19.7,19.7,0,0,0,.24,3.11,11.37,11.37,0,0,0,1,3.36,6.82,6.82,0,0,0,1.22,1.76,5.52,5.52,0,0,0,2.11,1.41,5.37,5.37,0,0,0,1.28.29c.21,0,.43,0,.64,0l.59,0a7.06,7.06,0,0,0,2.05-.55,12.15,12.15,0,0,0,2.94-1.87,19.6,19.6,0,0,0,2.22-2.26,43,43,0,0,0,3.41-4.7c1-1.6,2-3.22,2.88-4.85,1.8-3.26,3.44-6.58,5-9.93,3.09-6.71,5.81-13.55,8.26-20.5a219,219,0,0,0,6.34-21.19c.8-3.35,1.51-6.74,2.07-10.17a49.52,49.52,0,0,1,4.84-4.19,17.71,17.71,0,0,1,4-2.33,4,4,0,0,1,1.55-.33,1.16,1.16,0,0,1,.28.05,1,1,0,0,1,.22.19,4,4,0,0,1,.67,1.39,13,13,0,0,1,.43,2.15,33.12,33.12,0,0,1,.13,4.91,84.39,84.39,0,0,1-1.17,10.26c-.58,3.43-1.3,6.86-2.11,10.28-.11.47-.24,1-.36,1.42-1.75,1.54-3.53,3.12-5.26,4.79a64.47,64.47,0,0,0-7.46,8.58,61.66,61.66,0,0,0-5.77,9.81c-.78,1.71-1.58,3.4-2.24,5.26a22.93,22.93,0,0,0-1.41,6l0,.86.05.93a9,9,0,0,0,.15,1,8.6,8.6,0,0,0,.36,1.17,5.21,5.21,0,0,0,1.62,2.11,4.66,4.66,0,0,0,2.48.93,5.55,5.55,0,0,0,1.35,0,8,8,0,0,0,1.09-.25,9.11,9.11,0,0,0,1.73-.75,14.64,14.64,0,0,0,2.69-2,24.5,24.5,0,0,0,3.94-4.64A37.49,37.49,0,0,0,166.4,81a109.13,109.13,0,0,0,4-10.46c1.18-3.51,2.25-7,3.23-10.59.44-1.59.87-3.19,1.27-4.8l2.13-1.89a100.2,100.2,0,0,1,8-6.62,37.11,37.11,0,0,1,4.19-2.7c.35-.2.7-.37,1.05-.53a10.83,10.83,0,0,1,1-.44c.35-.15.64-.19,1-.3a3.78,3.78,0,0,1,.73-.09h.21v0a1.31,1.31,0,0,0,.06.23,4.16,4.16,0,0,1,.07.78,7,7,0,0,1-.05,1c-.06.37-.08.72-.17,1.11-.16.75-.35,1.53-.6,2.31a57,57,0,0,1-4,9.33q-2.47,4.7-5,9.35A380.7,380.7,0,0,1,161,102.56c-4.05,5.8-8.28,11.46-12.58,17.09-2.16,2.8-4.32,5.6-6.54,8.35l-1.66,2.08-.82,1-.89,1.17a29.44,29.44,0,0,0-2.93,5.06,39.23,39.23,0,0,0-3,11,73.44,73.44,0,0,0-.48,11.05c0,.91.06,1.81.1,2.72l0,.49v.21l0,.44c.07,1.15.14,2.31.23,3.45,0,0,.13.92.32,2.29s.47,3.15.74,4.93c.57,3.55,1.08,7,1.11,6.68.53,2.88,1.05,5.24,1.57,5.72s1.1-1,1.32-5.74c.2-2.83.21-6.24.21-8.93s0-4.66,0-4.66c-.09-1.15-.17-2.29-.23-3.44l-.05-.86,0-.43-.1-2.26c0-.89-.05-1.78,0-2.66,0-1.77,0-3.53.16-5.27A41.23,41.23,0,0,1,139.34,142Zm10.18-86.89c-2.25,6.66-4.77,13.25-7.59,19.68-1.41,3.21-2.9,6.39-4.49,9.49a92.78,92.78,0,0,1-5.17,9,30.9,30.9,0,0,1-3,3.87l-.39.42-.39.35a7.51,7.51,0,0,1-.81.66,4.6,4.6,0,0,1-1.44.73,1.32,1.32,0,0,1-.31,0s0,0-.06,0a2.1,2.1,0,0,1-.58-1,13.36,13.36,0,0,1-.5-4.33,41.8,41.8,0,0,1,1.63-9.86,74.74,74.74,0,0,1,3.42-9.69A140,140,0,0,1,140,56.15a202.14,202.14,0,0,1,12.29-17.07q1.38-1.69,2.79-3.34A201.4,201.4,0,0,1,149.52,55.12Zm15.21,15.94a75.12,75.12,0,0,1-3.94,9.49,26.84,26.84,0,0,1-2.63,4.08,15.34,15.34,0,0,1-3.22,3.14,4.71,4.71,0,0,1-1.47.72l-.08,0,0,0a.21.21,0,0,0,0-.06l0-.17a2.29,2.29,0,0,1,0-.39,8.38,8.38,0,0,1,.18-2A39,39,0,0,1,157,76.58a56.29,56.29,0,0,1,10.7-14.87C166.8,64.86,165.81,68,164.73,71.06Z"/>
      <path class="cls-1" d="M451.72,308.17l-.25,6.35q-.14,3.14-.33,6.29l-.87,12.66c-.24,3.59-.47,7.2-.6,10.83l-4.61.1c-16.86.26-33.81.08-50.73-.2l-8.21-.16-1.59,0h-.6c-.08,0,0,.11,0,.15l.06.75c.08,1,.13,2,.26,3,.07.52.16,1,.23,1.56l.15.78.09.48c.12.55.25,1.11.39,1.66a31,31,0,0,0,6,12.37,21.7,21.7,0,0,0,5.51,4.66,20.49,20.49,0,0,0,6.79,2.47c.58.09,1.18.21,1.76.26s1.2.1,1.75.13l3.17.13,6.35.28,12,.52h0l-.82,1.54c-.5,1-1,1.93-1.46,2.91a103,103,0,0,0-4.93,12.06c-.35,1-.68,2.07-1,3.12-.17.52-.31,1.05-.45,1.57l-.34,1.24-.06.24c-.33,1.3-.62,2.61-.9,3.92l-.18,1.44c-.12.89-.23,2.12-.33,3.47a58.88,58.88,0,0,0-.08,6.6c.07.95.12,1.75.18,2.29s.12.82.13.72a23.46,23.46,0,0,0,.86,3.88,4.68,4.68,0,0,0,1,1.92c.29.2.51-.07.66-1s.2-2.44.39-4.76a76.8,76.8,0,0,1,1.44-9.08c.5-2.29.92-3.82.92-3.82.25-1.28.53-2.56.85-3.83l.12-.47.06-.24,0-.18.11-.39.21-.77c.14-.52.29-1,.45-1.55.3-1,.64-2.05,1-3.07a100.69,100.69,0,0,1,5-11.92c.47-1,1-1.92,1.48-2.87l.5-.92.82-1.45c.56-1,1.16-1.93,1.79-2.92l.94-1.48.47-.74.11-.19c0-.05.12-.14,0-.12l-.41,0-3.3-.14-5.8-.25-13.26-.57-6.63-.29c-.56,0-1.12,0-1.58-.09a13.68,13.68,0,0,1-1.45-.16,11.12,11.12,0,0,1-1.42-.27l-.7-.17c-.23-.06-.45-.14-.68-.22a16.09,16.09,0,0,1-8.69-7.1,26.16,26.16,0,0,1-2.56-5.45c-.33-1-.61-1.95-.85-2.95-.07-.25-.12-.5-.17-.75l-.13-.58h0l2.18,0,6.64.11,13.28.17q13.29.12,26.58.05c3.72,0,7.44-.1,11.13-.18a79.65,79.65,0,0,0,.51,9.83,39.39,39.39,0,0,0,1.34,6.65c.18.56.34,1.11.56,1.66l.32.83.36.82c.23.55.53,1.08.81,1.61s.59,1,.92,1.52a20.22,20.22,0,0,0,2.29,2.88,11.67,11.67,0,0,0,3.28,2.41,7.71,7.71,0,0,0,4.7.66,8,8,0,0,0,4.07-2.22,16,16,0,0,0,3.71-6.59,35.28,35.28,0,0,0,1.31-6.75c.12-1.11.19-2.23.23-3.34s.06-2.18,0-3.37a19.36,19.36,0,0,0-.48-3.67,10,10,0,0,0-1.78-3.84,9.32,9.32,0,0,0-3.44-2.7,15.58,15.58,0,0,0-3.66-1.12,42.15,42.15,0,0,0-6.76-.55c-1,0-2,0-3,0,.1-2.72.26-5.44.43-8.18l.91-13.24q.22-3.31.38-6.66l.27-6.64c.38-8.8.91-17.65,1.24-26.52.34-9.07.53-18.18.07-27.36a108.73,108.73,0,0,0-1.5-13.81,47.88,47.88,0,0,0-1.77-6.95,22,22,0,0,0-3.59-6.78,11.55,11.55,0,0,0-3.32-2.8,10.22,10.22,0,0,0-8.81-.44,12,12,0,0,0-3.57,2.36,22.42,22.42,0,0,0-4.46,6.23,47.06,47.06,0,0,0-2.7,6.65,96,96,0,0,0-3.2,13.57c-.75,4.55-1.29,9.11-1.67,13.68q-.74,8.79-.78,17.59a24.69,24.69,0,0,0-6.82.38,28.68,28.68,0,0,0-7.05,2.36,34.4,34.4,0,0,0-10.71,8.15,23,23,0,0,0-4.15-1.33,30.31,30.31,0,0,0-7.39-.66l-1.82.11c-.61,0-1.25.14-1.88.22s-1.24.24-1.86.37-1.22.33-1.83.51a23.55,23.55,0,0,0-2.81,1.13c-.33-6-.86-12.07-1.64-18.09a135,135,0,0,0-2.4-13.62,64.3,64.3,0,0,0-2-6.79,33.65,33.65,0,0,0-1.42-3.4,16.92,16.92,0,0,0-2.13-3.38,9.8,9.8,0,0,0-1.7-1.62,6.56,6.56,0,0,0-2.55-1.14,6.2,6.2,0,0,0-2.95.17,9.53,9.53,0,0,0-1,.42l-.88.4a18.43,18.43,0,0,0-6.18,4.8,23,23,0,0,0-3.76,6.63,37.58,37.58,0,0,0-1.84,7,83.76,83.76,0,0,0-.94,14c0,4.61.25,9.17.55,13.71.61,9.09,1.49,18.1,2.27,27.1q.58,6.75,1.11,13.49a107,107,0,0,0,2,13.76,80.64,80.64,0,0,0,10.16,26,69.62,69.62,0,0,0,4,5.79,67,67,0,0,0,4.64,5.34l1.25,1.25,1.29,1.22.66.58.21.18a47.61,47.61,0,0,0,7.06,5.2,1.46,1.46,0,0,0,.49,0c1.86-.24,2.56-1.11,2.71-2a3.76,3.76,0,0,0-.33-2.31c-.07-.19-.1-.21-.2-.27a42.93,42.93,0,0,1-6.29-4.63l-.19-.16-.6-.54-1.18-1.1-1.14-1.15a61.88,61.88,0,0,1-4.26-4.89q-2-2.58-3.71-5.35a75.53,75.53,0,0,1-9.49-24.3,104.28,104.28,0,0,1-1.87-13.08q-.53-6.78-1.11-13.55c-.78-9-1.65-18-2.26-27-.29-4.48-.51-8.95-.54-13.39a79.3,79.3,0,0,1,.87-13.07c.71-4.2,2-8.26,4.46-11.19a13.06,13.06,0,0,1,4.44-3.45l.66-.3c.22-.1.48-.22.53-.23a.73.73,0,0,1,.4,0,2.58,2.58,0,0,1,1.25,1,12.45,12.45,0,0,1,1.46,2.35,29.51,29.51,0,0,1,1.19,2.86,58.3,58.3,0,0,1,1.8,6.23,131.1,131.1,0,0,1,2.31,13.09c.87,6.79,1.43,13.64,1.74,20.51a26.76,26.76,0,0,0-8.24,10.61,24,24,0,0,0-1.84,7.36,20.66,20.66,0,0,0,.77,7.65,21.5,21.5,0,0,0,3.47,6.85c.19.25.37.52.58.76l.83.94a9.23,9.23,0,0,0,1.17,1.17l1.18.76,1.19.76a2.15,2.15,0,0,0,1.22.07,3.57,3.57,0,0,0,2.16-1.33,7.82,7.82,0,0,0,1.3-2.77c.07-.27.16-.54.22-.81l.09-.42.08-.35.18-.91c.21-1.2.36-2.37.49-3.54.24-2.33.39-4.63.49-6.93.19-4.59.19-9.16.1-13.73,0-1.17-.07-2.33-.11-3.5a20.85,20.85,0,0,1,4.16-1.91l1.44-.4c.48-.09,1-.21,1.46-.29s1-.14,1.49-.17l1.56-.09a23.35,23.35,0,0,1,8.08,1.1,30.4,30.4,0,0,0-4.1,9.57A35.12,35.12,0,0,0,390,317a36.38,36.38,0,0,0,.57,7.27,26.9,26.9,0,0,0,.89,3.62,18.31,18.31,0,0,0,1.54,3.6,10.65,10.65,0,0,0,2.89,3.4l.52.36c.19.12.4.22.6.32s.4.2.62.27l.68.2a6.06,6.06,0,0,0,1.41.19,8,8,0,0,0,1.38-.11,9.17,9.17,0,0,0,4.15-2.12,19.7,19.7,0,0,0,2.72-2.87,19.07,19.07,0,0,0,3.26-7.11,25.58,25.58,0,0,0,.66-7.48,27.27,27.27,0,0,0-1.43-7.36,24,24,0,0,0-3.59-6.68,21.48,21.48,0,0,0-4-4,30.88,30.88,0,0,1,3.1-2.84,29.6,29.6,0,0,1,5.25-3.29,21.62,21.62,0,0,1,11.64-2.21c0,1.53,0,3.06.1,4.59.15,4.57.43,9.14.89,13.71A109.28,109.28,0,0,0,426,322.19a34,34,0,0,0,2.32,7,11.8,11.8,0,0,0,1.08,1.83c.11.16.24.32.36.48l.21.24.29.31a6.11,6.11,0,0,0,1.34,1,4.41,4.41,0,0,0,3.2.43,5.38,5.38,0,0,0,1.49-.62l.89-.49c.57-.32,1.1-.75,1.65-1.12s1-.88,1.52-1.33.92-1,1.34-1.51a18.65,18.65,0,0,0,1.13-1.66,20,20,0,0,0,2.53-7.34,32.76,32.76,0,0,0-1.53-14.55,40.29,40.29,0,0,0-2.84-6.66,32.58,32.58,0,0,0-4.11-6.07,21.17,21.17,0,0,0-5.92-5,15.93,15.93,0,0,0-1.84-.81l-.9-.33L428,286q0-9.12.76-18.19c.37-4.45.89-8.88,1.62-13.25a88.78,88.78,0,0,1,3-12.81,41.23,41.23,0,0,1,2.39-5.91,17.1,17.1,0,0,1,3.36-4.77,5.61,5.61,0,0,1,4.21-1.75,5.28,5.28,0,0,1,3.93,2.14,17.09,17.09,0,0,1,2.67,5.16,45.22,45.22,0,0,1,1.58,6.19A101.36,101.36,0,0,1,453,255.91c.45,8.89.27,17.89-.07,26.88C452.6,291.23,452.1,299.67,451.72,308.17Zm-80.17,10.75c-.09,2.22-.23,4.43-.46,6.6-.12,1.08-.26,2.15-.44,3.18l-.16.81,0,0-.25-.28c-.16-.18-.3-.39-.45-.59a16.36,16.36,0,0,1-2.63-5.18,17,17,0,0,1,.86-11.49,20.84,20.84,0,0,1,3.67-5.75C371.74,310.44,371.73,314.69,371.55,318.92Zm34.58,3.85a13.76,13.76,0,0,1-2.31,5.15,14.16,14.16,0,0,1-1.93,2.05,4.08,4.08,0,0,1-1.78,1,1.4,1.4,0,0,1-1.17-.32,5.49,5.49,0,0,1-1.42-1.75,13.33,13.33,0,0,1-1.11-2.63,21.34,21.34,0,0,1-.73-3,30.82,30.82,0,0,1-.48-6.23,29.51,29.51,0,0,1,.74-6.18,25.07,25.07,0,0,1,3.65-8.33,17.48,17.48,0,0,1,5.92,8.31A21.51,21.51,0,0,1,406.13,322.77Zm22.37-31a16,16,0,0,1,4.4,3.72,32.43,32.43,0,0,1,6,10.95,27.67,27.67,0,0,1,1.33,12.19c-.56,3.92-2.45,7.39-5.7,9.24l-.6.33,0,0h0l-.07-.08-.15-.2a7.53,7.53,0,0,1-.63-1.08,29.39,29.39,0,0,1-1.93-5.88,105,105,0,0,1-2-13.05c-.45-4.43-.72-8.9-.87-13.36,0-1-.06-2-.08-3Zm29.75,57.68c1.06,0,2.12.07,3.14.17a18.63,18.63,0,0,1,2.92.43,7.62,7.62,0,0,1,2.3.86,3.47,3.47,0,0,1,1.33,1.41,11.5,11.5,0,0,1,.86,5.22,46.1,46.1,0,0,1-.42,6.25,23.63,23.63,0,0,1-1.49,5.76,10.12,10.12,0,0,1-1.29,2.3,4.1,4.1,0,0,1-1.5,1.29,2,2,0,0,1-1.46.05,4.91,4.91,0,0,1-1.84-1.13A12.47,12.47,0,0,1,459,370a18.55,18.55,0,0,1-1.48-2.49,25.15,25.15,0,0,1-1.81-5.68,63.91,63.91,0,0,1-1-12.4C455.94,349.43,457.1,349.43,458.25,349.45Z"/>
      <path class="cls-1" d="M327.06,143c1.6-4.47,3.07-9,4.37-13.65a101.23,101.23,0,0,0,3.05-14.29,41.57,41.57,0,0,0,.34-7.61,22.49,22.49,0,0,0-.55-4,13.88,13.88,0,0,0-1.58-4.06A10.32,10.32,0,0,0,329.45,96a11.2,11.2,0,0,0-4.32-1.65,14.75,14.75,0,0,0-4.35-.1,13.37,13.37,0,0,0-4.28,1.28,16.93,16.93,0,0,0-6.19,5.74,39.08,39.08,0,0,0-3.59,6.85c-1.93,4.65-3.33,9.33-4.75,14-.7,2.31-1.41,4.62-2.11,6.94l-1.08,3.44c-.38,1.18-.74,2.35-1.09,3.53-1.39,4.7-2.65,9.4-4,14a123.63,123.63,0,0,1-4.61,13.53,30.45,30.45,0,0,1-3.19,5.88,9,9,0,0,1-1.95,2c-.16.13-.32.18-.48.29a2.75,2.75,0,0,1-.45.17,2.26,2.26,0,0,1-.85.1,4.61,4.61,0,0,1-2.1-.87,12.94,12.94,0,0,1-2.26-2.06,36,36,0,0,1-4-5.53,110.47,110.47,0,0,1-6.46-12.76c-3.83-8.87-7.29-18-10.33-27.18-1.52-4.6-2.93-9.24-4.31-13.92-.69-2.34-1.38-4.69-2.13-7.06a48.06,48.06,0,0,0-2.78-7.22,14.21,14.21,0,0,0-2.56-3.65,9.18,9.18,0,0,0-4.34-2.45,13.85,13.85,0,0,0-4.48-.26,18.72,18.72,0,0,0-4.19.83,14.62,14.62,0,0,0-4,2.16,13.69,13.69,0,0,0-3,3.39,19.72,19.72,0,0,0-2.6,7.92,39.12,39.12,0,0,0-.11,7.79,66.15,66.15,0,0,0,1,7.49,115.42,115.42,0,0,0,3.84,14.31,184.64,184.64,0,0,0,6.94,17.59,28.56,28.56,0,0,0-4,1.1,24.89,24.89,0,0,0-10.15,6.86,13.66,13.66,0,0,0-3.48-1.26,12.75,12.75,0,0,0-4.09-.14,12.55,12.55,0,0,0-7.14,3.56,16.58,16.58,0,0,0-4,6.44,24.39,24.39,0,0,0-1.21,7,56.36,56.36,0,0,0,1,13.17,91.27,91.27,0,0,0,3.3,12.36,162.28,162.28,0,0,0,9.84,22.69c3.71,7.19,7.76,14,12,20.58,1.05,1.64,2.12,3.26,3.19,4.87l.31.46.25.37c2.63,3.9,4.53,6.5,4.63,6.64a1.82,1.82,0,0,0,.42.21c1.73.46,2.73.05,3.27-.64a3.48,3.48,0,0,0,.64-2.3.41.41,0,0,0-.1-.34c-.09-.14-1.92-2.63-4.48-6.41-.69-1-1.41-2.12-2.13-3.21-4.13-6.31-8.12-12.89-11.81-19.75q-2.76-5.16-5.27-10.52c-1.65-3.58-3.2-7.23-4.59-11a97.89,97.89,0,0,1-3.52-11.42A61.49,61.49,0,0,1,205.59,178c0-1-.08-2,0-3l.06-1.47c0-.49.1-.93.14-1.41a16.12,16.12,0,0,1,1.52-5.18c1.52-3.15,4.53-5.13,7.68-4.82a7.9,7.9,0,0,1,2.3.6,24,24,0,0,0-2,5,28.17,28.17,0,0,0-.88,7.43c0,.62,0,1.23.07,1.83s.08,1.22.17,1.82.13,1.18.24,1.82.25,1.25.4,1.85a32.47,32.47,0,0,0,2.56,6.88,17.67,17.67,0,0,0,1,1.71l.42.57a4.8,4.8,0,0,0,.49.6c.19.2.36.41.55.6l.62.5a4.36,4.36,0,0,0,2.75.93,4.16,4.16,0,0,0,2.63-1.1c.18-.18.35-.36.52-.55a7.65,7.65,0,0,0,.43-.67,5.9,5.9,0,0,0,.4-.69l.3-.73.3-.72.13-.47c.09-.31.19-.63.25-.93a32.17,32.17,0,0,0,.63-3.56,57.31,57.31,0,0,0,.48-7,32.18,32.18,0,0,0-.81-7.14,22,22,0,0,0-2.82-6.85,17.79,17.79,0,0,0-1.77-2.32,19.25,19.25,0,0,1,3.53-3,21.65,21.65,0,0,1,8.77-3.28c.72,1.47,1.44,2.94,2.19,4.39,2.22,4.3,4.58,8.53,7.21,12.64a72.62,72.62,0,0,0,4.25,6,32.6,32.6,0,0,0,2.59,2.91c.26.24.5.48.8.71l.43.36.5.36a8,8,0,0,0,1.18.64c.31.13.61.27.93.38a12.39,12.39,0,0,0,4.41.93,6,6,0,0,0,3-.78,5.27,5.27,0,0,0,2.21-2.57,7.39,7.39,0,0,0,.52-2.65,13.3,13.3,0,0,0-.15-2.24,21.71,21.71,0,0,0-1.05-3.89,38.77,38.77,0,0,0-3.32-6.78,47,47,0,0,0-4.36-6,37.09,37.09,0,0,0-5.39-5.23,22.07,22.07,0,0,0-6.9-3.8,21,21,0,0,0-5.85-.85c-1.85-4-3.57-8.06-5.15-12.17-1.66-4.38-3.17-8.82-4.39-13.32a76.94,76.94,0,0,1-2.55-13.6,36.08,36.08,0,0,1,0-6.66,19,19,0,0,1,.61-3.09,15,15,0,0,1,.49-1.43,10.37,10.37,0,0,1,.65-1.29,9.59,9.59,0,0,1,.77-1.15,8.52,8.52,0,0,1,.95-.95,7.15,7.15,0,0,1,2.31-1.37,3.52,3.52,0,0,1,.67-.23c.23-.06.45-.14.69-.19.49-.08.94-.2,1.48-.24a9.59,9.59,0,0,1,2.84,0,4,4,0,0,1,2,.92,7.64,7.64,0,0,1,1.62,2.1,37.85,37.85,0,0,1,2.49,6.22c1.43,4.48,2.73,9.16,4.16,13.79,2.81,9.28,6,18.47,9.65,27.48,1.8,4.5,3.69,9,5.82,13.43a72.36,72.36,0,0,0,7.67,12.9,27.82,27.82,0,0,0,2.73,3,12.81,12.81,0,0,0,3.74,2.47,8.4,8.4,0,0,0,2.52.63,7.21,7.21,0,0,0,2.73-.27,9.49,9.49,0,0,0,4.13-2.58A24.87,24.87,0,0,0,293,167.6a70.85,70.85,0,0,0,2.81-6.93c3.24-9.28,5.37-18.62,8.28-27.59,1.45-4.58,2.78-9.17,4.19-13.67a79.13,79.13,0,0,1,4.94-12.82,18.45,18.45,0,0,1,3.63-5,8.13,8.13,0,0,1,4.83-2.21,10.25,10.25,0,0,1,2.77.11,5.91,5.91,0,0,1,2.25.9,7,7,0,0,1,2.54,4.32,23.76,23.76,0,0,1,.41,6.27,56.26,56.26,0,0,1-.8,6.63,119.18,119.18,0,0,1-3.25,13.26c-2.62,8.78-5.92,17.31-9.24,25.84s-6.66,17-9.62,25.62c-1.28,3.73-2.49,7.47-3.59,11.25-.95-.12-1.9-.21-2.84-.25-.54,0-1.1-.05-1.62-.05h-4.58l-6.06,0c-8,.08-16,.3-23.74.58s-15.41.64-22.9,1l-5.59.31-2.78.17-2.27.14-1.37.09c-.19.07-.57-.11-.56.2l-.21.64c-.28.83-.55,1.7-.76,2.59-.13.53-.15.68-.21.94s-.09.49-.14.74a29.57,29.57,0,0,0-.38,3,27.44,27.44,0,0,0,.17,6,20.76,20.76,0,0,0,1.73,5.86,18.72,18.72,0,0,0,3.51,5.06,19.53,19.53,0,0,0,4.8,3.6c.43.22.86.46,1.3.67l1.33.57.67.27.67.23,1.35.44A42,42,0,0,0,253.37,228c.88.06,1.76,0,2.63,0s1.76,0,2.58-.07l4.95-.27,9.7-.53,3.94-.22h0V228l0,1.19c0,.8.05,1.59.1,2.38.08,1.58.24,3.13.38,4.67s.34,3.06.6,4.56c.11.75.23,1.5.34,2.25l.43,2.21c.25,1.48.59,2.92.93,4.35.17.72.31,1.44.51,2.14.1.36.2.73.29,1.09l.09.32c.06.21.11.42.17.61.1.4.2.76.29,1.08.17.65.32,1.16.43,1.5l.17.53.43,1.13c.28.7.63,1.69,1.08,2.78a89.47,89.47,0,0,0,4.36,9.13c3.09,5.16,5.7,7.94,2.71-1-.41-1.6-.92-3.38-1.42-5.07l-1.19-4.59c-.49-2-.79-3.26-.79-3.26s-.23-.7-.61-1.95c-.17-.63-.37-1.4-.61-2.28-.09-.34-.19-.69-.28-1-.4-1.44-.69-2.92-1-4.39s-.59-3-.86-4.5c-.5-3-.9-6.12-1.13-9.26-.05-.78-.09-1.57-.14-2.36s0-1.57-.06-2.37v-1.45c0-.83.07-1.67.11-2.51l.08-1.27,0-.64c0-.2.07-.47,0-.59l-2.47.13-22,1.21c-.89.07-1.68,0-2.53.06h-1.25l-1.26-.06c-.84,0-1.69-.05-2.52-.16s-1.67-.14-2.49-.3-1.65-.26-2.44-.48l-1.21-.29c-.39-.11-.77-.25-1.16-.37a21.34,21.34,0,0,1-2.27-.88c-.37-.15-.71-.36-1.06-.54a7.49,7.49,0,0,1-1-.6,13.48,13.48,0,0,1-5.72-7.12,20.55,20.55,0,0,1-.63-9.88c.08-.43.15-.85.24-1.27l0-.2H233l5.76-.34,11.67-.6c7.85-.37,15.83-.69,23.94-.91s16.35-.36,24.65-.26c.89,0,1.78.06,2.65.15-.85,3.27-1.59,6.55-2.2,9.87-.18,1.12-.37,2.24-.55,3.35l-.28,1.67-.18,1.69c-.24,2.25-.53,4.49-.55,6.77,0,1.13-.09,2.26-.13,3.39s.1,2.27.14,3.4a24.36,24.36,0,0,0,1,7.15c.11.31.25.65.38,1s.34.67.52,1a8.17,8.17,0,0,0,.72,1,6.4,6.4,0,0,0,1,1,5.45,5.45,0,0,0,1.37.74,5.67,5.67,0,0,0,1.55.3,6.12,6.12,0,0,0,2.68-.49,11.28,11.28,0,0,0,3.47-2.34,22.63,22.63,0,0,0,2.41-2.74,35.19,35.19,0,0,0,3.55-5.94,42.63,42.63,0,0,0,2.44-6.33,32.91,32.91,0,0,0,1.3-13.58,19.54,19.54,0,0,0-2.23-6.82,16.55,16.55,0,0,0-4.87-5.45,20.06,20.06,0,0,0-5.08-2.52c2.49-8.5,5.56-16.94,8.81-25.42C320.34,160.66,323.88,152,327.06,143ZM224.5,179.81a50,50,0,0,1-.65,6.2c-.08.51-.2,1-.3,1.44l-.19.66-.06.22v0l-.14-.2a17.88,17.88,0,0,1-1.32-2.55,26.88,26.88,0,0,1-1.77-5.78,25,25,0,0,1,.7-12c.18-.53.4-1.05.62-1.56a13.57,13.57,0,0,1,1.23,2A24.28,24.28,0,0,1,224.5,179.81Zm19.29-24.13a11.43,11.43,0,0,1,1.32.45,19.64,19.64,0,0,1,5.11,3.25,39.2,39.2,0,0,1,8.17,10,30.84,30.84,0,0,1,2.66,5.81,13.14,13.14,0,0,1,.6,2.81,4.68,4.68,0,0,1,0,1.09,1.13,1.13,0,0,1-.12.38h0s0,0-.07,0a2.2,2.2,0,0,1-.8,0,10.43,10.43,0,0,1-2.64-.81.93.93,0,0,1-.25-.12c-.05,0-.08,0-.15-.08s-.28-.19-.46-.35a5,5,0,0,1-.51-.45,6.62,6.62,0,0,1-.53-.53,30.49,30.49,0,0,1-2.09-2.47,102.19,102.19,0,0,1-7.41-11.56c-1.42-2.53-2.78-5.11-4.09-7.72C242.94,155.47,243.37,155.58,243.79,155.68Zm68,47.12a12.63,12.63,0,0,1,1.59,2,13.78,13.78,0,0,1,1.78,5.08,27.08,27.08,0,0,1-1.07,11.66,34.27,34.27,0,0,1-5.33,10.86,15.93,15.93,0,0,1-1.89,2.08,5.3,5.3,0,0,1-1.8,1.16.61.61,0,0,1-.32,0s0,0,0,0-.06,0-.12-.12a4.49,4.49,0,0,1-.86-1.82,16.83,16.83,0,0,1-.49-2.83c-.09-1-.1-2.13-.15-3.19l-.07-1.6,0-.81,0-.81c.05-1.08.09-2.16.13-3.24a106.53,106.53,0,0,1,3.65-21.55,13.62,13.62,0,0,1,3,1.42A11.46,11.46,0,0,1,311.82,202.8Z"/>
    </g>
  </g>
</svg>
