<svg width="68" height="95" viewBox="0 0 68 95" fill="none" xmlns="http://www.w3.org/2000/svg">
<path d="M64.0702 27.6754C64.8783 25.3734 65.636 23.0714 66.2926 20.667C66.9492 18.3139 67.5048 15.8584 67.8078 13.3517C67.9593 12.0728 68.0604 10.7939 67.9593 9.46386C67.9088 8.79883 67.8583 8.1338 67.7068 7.41762C67.5553 6.75259 67.3027 6.03641 66.8987 5.32022C66.4946 4.6552 65.939 3.99017 65.2824 3.58092C64.6258 3.12052 63.8177 2.86474 63.1105 2.71127C62.3529 2.5578 61.6458 2.5578 60.9387 2.66011C60.1811 2.76242 59.474 2.96705 58.7668 3.32514C57.4031 4.04132 56.3929 5.1156 55.6353 6.24103C54.8777 7.36646 54.3221 8.54305 53.817 9.7708C52.8574 12.124 52.1503 14.5283 51.4431 16.9326C51.0896 18.1092 50.736 19.2858 50.3825 20.4624L49.8269 22.2017C49.6248 22.8156 49.4733 23.4294 49.2713 23.9922C48.5642 26.3965 47.9076 28.8008 47.251 31.154C46.5438 33.5072 45.8367 35.8604 44.9276 38.0601C44.473 39.1343 43.9174 40.2086 43.3113 41.0783C43.0083 41.4875 42.6547 41.8456 42.3517 42.1014C42.2506 42.1525 42.2001 42.2037 42.0991 42.2549C41.9981 42.2549 41.9476 42.306 41.8971 42.3572C41.695 42.4595 41.5435 42.4595 41.392 42.4595C41.089 42.4083 40.7354 42.306 40.3313 41.9991C39.9273 41.7433 39.5737 41.334 39.1696 40.9248C38.412 40.1063 37.7554 39.1343 37.1493 38.1112C35.9371 36.065 34.8764 33.8141 33.8663 31.5633C31.947 27.0104 30.1792 22.3552 28.6639 17.6488C27.9063 15.2956 27.1992 12.9425 26.4921 10.5381C26.1385 9.36155 25.785 8.1338 25.4314 6.90606C25.0273 5.67832 24.6738 4.45057 24.0172 3.22283C23.7141 2.60896 23.31 1.94393 22.7039 1.38121C22.1484 0.76734 21.3402 0.306936 20.5321 0.102312C19.7745 -0.051156 19.0168 0 18.3097 0.051156C17.6531 0.102312 16.8955 0.25578 16.1884 0.460404C15.4813 0.716184 14.7742 1.07428 14.1681 1.58584C13.562 2.0974 13.0569 2.66011 12.6528 3.32514C11.8447 4.60404 11.5416 6.03641 11.3396 7.36646C11.1881 8.69652 11.1881 10.0266 11.2891 11.3566C11.3901 12.6355 11.5921 13.9144 11.7942 15.1933C12.2992 17.7 12.9559 20.1555 13.7135 22.5086C14.7236 25.578 15.9358 28.5962 17.1985 31.5121C16.5419 31.6656 15.8348 31.819 15.2287 32.0748C13.3094 32.791 11.4911 33.9676 10.0769 35.6046C9.52129 35.2976 8.91519 35.093 8.30909 34.9396C7.65249 34.8372 6.94537 34.7861 6.23826 34.8884C4.87453 35.093 3.56132 35.758 2.65217 36.73C1.69251 37.702 1.03591 38.8274 0.631841 40.004C0.227775 41.1806 0.0762507 42.4083 0.0257424 43.5849C-0.0752741 45.8869 0.126759 48.1378 0.530825 50.3375C0.934891 52.5372 1.49048 54.6346 2.1976 56.6809C3.56132 60.7733 5.2786 64.61 7.14741 68.2933C9.01621 71.9765 11.087 75.4551 13.2084 78.8314C13.7135 79.6499 14.2691 80.5195 14.8247 81.338L14.9762 81.5938C15.0267 81.645 15.0772 81.6961 15.0772 81.7984C16.3904 83.7935 17.3501 85.1236 17.4006 85.1747C17.4511 85.2259 17.6026 85.2771 17.6026 85.2771C18.4613 85.5328 18.9663 85.2771 19.2694 84.9701C19.5724 84.612 19.6229 84.1516 19.5724 83.7935C19.5724 83.6912 19.5724 83.6912 19.5219 83.6401C19.4714 83.5889 18.5623 82.31 17.2491 80.3661C16.8955 79.8545 16.5419 79.2918 16.1884 78.7291C14.1175 75.5063 12.0972 72.13 10.2284 68.6002C9.31926 66.8609 8.41011 65.0704 7.55147 63.2288C6.69283 61.3872 5.93521 59.5456 5.22809 57.6017C4.52098 55.7089 3.91488 53.765 3.4603 51.7699C3.15725 49.6213 2.8037 47.5751 2.75319 45.58C2.75319 45.0684 2.70268 44.5569 2.75319 44.0453L2.8037 43.278C2.8037 43.0222 2.8542 42.8176 2.8542 42.5618C2.95522 41.641 3.20776 40.7202 3.61183 39.9017C4.36945 38.2647 5.8847 37.2927 7.50096 37.4462C7.90503 37.4973 8.3091 37.5997 8.66265 37.7531C8.25859 38.5716 7.90503 39.4413 7.65249 40.3109C7.34944 41.5898 7.19791 42.8687 7.19791 44.0965C7.19791 44.4034 7.19791 44.7103 7.24842 45.0173C7.24842 45.3242 7.29893 45.6312 7.34944 45.9381C7.39995 46.245 7.39995 46.552 7.45046 46.8589C7.50096 47.1658 7.55147 47.4728 7.65249 47.7797C7.95554 49.0075 8.3596 50.1329 8.9657 51.3095C9.11723 51.6164 9.26875 51.8722 9.47079 52.1791L9.67282 52.4861C9.72333 52.5884 9.82434 52.6907 9.92536 52.793C10.0264 52.8953 10.1274 52.9976 10.2284 53.0999L10.5315 53.3557C10.9355 53.6626 11.4406 53.8673 11.8952 53.8161C12.4003 53.8161 12.8548 53.5603 13.2084 53.2534C13.3094 53.1511 13.4104 53.0488 13.4609 52.9976C13.562 52.8953 13.6125 52.793 13.663 52.6395C13.7135 52.5372 13.8145 52.4349 13.865 52.2814L14.0165 51.9233L14.1681 51.5653L14.2186 51.3095C14.2691 51.156 14.3196 51.0025 14.3701 50.8491C14.5216 50.2352 14.6226 49.6213 14.6731 49.0075C14.8247 47.8309 14.9257 46.6543 14.9257 45.4265C14.9257 44.1988 14.7742 42.971 14.5216 41.7945C14.2186 40.5667 13.764 39.3901 13.1074 38.2647C12.8548 37.8554 12.5518 37.4462 12.1982 37.0881C12.7033 36.5254 13.3094 36.0138 13.966 35.5534C15.2792 34.6838 16.7945 34.1211 18.4107 33.8653C18.7643 34.6326 19.1179 35.3488 19.5219 36.1161C20.6331 38.3158 21.8453 40.4644 23.1585 42.5618C23.8151 43.6361 24.5222 44.6592 25.3304 45.6312C25.7344 46.1427 26.1385 46.6543 26.6436 47.1147C26.7951 47.217 26.8961 47.3705 27.0477 47.4728L27.2497 47.6774L27.5022 47.882C27.6538 47.9843 27.9568 48.1378 28.1083 48.189C28.2599 48.2401 28.4114 48.3424 28.5629 48.3936C29.2195 48.6494 29.8761 48.854 30.7853 48.854C31.2398 48.854 31.7449 48.7517 32.3005 48.4447C32.8056 48.1378 33.2097 47.6262 33.4117 47.1147C33.6137 46.6031 33.6642 46.1939 33.6642 45.7846C33.6642 45.3754 33.6137 45.0173 33.5632 44.6592C33.4622 43.943 33.2602 43.278 33.0581 42.6641C32.6036 41.4364 32.048 40.2598 31.3914 39.1855C30.7348 38.1112 30.0276 37.0881 29.169 36.1161C28.3609 35.1442 27.4517 34.2234 26.4416 33.456C25.4314 32.6375 24.2697 31.9213 22.9565 31.5121C21.9463 31.2052 20.9867 31.1028 20.027 31.0517C19.0674 29.0055 18.2087 26.9081 17.4006 24.8107C16.5419 22.5598 15.7843 20.3089 15.1782 18.0069C14.5721 15.7049 14.067 13.3517 13.9155 11.0497C13.8145 9.87311 13.8145 8.74768 13.9155 7.62224C13.966 7.05953 14.067 6.54797 14.2186 6.03641C14.2691 5.78063 14.3701 5.52485 14.4711 5.32022C14.5721 5.1156 14.6731 4.85982 14.7742 4.6552C14.9762 4.60404 15.0772 4.45057 15.2287 4.24595C15.3802 4.09248 15.5318 3.88786 15.6833 3.73439C16.0369 3.42745 16.3904 3.17167 16.845 3.0182C16.946 2.96705 17.047 2.91589 17.1985 2.91589C17.2996 2.86474 17.4511 2.86474 17.5521 2.81358C17.8046 2.76242 18.0067 2.71127 18.3097 2.71127C18.8148 2.66011 19.3199 2.66011 19.724 2.71127C20.128 2.81358 20.4311 2.91589 20.7341 3.17167C21.0372 3.42745 21.2897 3.78554 21.5423 4.24595C22.0473 5.16676 22.4514 6.29219 22.805 7.41762C23.5121 9.71964 24.1687 12.124 24.9263 14.4771C26.3405 19.2347 27.9568 23.941 29.8256 28.545C30.7348 30.8471 31.6944 33.1491 32.7551 35.4C33.8663 37.6508 35.028 39.9017 36.6442 41.9991C37.0483 42.5106 37.5029 43.0222 38.0079 43.5338C38.513 43.9942 39.1191 44.4546 39.8768 44.8127C40.2808 44.9661 40.6849 45.1196 41.1395 45.1196C41.594 45.1707 42.0991 45.1196 42.5032 44.9661C43.4123 44.7103 44.0689 44.1988 44.574 43.6361C45.6347 42.5618 46.2408 41.3852 46.7964 40.2086C47.352 39.032 47.8065 37.8554 48.2106 36.6789C49.8269 31.9213 50.9381 27.1638 52.4028 22.5598C53.1604 20.2066 53.817 17.8534 54.5241 15.5514C55.2313 13.2494 55.9889 10.9985 56.999 9.00346C57.5041 8.03149 58.1102 7.11068 58.8173 6.44566C59.5245 5.78063 60.3326 5.37138 61.2417 5.32022C61.6963 5.26907 62.2014 5.26907 62.656 5.37138C63.1105 5.47369 63.4641 5.62716 63.8177 5.83178C64.4238 6.24103 64.8783 7.05953 65.0804 8.03149C65.2824 9.00346 65.3329 10.1289 65.2824 11.2543C65.2319 12.3798 65.0804 13.5052 64.8783 14.6306C64.4743 16.8815 63.8682 19.1835 63.2116 21.4344C61.8983 25.9361 60.2316 30.2844 58.5648 34.6326C56.898 38.9809 55.1808 43.3291 53.716 47.7285C53.0594 49.6213 52.4533 51.5653 51.8977 53.458C51.3926 53.4069 50.9381 53.3557 50.4835 53.3046C50.2309 53.3046 49.9279 53.3046 49.6754 53.3046H48.9177C48.4126 53.3046 47.9076 53.3046 47.352 53.3046C46.3418 53.3046 45.3316 53.3046 44.271 53.3046C40.2303 53.3557 36.1896 53.458 32.3005 53.6115C28.3609 53.765 24.5222 53.9184 20.7341 54.1231C19.7745 54.1742 18.8653 54.2254 17.9057 54.2765C17.4511 54.3277 16.946 54.3277 16.4914 54.3788L15.3297 54.43L14.6226 54.4811C14.5216 54.5323 14.3196 54.43 14.3196 54.5835L14.2186 54.8904C14.067 55.2996 13.966 55.76 13.8145 56.2204C13.764 56.4762 13.7135 56.5785 13.7135 56.6809C13.663 56.7832 13.663 56.9366 13.663 57.0389C13.562 57.5505 13.5114 58.0621 13.4609 58.5736C13.3599 59.5967 13.4104 60.6199 13.562 61.643C13.7135 62.6661 13.966 63.6892 14.4206 64.6612C14.8752 65.6331 15.4813 66.5028 16.1884 67.2701C16.8955 68.0375 17.7541 68.6514 18.6128 69.1118C18.8148 69.2141 19.0674 69.3675 19.2694 69.4699L19.926 69.7768L20.2796 69.9303L20.7846 70.0837L21.4412 70.2883C23.2595 70.8511 25.0778 71.0557 26.8456 71.1068C27.3002 71.158 27.7548 71.1068 28.1588 71.1068C28.6134 71.1068 29.068 71.1068 29.4721 71.0557C30.3307 71.0045 31.1388 70.9534 31.947 70.9022C33.6137 70.7999 35.23 70.6976 36.8463 70.6464C37.5029 70.5953 38.1595 70.5953 38.8161 70.5441V71.1068V71.7207C38.8161 72.13 38.8666 72.5392 38.8666 72.9485C38.9171 73.767 38.9676 74.5343 39.0686 75.3528C39.1696 76.1201 39.2201 76.9386 39.3717 77.706C39.4222 78.1152 39.4727 78.4733 39.5232 78.8314C39.5737 79.1895 39.6747 79.5987 39.7252 79.9568C39.8768 80.7242 40.0283 81.4404 40.1798 82.2077C40.2808 82.5658 40.3313 82.9239 40.4323 83.282C40.4829 83.4866 40.5334 83.6401 40.5839 83.8447C40.5839 83.8958 40.6344 83.947 40.6344 83.9982C40.6849 84.1005 40.6849 84.2028 40.7354 84.3051C40.7859 84.5097 40.8364 84.7143 40.8869 84.8678C40.9879 85.2259 41.0384 85.4817 41.0889 85.6351C41.1395 85.7886 41.19 85.8909 41.19 85.8909C41.19 85.8909 41.291 86.0956 41.392 86.4536C41.5435 86.8117 41.695 87.3233 41.9476 87.886C42.8062 89.9834 44.2205 92.7458 44.17 92.5412C45.7357 95.2013 47.0489 96.5825 45.5337 92.0296C45.3316 91.2112 45.0791 90.2903 44.8266 89.4207C44.6245 88.551 44.372 87.7325 44.2205 87.0675C43.9679 86.0444 43.8164 85.3794 43.8164 85.3794C43.8164 85.3794 43.7154 85.0213 43.5133 84.3562C43.4123 84.0493 43.3113 83.6401 43.2103 83.1797C43.1598 83.0262 43.1093 82.8216 43.0588 82.6681C42.8567 81.9519 42.7052 81.1846 42.5537 80.4172C42.4022 79.6499 42.2506 78.8826 42.0991 78.1152C41.8466 76.5805 41.6445 74.9947 41.5435 73.3577C41.5435 72.9485 41.493 72.5392 41.493 72.13C41.493 71.7207 41.493 71.3115 41.4425 70.9022V70.1349C41.4425 69.7256 41.493 69.2652 41.493 68.856L41.5435 68.191V67.884C41.5435 67.7817 41.594 67.6282 41.5435 67.5771C41.1395 67.5771 40.7354 67.6282 40.2808 67.6282C36.6442 67.8329 32.9571 68.0375 29.169 68.2421C28.7144 68.2933 28.3104 68.2421 27.9063 68.2933H27.2497L26.5931 68.2421C26.189 68.2421 25.7344 68.1909 25.3304 68.1398C24.9263 68.0886 24.4717 68.0886 24.0677 67.9863C23.6636 67.9352 23.209 67.8329 22.8555 67.7305L22.2494 67.5771C22.0473 67.5259 21.8453 67.4236 21.6433 67.3725C21.2392 67.2701 20.8857 67.0655 20.4816 66.9121C20.2796 66.8097 20.128 66.7074 19.926 66.6563C19.724 66.554 19.5724 66.4516 19.4209 66.3493C18.0572 65.4797 17.047 64.2519 16.5419 62.7173C16.0369 61.1826 15.9358 59.3921 16.2389 57.6528C16.2894 57.4482 16.2894 57.1924 16.3399 56.9878V56.8855H16.4409C17.4006 56.8343 18.3602 56.7832 19.3704 56.732C21.3402 56.6297 23.2595 56.5274 25.2799 56.4251C29.27 56.2204 33.2602 56.067 37.3513 55.9647C41.4425 55.8624 45.6347 55.76 49.7764 55.8112C50.2309 55.8112 50.6855 55.8624 51.1401 55.9135C50.736 57.6017 50.332 59.2898 50.0289 60.978C49.9279 61.5407 49.8269 62.1034 49.7259 62.6661L49.5743 63.5358L49.4733 64.4054C49.3723 65.582 49.2208 66.7074 49.1703 67.884C49.1703 68.4467 49.1198 69.0606 49.1198 69.6233C49.1198 70.186 49.1703 70.7999 49.1703 71.3626C49.2208 72.4881 49.2713 73.7158 49.6754 74.9947C49.7259 75.1482 49.8269 75.3528 49.8774 75.5063C49.9279 75.6597 50.0289 75.8644 50.1299 76.0178C50.2309 76.1713 50.332 76.3759 50.4835 76.5294C50.635 76.6829 50.7865 76.8875 50.9886 77.0409C51.1906 77.1944 51.4431 77.2967 51.6957 77.399C51.9482 77.5013 52.2008 77.5525 52.5038 77.5525C53.0089 77.5525 53.4635 77.4502 53.8675 77.2967C54.6252 76.9898 55.1302 76.5294 55.6353 76.1201C56.0899 75.6597 56.494 75.1993 56.8475 74.7389C57.5546 73.767 58.1607 72.7438 58.6658 71.7207C59.1709 70.6976 59.575 69.5722 59.878 68.4979C60.5346 66.2982 60.8377 63.945 60.5346 61.5407C60.3831 60.3641 60.0295 59.1363 59.4234 58.0621C58.8173 56.9366 57.9587 56.0158 56.9485 55.2996C56.1404 54.7369 55.2818 54.3277 54.3726 54.0207C55.6353 49.6725 57.2011 45.3754 58.8173 41.0271C60.6862 36.6789 62.4539 32.2283 64.0702 27.6754ZM12.2992 46.5008C12.2487 47.5751 12.1477 48.6494 11.9457 49.6725C11.8952 49.9283 11.8447 50.184 11.7942 50.3887L11.6931 50.7468V50.8491L11.6426 50.7468C11.3901 50.3887 11.1881 49.9283 10.986 49.4167C10.582 48.4959 10.2789 47.4216 10.0769 46.4496C9.77383 44.4034 9.77383 42.2037 10.4304 40.3109C10.5315 40.0552 10.6325 39.7994 10.7335 39.4924C10.986 39.7994 11.1881 40.1575 11.3396 40.5156C12.1477 42.306 12.4003 44.4034 12.2992 46.5008ZM22.0473 34.1211C22.2494 34.1722 22.5019 34.2745 22.7039 34.3768C23.6131 34.7349 24.4717 35.3488 25.2799 36.0138C26.8961 37.395 28.3104 39.1855 29.4215 41.1294C29.9771 42.1014 30.4317 43.1245 30.7853 44.0965C30.9368 44.608 31.0378 45.1196 31.0883 45.5288C31.0883 45.7335 31.0883 45.9381 31.0883 46.0916C31.0883 46.245 31.0378 46.2962 31.0378 46.2962C31.0378 46.2962 31.0378 46.2962 30.9873 46.2962C30.9368 46.2962 30.7853 46.3473 30.5832 46.2962C30.2297 46.245 29.7246 46.0916 29.27 45.8869C29.2195 45.8358 29.169 45.8358 29.169 45.8358C29.169 45.8358 29.1185 45.8358 29.068 45.7846C29.0175 45.7335 28.9165 45.6823 28.8154 45.6312C28.7144 45.58 28.6639 45.4777 28.5629 45.3754C28.4619 45.2731 28.3609 45.2219 28.3104 45.1196C27.9568 44.7615 27.6032 44.3011 27.2497 43.8407C25.886 41.9991 24.6738 40.004 23.5121 37.9066C22.805 36.6277 22.0978 35.2976 21.4412 33.9676C21.5928 34.0187 21.7948 34.0699 22.0473 34.1211ZM56.3929 58.2667C56.696 58.5736 56.9485 58.9317 57.2011 59.2898C57.6557 60.0571 57.9587 60.9268 58.1102 61.8988C58.4133 63.7915 58.1607 65.8889 57.5546 67.884C56.9991 69.8791 56.0899 71.823 54.8777 73.46C54.5747 73.8693 54.2716 74.2274 53.918 74.5343C53.615 74.8412 53.2109 75.097 53.0089 75.1482C52.9079 75.1993 52.8574 75.1482 52.8574 75.1482C52.8574 75.1482 52.8069 75.1482 52.8069 75.097C52.6553 74.9947 52.5038 74.5854 52.3523 74.1762C52.2513 73.7158 52.1503 73.2554 52.0998 72.7438C52.0492 72.2323 52.0492 71.6696 51.9987 71.1068L51.9482 70.2883V69.8791V69.4699C51.9482 68.9071 51.9987 68.3444 51.9987 67.8329C52.2008 64.1496 52.9079 60.4664 53.8675 56.8343C54.4231 57.0389 54.9282 57.2436 55.3828 57.5505C55.7363 57.6528 56.0899 57.9598 56.3929 58.2667Z" fill="black"/>
</svg>
