<svg id="Layer_1" data-name="Layer 1" xmlns="http://www.w3.org/2000/svg" width="199.26" height="265.14" viewBox="0 0 199.26 265.14">
  <defs>
    <style>
      .cls-1 {
        fill: none;
        stroke: #f4f4f4;
        stroke-linecap: round;
        stroke-miterlimit: 10;
        stroke-width: 7px;
        stroke-dasharray:1380;
        stroke-dashoffset:1380;
        animation: drawing 1.5s linear forwards .3s;
      }

      @keyframes drawing{
        from{
          stroke-dashoffset:1380;
        }
        to{
          stroke-dashoffset:0;
        }
      }


    </style>
  </defs>
  <path class="cls-1" d="M51.37,236.64c1-1-45-82-47-94s-1-30,8-35a17.58,17.58,0,0,1,23,5c5,7,6,31,2,33s-12,2-16-11,15-49,44-40c23.52,7.3,27.3,25.78,27.89,32.5a14.08,14.08,0,0,1-.55,5.44c-1.38,4.38-5.4,11-16.34.06-15-15-41-78-42-99s7-28,11-29,17-4,22,7,24,80,31,90,10,22,17,23,16,0,21-18,11-39,14-47c2.22-5.94,9.23-31.88,20.11-45a15,15,0,0,1,9.14-5.31c7.3-1.15,14.13,1,15.75,12.33,2,14-4,40-11,55s-27,68-28,72-15,46-10,62,18.16-4.5,18.16-4.5,19.47-32.92-3.16-46.5l-117,1s-4,23,7,29,15,8,26,8,40-1,40-1-4,46,12,65"/>
</svg>
