<svg width="124" height="36" viewBox="0 0 124 36" fill="none" xmlns="http://www.w3.org/2000/svg">
<path d="M22.7771 32.7546C22.7771 32.6018 22.7261 32.398 22.5732 32.2451C22.5223 32.1941 22.4204 32.1432 22.3185 32.1432C22.2166 32.1432 22.1656 32.0413 22.2166 31.8884C21.9108 31.8375 21.707 31.7865 21.5032 31.7355C21.3503 31.6336 21.2484 31.4808 21.1975 31.3279C21.0955 31.175 21.0446 31.0222 20.8917 30.8693C20.7898 30.7164 20.6879 30.5636 20.535 30.3597C20.4331 30.2069 20.2803 30.054 20.1274 29.8502C19.9745 29.7483 19.8217 29.5445 19.6688 29.2387C19.5159 29.1368 19.3631 28.9839 19.3121 28.882C19.2611 28.8311 19.2102 28.7292 19.1592 28.6273C19.1083 28.5253 19.0064 28.4744 18.9045 28.4744C18.8535 28.3725 18.8025 28.2706 18.7516 28.1687C18.7006 28.0667 18.5987 27.8629 18.3949 27.6591C18.293 27.6082 18.242 27.5572 18.1911 27.5062C18.1401 27.4553 18.0382 27.4043 17.9873 27.4043C17.8344 27.0986 17.6815 26.8438 17.4777 26.691C17.2739 26.5381 17.172 26.2833 17.0701 25.9776C16.9172 25.9776 16.8662 25.9266 16.8662 25.8247C16.8662 25.7228 16.8153 25.6209 16.7643 25.5699C16.6624 25.468 16.5605 25.3661 16.4586 25.2642C16.3567 25.1623 16.2548 25.0604 16.2038 25.0094C16.1019 24.9075 16.051 24.8056 16 24.8056C15.949 24.7546 15.8471 24.7546 15.7452 24.7037C15.6943 24.5508 15.6433 24.4489 15.5414 24.296C15.4395 24.1941 15.3376 23.9903 15.2357 23.7865C15.1847 23.6846 15.0828 23.5827 15.0318 23.4808C14.9299 23.3789 14.879 23.2769 14.828 23.175C14.7261 23.0222 14.6752 22.9712 14.6752 22.9203C14.6242 22.9203 14.5732 22.8693 14.5223 22.8183C14.3694 22.7674 14.2675 22.7164 14.2166 22.6145C14.1656 22.5636 14.0637 22.5126 13.9618 22.4617C13.8599 22.2069 13.758 21.9521 13.6051 21.7483C13.4522 21.5445 13.2484 21.3406 13.0955 21.1878C13.0446 21.0349 12.9427 20.933 12.8408 20.8311C12.7389 20.7292 12.6369 20.6273 12.586 20.5253C12.4841 20.3215 12.3822 20.1687 12.2803 20.0158C12.1783 19.8629 12.1274 19.761 11.9745 19.6591C11.8726 19.5572 11.8217 19.4553 11.7707 19.3024C11.6178 19.2515 11.5159 19.1496 11.414 19.0476C11.3121 18.9457 11.2102 18.8438 11.1083 18.7419C10.9554 18.589 10.8025 18.3852 10.6497 18.1814C10.4968 17.9776 10.3949 17.7738 10.242 17.6718C10.0892 17.5699 9.93631 17.3661 9.73249 17.1623C9.52866 16.9585 9.42675 16.7547 9.42675 16.6018C9.47771 16.4999 9.52866 16.398 9.63057 16.296C9.73248 16.1941 9.83439 16.0922 9.93631 15.9903C10.242 15.6846 10.4968 15.4298 10.7516 15.175C11.0064 14.9203 11.3121 14.7164 11.6688 14.5636C11.7707 14.3088 11.8726 14.105 12.0764 14.0031C12.1274 13.9521 12.1783 13.9011 12.2293 13.7992C12.2803 13.6973 12.3822 13.6464 12.535 13.6464C12.586 13.5445 12.6369 13.4425 12.6879 13.3406C12.7388 13.2387 12.7898 13.1368 12.8917 13.0349C13.0446 13.0859 13.0955 13.0349 13.1465 12.9839C13.1975 12.933 13.2484 12.882 13.3503 12.933C13.4522 12.7292 13.6051 12.5763 13.707 12.4744C13.8599 12.3725 13.9618 12.2706 14.1146 12.1177C14.2675 12.0158 14.3694 11.8629 14.5223 11.761C14.6752 11.6591 14.7771 11.5062 14.879 11.3024C15.0828 11.2515 15.2357 11.1496 15.2866 10.9457C15.3376 10.7929 15.4904 10.691 15.6943 10.589C15.8471 10.3852 16 10.2324 16.1529 10.0795C16.3057 9.92662 16.4586 9.77376 16.6624 9.67184C16.8153 9.51898 16.9172 9.31516 17.0701 9.16229C17.2229 8.95847 17.3758 8.8056 17.5796 8.65274C17.6306 8.60178 17.6306 8.49987 17.6815 8.39796C17.7325 8.29605 17.7325 8.24509 17.7834 8.14318C17.9873 8.09223 18.0892 8.04127 18.1911 7.93936C18.293 7.83745 18.3439 7.73554 18.4968 7.63363C18.5987 7.53172 18.7006 7.42981 18.8025 7.27694C18.9045 7.17503 19.0064 7.02217 19.1083 6.92025C19.3631 6.81834 19.5669 6.71643 19.7707 6.56356C19.9745 6.4107 20.1274 6.25783 20.3312 6.10496C20.4331 6.00305 20.535 5.9521 20.6369 5.85019C20.7389 5.74828 20.7898 5.69732 20.9427 5.64637C21.0446 5.54446 21.0955 5.44254 21.1975 5.34063C21.2994 5.23872 21.4013 5.18777 21.5032 5.13682C21.6051 4.98395 21.707 4.83108 21.8599 4.67822C22.0127 4.52535 22.0637 4.32153 22.0127 4.11771C21.9618 4.0158 21.9108 3.96484 21.8089 3.86293C21.707 3.76102 21.5541 3.65911 21.3503 3.50624C21.2994 3.50624 21.1974 3.50624 21.0955 3.55719C20.9936 3.60815 20.7898 3.5572 20.4841 3.50624C20.3312 3.45528 20.1274 3.40433 19.9745 3.40433C19.8217 3.40433 19.6178 3.35337 19.5159 3.30242C19.465 3.25146 19.3631 3.25146 19.3121 3.20051C19.2102 3.14955 19.0573 3.14955 18.8535 3.14955C18.3949 3.0986 17.9363 3.04764 17.5287 3.0986C17.121 3.0986 16.7134 3.0986 16.3057 3.0986C16.1019 3.0986 15.8981 3.0986 15.7452 3.04764C15.5924 2.99668 15.4395 2.99668 15.3376 3.04764C15.1847 3.0986 15.0318 3.14955 14.879 3.30242C14.7261 3.40433 14.6242 3.45528 14.4713 3.45528C14.4713 3.60815 14.4204 3.76102 14.3185 3.86293C14.2166 3.96484 14.0637 4.16866 13.8599 4.37248C13.8089 4.52535 13.707 4.62726 13.6561 4.67822C13.5541 4.72917 13.5032 4.83108 13.4522 4.93299C13.4013 4.98395 13.3503 5.0349 13.2994 5.13682C13.2484 5.18777 13.1465 5.34063 13.0446 5.59541C12.9427 5.69732 12.8408 5.79923 12.7389 5.9521C12.6369 6.05401 12.4841 6.20688 12.2803 6.30879C12.1274 6.46165 12.0255 6.61452 11.8726 6.76739C11.7707 6.92025 11.6178 7.12407 11.5159 7.3279C11.3631 7.27694 11.3121 7.27694 11.2611 7.3279C11.2102 7.37885 11.1592 7.42981 11.0064 7.42981C10.9554 7.53172 10.8535 7.63363 10.8025 7.73554C10.7006 7.83745 10.5478 7.99032 10.3439 8.24509C10.293 8.29605 10.242 8.29605 10.1911 8.347C10.1401 8.39796 10.0382 8.44892 9.93631 8.60178C9.63057 8.90751 9.32484 9.16229 9.01911 9.46803C8.71337 9.77376 8.40764 10.1304 8.10191 10.4871C8.05095 10.5381 8.05095 10.5381 8 10.589C7.94904 10.64 7.84713 10.691 7.74522 10.8438C7.69427 10.8948 7.64331 10.9457 7.64331 10.9967C7.64331 11.0476 7.59236 11.2005 7.43949 11.3534C7.38854 11.4043 7.28662 11.4553 7.23567 11.5572C7.18471 11.6591 7.03184 11.812 6.82802 12.0158C6.77707 12.0668 6.72612 12.1177 6.67516 12.1687C6.62421 12.2196 6.52229 12.3215 6.26752 12.4744C6.16561 12.5763 6.11465 12.6782 6.06369 12.7801C6.01274 12.882 5.91082 12.9839 5.80891 12.9839C5.707 13.2897 5.55414 13.4425 5.29936 13.4425C5.2484 13.2387 5.24841 13.0859 5.24841 12.9839C5.29936 12.882 5.29936 12.7292 5.35032 12.4744C5.29936 12.3215 5.24841 12.2196 5.24841 12.1687C5.19745 12.1177 5.19745 12.0158 5.1465 11.9139C5.1465 11.8629 5.1465 11.812 5.1465 11.7101C5.1465 11.6081 5.1465 11.4553 5.09554 11.2515C5.29936 11.0476 5.35032 10.7929 5.24841 10.64C5.1465 10.4362 5.09554 10.2324 5.09554 10.0285C5.1465 9.87567 5.1465 9.77376 5.24841 9.67184C5.29936 9.56993 5.35032 9.41707 5.40128 9.31516C5.45223 9.21325 5.45223 9.11134 5.45223 9.00943C5.45223 8.90752 5.45223 8.8056 5.50319 8.70369C5.55414 8.60178 5.55414 8.49987 5.60509 8.39796C5.65605 8.29605 5.65605 8.19414 5.707 8.09223C5.75796 7.73554 5.75796 7.42981 5.75796 7.12407C5.70701 6.81834 5.70701 6.51261 5.75796 6.25783C5.75796 6.10497 5.75796 5.9521 5.80891 5.79923C5.85987 5.64637 5.85987 5.4935 5.85987 5.34063C5.91083 5.13681 5.85987 4.88204 5.80891 4.67822C5.75796 4.47439 5.75796 4.27057 5.75796 4.01579C5.75796 3.86293 5.80892 3.76102 5.85987 3.60815C5.91083 3.50624 5.91083 3.35337 5.85987 3.25146C5.85987 3.20051 5.75796 3.04764 5.50319 2.69095C5.40127 2.64 5.35032 2.64 5.24841 2.64C5.1465 2.69095 5.04458 2.69095 4.94267 2.64C4.78981 2.64 4.68789 2.64 4.53503 2.58904C4.43312 2.53809 4.2293 2.58904 4.02547 2.64C3.87261 2.69095 3.7707 2.69095 3.71975 2.64C3.61784 2.58904 3.56688 2.58904 3.51592 2.58904C3.36305 2.64 3.26115 2.64 3.10828 2.64C2.95542 2.64 2.80255 2.64 2.59873 2.58904C2.59873 2.64 2.54777 2.64 2.49681 2.64H2.08917C1.78344 2.64 1.47771 2.64 1.17198 2.58904C0.866243 2.53809 0.611463 2.53809 0.356686 2.53809C0.20382 2.69095 0.101914 2.94573 0.0509585 3.20051C3.10931e-06 3.35337 3.10931e-06 3.50624 0.0509585 3.71006C0.0509585 3.91388 0.0509554 4.06675 0 4.16866C0.0509554 4.32153 0.101908 4.42344 0.203819 4.52535C0.254774 4.62726 0.305731 4.72917 0.356686 4.88204C0.356686 5.0349 0.356691 5.13681 0.305736 5.23872C0.25478 5.34064 0.254774 5.4935 0.203819 5.59541C0.203819 5.64637 0.203822 5.69732 0.254777 5.79923C0.305732 5.90114 0.254774 6.05401 0.203819 6.25783C0.203819 6.35974 0.203822 6.4107 0.254777 6.51261C0.305732 6.61452 0.305731 6.66548 0.356686 6.76739C0.407642 6.97121 0.356686 7.22599 0.356686 7.42981C0.305731 7.63363 0.305731 7.83745 0.356686 8.09223C0.356686 8.19414 0.356689 8.24509 0.407645 8.347C0.4586 8.44892 0.4586 8.60178 0.407645 8.85656C0.407645 9.31516 0.407645 9.67185 0.407645 10.0285C0.407645 10.3343 0.356688 10.7929 0.254777 11.4043C0.356688 11.5572 0.305732 11.761 0.254777 12.0158C0.152866 12.2706 0.152866 12.4744 0.254777 12.6273C0.203822 12.8311 0.25478 12.9839 0.305736 13.1368C0.356691 13.2897 0.407645 13.4425 0.407645 13.5445C0.407645 13.7483 0.407642 13.9521 0.356686 14.1559C0.305731 14.3597 0.305731 14.6655 0.356686 15.0222C0.356686 15.1241 0.356691 15.175 0.305736 15.2769C0.25478 15.3789 0.254777 15.4298 0.254777 15.4808C0.254777 15.8375 0.305731 16.1432 0.356686 16.4489C0.407642 16.7037 0.458596 17.0094 0.458596 17.2642C0.458596 17.3661 0.4586 17.4171 0.407645 17.519C0.356689 17.6209 0.356686 17.7228 0.356686 17.7738C0.407642 17.8757 0.40764 17.9776 0.458596 18.0795C0.509551 18.1814 0.509554 18.2833 0.509554 18.3852C0.56051 18.4871 0.56051 18.589 0.509554 18.691C0.509554 18.7929 0.509554 18.8948 0.509554 18.9967C0.509554 19.1496 0.509557 19.2515 0.560513 19.4043C0.611468 19.5062 0.611466 19.6591 0.662422 19.812C0.713377 20.2196 0.713377 20.5763 0.662422 20.933C0.611466 21.2897 0.611463 21.6464 0.611463 22.0031C0.611463 22.4107 0.662417 22.8183 0.713373 23.226C0.764328 23.6336 0.764328 24.0413 0.713373 24.4489C0.764328 24.5508 0.764334 24.6527 0.81529 24.7037C0.866245 24.7546 0.917199 24.8566 0.917199 25.0094C0.917199 25.3661 0.968153 25.7228 1.01911 26.1304C1.07006 26.5381 1.12102 26.8948 1.17198 27.2005C1.22293 27.3534 1.22293 27.4553 1.17198 27.5572C1.12102 27.6591 1.17197 27.761 1.22293 27.9139C1.12102 28.0667 1.12102 28.2196 1.12102 28.3725C1.17197 28.5253 1.17197 28.6782 1.12102 28.882C1.12102 28.9839 1.12102 29.0859 1.12102 29.2387C1.12102 29.3916 1.07007 29.5954 1.07007 29.7483C1.07007 29.9011 1.07007 30.054 1.07007 30.2069C1.07007 30.3088 1.07007 30.4107 1.07007 30.4617C1.01911 30.7674 1.01911 31.0222 1.01911 31.226C1.07006 31.4298 1.07006 31.6336 1.12102 31.8884C1.12102 32.0922 1.07006 32.296 1.01911 32.4999C0.968153 32.7037 0.917199 32.9075 0.917199 33.0604C0.968154 33.2642 1.07006 33.4171 1.12102 33.5699C1.22293 33.7228 1.32484 33.8757 1.37579 34.0285C1.52866 33.9776 1.68153 33.9266 1.8344 33.9266C1.98726 33.9266 2.14013 33.9266 2.19108 33.8757C2.49682 33.8247 2.90446 33.8247 3.3121 33.8757C3.71974 33.9266 4.12739 33.9266 4.43312 33.8757C4.58599 33.8247 4.6879 33.8247 4.73885 33.7738C4.84077 33.7228 4.89172 33.6718 5.04458 33.6209C5.19745 33.7738 5.35032 33.8247 5.60509 33.8247C5.85987 33.8247 6.1656 33.8757 6.57324 33.9776C6.72611 33.9776 6.82802 33.9266 6.87898 33.8757C6.98089 33.7738 7.03185 33.7228 7.18472 33.6718C7.23567 33.4171 7.23567 33.2133 7.13376 33.0604C7.03185 32.9075 7.03185 32.7546 7.13376 32.4999C6.98089 32.347 6.87898 32.1941 6.92994 31.9903C6.92994 31.7865 6.98089 31.6336 6.98089 31.4298V30.8693C6.98089 30.6655 6.92994 30.5126 6.87898 30.3088C6.82802 30.1559 6.77707 29.9521 6.72611 29.6973C6.67516 29.3406 6.67516 29.0859 6.72611 28.8311C6.77707 28.5763 6.77707 28.3215 6.77707 27.9648C6.82803 27.761 6.77707 27.5062 6.77707 27.2515C6.72612 26.9967 6.72611 26.7419 6.72611 26.4871C6.67516 26.3343 6.67516 26.2324 6.72611 26.1304C6.72611 26.0285 6.72611 25.9266 6.72611 25.8247C6.67516 25.6718 6.67516 25.5699 6.67516 25.4171C6.67516 25.2642 6.6242 25.1113 6.6242 24.9585C6.6242 24.7546 6.62421 24.4999 6.67516 24.296C6.72612 24.0922 6.72612 23.8884 6.67516 23.6336C6.62421 23.3789 6.6242 23.175 6.57324 22.9712C6.52229 22.7674 6.47134 22.6145 6.47134 22.4617C6.42038 22.3088 6.42038 22.2069 6.47134 22.105C6.47134 22.0031 6.47134 21.8502 6.47134 21.7483C6.52229 21.6464 6.52229 21.5445 6.47134 21.4425C6.42038 21.3406 6.52229 21.2387 6.6242 21.1878C6.67516 21.2387 6.67516 21.2897 6.77707 21.3406C6.82803 21.3916 6.98089 21.5445 7.18472 21.6973C7.5414 21.9011 7.84713 22.2069 8.10191 22.5636C8.35668 22.9203 8.76433 23.1241 9.22293 23.175C9.27389 23.3279 9.3758 23.4808 9.42675 23.5317C9.52866 23.5827 9.57961 23.6846 9.63057 23.8375C9.68152 23.9903 9.73248 24.1432 9.8344 24.2451C9.93631 24.398 10.0382 24.5508 10.1401 24.7037C10.242 24.8566 10.3439 24.9585 10.4459 25.0604C10.4968 25.1113 10.5987 25.1623 10.6497 25.3152C10.7516 25.4171 10.8025 25.519 10.8535 25.5699C11.0064 25.7738 11.2102 25.9776 11.414 26.1304C11.6178 26.2833 11.8217 26.4362 11.9236 26.691C11.9745 26.7929 12.0255 26.8438 12.0255 26.9457C12.0255 27.0476 12.0764 27.1496 12.1274 27.2515C12.1783 27.3534 12.2803 27.4043 12.3312 27.5062C12.4331 27.6082 12.4841 27.6591 12.535 27.7101C12.586 27.812 12.6369 27.8629 12.6879 27.9648C12.7388 28.0668 12.7898 28.1177 12.8408 28.2196C13.1465 28.4744 13.3503 28.7292 13.4522 29.0859C13.5032 29.1368 13.5541 29.1878 13.6561 29.1878C13.758 29.1878 13.8089 29.2387 13.8599 29.3406C13.8089 29.4425 13.8089 29.5445 13.8089 29.5954C13.8599 29.6464 13.8599 29.6973 13.9108 29.7992C14.0637 29.8502 14.1656 29.9521 14.2166 30.105C14.2675 30.2578 14.4204 30.4107 14.5732 30.6655C14.6752 30.8693 14.7771 31.0731 14.879 31.175C14.9299 31.2769 14.9809 31.3279 15.0318 31.4298C15.0828 31.5317 15.0828 31.6336 15.0318 31.7355C15.3885 31.9903 15.6943 32.2961 15.949 32.6527C16 32.7547 16.051 32.8056 16.051 32.9075C16.1019 32.9585 16.1019 33.0604 16.051 33.1623C16.2038 33.2132 16.2548 33.2642 16.3057 33.4171C16.3567 33.519 16.4076 33.6718 16.5096 33.8247C16.6624 34.0285 16.8153 34.3343 16.8662 34.64C17.0701 34.691 17.2739 34.8948 17.5796 35.3024C17.6306 35.3534 17.6306 35.3534 17.6815 35.4043C17.7325 35.4553 17.8344 35.5572 18.0382 35.7101C18.1401 35.761 18.242 35.7101 18.3439 35.7101C18.4459 35.6591 18.5478 35.6082 18.7516 35.6082C19.0573 35.2005 19.414 34.9457 19.8217 34.7419C20.0255 34.64 20.2803 34.4871 20.4841 34.3852C20.7388 34.2833 20.9427 34.1814 21.0955 34.1304C21.4013 34.0285 21.707 33.9266 22.1146 33.9266C22.4713 33.8757 22.7771 33.7738 23.0828 33.5699C22.6752 33.1623 22.7771 32.9075 22.7771 32.7546Z" fill="#AD3919"/>
<path d="M43.0065 2.69001C42.7008 2.74096 42.3441 2.69001 41.9364 2.63905C41.8345 2.5881 41.7836 2.58809 41.6817 2.53714C41.5798 2.48618 41.4269 2.48618 41.2231 2.53714C40.9173 2.48618 40.5606 2.43523 40.204 2.38427C39.8473 2.33332 39.5415 2.28236 39.2868 2.28236C39.0829 2.23141 38.9301 2.23141 38.7263 2.28236C38.5224 2.33332 38.3696 2.33332 38.2167 2.33332C38.0129 2.28236 37.8091 2.28236 37.6052 2.28236C37.4014 2.28236 37.1976 2.23141 36.9938 2.18045C36.8409 2.18045 36.739 2.18045 36.6371 2.1295C36.5352 2.07854 36.3823 2.07854 36.2804 2.07854C36.2294 2.07854 36.1275 2.07854 36.0766 2.07854C35.9747 2.07854 35.8218 2.07854 35.5161 2.02758C35.2103 2.07854 34.9556 2.07854 34.8027 2.1295C34.5989 2.18045 34.446 2.18045 34.2422 2.1295C33.9365 2.07854 33.6307 2.02759 33.3759 1.97663C33.0702 1.92567 32.8154 1.82376 32.5097 1.77281C31.4906 1.6709 30.3696 1.72186 29.2485 1.82377C28.1275 1.92568 26.9556 1.92568 25.7836 1.6709C25.6817 1.72185 25.5798 1.82376 25.5798 1.92568C25.5288 2.02759 25.4778 2.1295 25.4269 2.23141C25.3759 2.38427 25.325 2.53714 25.274 2.63905C25.2231 2.79192 25.1721 2.94478 25.1721 3.04669C25.1721 3.19956 25.2231 3.35243 25.274 3.55625C25.325 3.76007 25.325 4.01485 25.325 4.32058C25.274 4.72822 25.274 5.13587 25.325 5.54351C25.3759 5.9002 25.3759 6.25688 25.325 6.61357C25.325 7.12313 25.274 7.63268 25.1721 8.09128C25.0702 8.60083 25.1212 9.00848 25.274 9.36516C25.1212 9.56899 25.0702 9.77281 25.0702 10.0785C25.0702 10.3333 25.0193 10.741 24.8664 11.1996C24.8154 11.3015 24.8154 11.4034 24.8664 11.5053C24.9173 11.6072 24.9173 11.7091 24.9173 11.862C24.9173 11.9639 24.9173 12.0148 24.8664 12.1168C24.8154 12.2187 24.8154 12.3206 24.8154 12.3715C24.8154 12.5754 24.8154 12.8301 24.8664 13.0849C24.9173 13.3397 24.9173 13.5945 24.9683 13.9002C24.9683 14.0021 24.9683 14.104 24.9173 14.155C24.8664 14.2059 24.9173 14.4097 25.0193 14.7155C24.9173 14.8683 24.8664 14.9703 24.9173 15.0722C24.9683 15.1741 25.0193 15.276 25.0702 15.4289C24.9683 15.4798 24.9683 15.6327 24.9683 15.8875C24.9683 15.9894 24.9683 16.0913 25.0193 16.1932C25.0702 16.2951 25.0702 16.397 25.1212 16.448C25.1212 16.5499 25.1212 16.6008 25.0702 16.7027C25.0193 16.8047 25.0193 16.8556 25.0193 16.9575C25.0193 17.1613 25.0193 17.3142 25.0193 17.4671C25.0193 17.6199 25.0193 17.7728 24.9683 17.9766C24.9683 18.0785 24.9683 18.1805 25.0193 18.2824C25.0702 18.3843 25.0702 18.4862 25.0702 18.5881C25.0193 18.741 25.0193 18.8429 24.9683 18.9448C24.9173 19.0467 24.9173 19.1996 24.9683 19.3015C24.9683 19.6582 25.0193 19.9639 25.0702 20.2696C25.1212 20.5754 25.1212 20.8301 24.9683 21.1359C25.1212 21.2378 25.1721 21.3906 25.1212 21.5945C25.0702 21.7983 25.0702 22.0021 25.1212 22.2059C25.1212 22.3078 25.1212 22.4097 25.0702 22.5626C25.0193 22.6645 25.0193 22.7664 25.0193 22.9193C25.0193 23.0212 25.0193 23.0722 25.0702 23.1231C25.1212 23.1741 25.1212 23.276 25.0702 23.4798C25.1212 23.5817 25.1212 23.6836 25.1721 23.7855C25.2231 23.8875 25.2231 23.9894 25.2231 24.1422C25.1721 24.2951 25.1212 24.448 25.0702 24.6008C25.0193 24.7537 25.0193 24.9066 25.0193 25.0594C25.0193 25.1104 25.0193 25.1613 25.0702 25.2633C25.1212 25.3652 25.1212 25.4671 25.0702 25.6199C24.9683 25.8747 25.0193 26.1295 25.0702 26.3843C25.1721 26.639 25.2231 26.8938 25.274 27.0976C25.325 27.2505 25.325 27.3015 25.274 27.3524C25.2231 27.3524 25.2231 27.4543 25.274 27.6072C25.325 27.7091 25.325 27.7601 25.3759 27.862C25.4269 27.9639 25.4269 28.0148 25.4269 28.1168C25.4269 28.2187 25.4269 28.3206 25.3759 28.4225C25.325 28.5244 25.325 28.7282 25.325 28.983C25.274 29.3397 25.325 29.6454 25.3759 29.9002C25.4269 30.2059 25.4269 30.4607 25.3759 30.7664C25.4269 30.8684 25.4779 31.0212 25.5288 31.1231C25.5798 31.225 25.6307 31.3779 25.6307 31.5308C25.6817 31.6327 25.6817 31.7346 25.6307 31.8365C25.5798 31.9384 25.5798 32.0403 25.6307 32.1932C25.6307 32.2951 25.6307 32.397 25.6817 32.4989C25.7326 32.6008 25.7326 32.7027 25.7836 32.7537C25.8345 32.9066 25.8855 33.0085 25.8855 33.1104C25.9365 33.2123 26.0384 33.3652 26.1912 33.4671C26.395 33.518 26.5479 33.518 26.7517 33.4671C26.9046 33.4161 27.1084 33.3652 27.3122 33.3142C27.3632 33.3142 27.4142 33.3142 27.5161 33.3142C27.618 33.3142 27.7199 33.3142 27.8218 33.3142C27.9237 33.3142 28.0256 33.3142 28.1275 33.3652C28.2294 33.4161 28.3314 33.3652 28.4333 33.3142C28.6371 33.4671 28.8919 33.518 29.1466 33.569C29.4014 33.569 29.6052 33.6199 29.86 33.6709C29.9619 33.6709 30.0638 33.6709 30.1658 33.7218C30.2677 33.7728 30.4205 33.7728 30.5734 33.7218C30.7263 33.7218 30.8282 33.7219 30.9301 33.7728C31.032 33.8238 31.1339 33.8238 31.2868 33.8238C31.4906 33.8747 31.6944 33.8238 31.8982 33.8238C32.1021 33.7728 32.3059 33.7728 32.5606 33.7728C32.7645 33.7219 33.0193 33.7219 33.2231 33.7728C33.4779 33.8238 33.6817 33.8238 33.8855 33.7728C34.1403 33.7728 34.395 33.7728 34.6498 33.7218C34.9046 33.6709 35.1084 33.6709 35.3632 33.7218C35.7199 33.7728 36.0256 33.7728 36.3823 33.7728C36.739 33.7728 36.9938 33.8238 37.2486 33.8747C37.4014 33.8747 37.5033 33.8238 37.5543 33.7728C37.6052 33.7219 37.7071 33.6709 37.86 33.7218C38.0129 33.8238 38.2167 33.8747 38.4715 33.8747C38.7263 33.8747 39.032 33.9257 39.2868 33.9257C39.5415 33.9766 39.8473 33.9766 40.1021 34.0276C40.3568 34.0785 40.6116 34.0785 40.8154 34.0785C40.9683 34.0785 41.1212 34.0785 41.2231 34.0276C41.325 33.9766 41.4779 33.9766 41.6307 33.9766C41.7326 34.0276 41.8345 34.0276 41.9364 34.0785C42.0384 34.1295 42.1403 34.1295 42.2422 34.1295C42.3441 34.1295 42.446 34.0785 42.5479 34.0276C42.6498 33.9766 42.7517 33.9257 42.8027 33.8747C42.9046 33.8238 43.0065 33.7728 43.1084 33.7218C43.2103 33.6709 43.2613 33.6199 43.3122 33.518C43.3632 32.8047 43.4141 32.0913 43.4651 31.4289C43.567 30.7664 43.567 30.104 43.5161 29.4416C43.4651 29.3397 43.4142 29.2378 43.3632 29.2378C43.2613 29.1868 43.2613 29.1359 43.2613 28.983C43.1594 28.932 43.1084 28.8301 43.1084 28.7282C43.1084 28.6263 43.0575 28.5244 42.9555 28.4734C42.7008 28.4225 42.497 28.4225 42.3441 28.4734C42.1912 28.5244 42.0384 28.5754 41.9364 28.4734C41.8855 28.4734 41.8855 28.4734 41.8345 28.5244C41.7836 28.5754 41.6817 28.5244 41.5288 28.4734C41.4778 28.4734 41.4269 28.4734 41.325 28.4734C41.2231 28.4734 41.1212 28.4734 40.9173 28.4734C40.8154 28.4734 40.7135 28.4734 40.6116 28.5244C40.5097 28.5754 40.4078 28.5754 40.3059 28.6263C40.1021 28.6773 39.8982 28.6773 39.6944 28.6773C39.4906 28.6773 39.2868 28.6773 39.032 28.6773C38.8791 28.6773 38.6753 28.6773 38.5224 28.6263C38.3696 28.5754 38.1148 28.5754 37.8091 28.6263C37.6052 28.5754 37.3505 28.6263 37.0957 28.6263C36.8409 28.6773 36.6371 28.7282 36.4333 28.7792C36.2294 28.8301 36.0766 28.8301 35.8728 28.7792C35.7199 28.7282 35.5161 28.6773 35.2613 28.6773C34.9046 28.6773 34.446 28.7282 33.9874 28.7792C33.5288 28.8301 33.0192 28.8811 32.5606 28.8811C32.204 28.8811 31.8473 28.8811 31.5415 28.932C31.2358 28.983 30.981 28.8811 30.7263 28.7792C30.7772 28.6263 30.7772 28.4225 30.7263 28.2696C30.6753 28.1168 30.6753 27.9639 30.6753 27.811C30.6753 27.7091 30.6753 27.6582 30.7263 27.5562C30.7772 27.4543 30.7772 27.4034 30.8282 27.3015C30.8791 27.0976 30.9301 26.8938 30.9301 26.741C30.9301 26.5371 30.9301 26.3843 30.9301 26.2314C30.9301 26.0276 30.9301 25.7728 30.9301 25.518C30.9301 25.2633 30.9301 25.0085 30.8791 24.8047C30.8791 24.6518 30.8282 24.4989 30.7772 24.3461C30.9301 24.1422 30.981 23.9384 30.981 23.6836C30.981 23.4289 31.032 23.0722 31.1339 22.6136C31.1849 22.3588 31.2358 22.104 31.3377 21.8492C31.4396 21.5945 31.4396 21.3397 31.4396 21.1359C31.4906 21.034 31.4396 20.932 31.4396 20.8301C31.3887 20.7282 31.3887 20.6263 31.3887 20.5244C31.3887 20.4225 31.3887 20.3715 31.4396 20.2696C31.4906 20.1677 31.4906 20.1168 31.5415 20.0148C31.5925 19.862 31.5925 19.7091 31.5415 19.5562C31.4906 19.4034 31.5925 19.3015 31.6944 19.1996C31.7963 19.0976 32.0001 19.0977 32.153 19.1486C32.3059 19.1996 32.5097 19.1996 32.6116 19.1996C32.7135 19.1996 32.8154 19.1996 32.9173 19.1486C33.0193 19.0977 33.1212 19.0976 33.2231 19.0976C33.3759 19.0467 33.4778 19.0976 33.5798 19.0976C33.6817 19.1486 33.7326 19.0976 33.7836 18.9957C33.9364 19.1486 34.1403 19.1996 34.395 19.1486C34.6498 19.0977 34.8537 19.0976 35.0065 19.2505C35.1084 19.1486 35.2103 19.0976 35.4142 19.0976C35.618 19.0976 35.7708 19.0976 35.8728 18.9957C36.0256 18.9448 36.0766 18.9957 36.1275 19.0976C36.1785 19.1996 36.2294 19.2505 36.3823 19.1996C36.5861 19.0976 36.79 19.0467 36.9938 18.9957C37.1976 18.9448 37.4524 18.9448 37.7071 19.0467C37.86 18.9957 38.0129 18.9448 38.1657 18.8938C38.3186 18.8429 38.5224 18.7919 38.6243 18.8429C38.8791 18.8938 39.0829 18.8938 39.2358 18.8938C39.3887 18.8938 39.5415 18.9448 39.6434 18.9957C39.7963 18.9448 40.0001 18.8938 40.153 18.8938C40.3059 18.8938 40.5097 18.9448 40.6116 19.0467C40.7135 18.9448 40.8154 18.8938 41.0192 18.8429C41.2231 18.8429 41.4269 18.741 41.7326 18.5881C41.6817 18.7919 41.7326 18.8429 41.8855 18.7919C41.9874 18.741 42.0893 18.741 42.1403 18.7919C42.2422 18.8429 42.3441 18.8938 42.446 18.9448C42.5479 18.9957 42.6498 18.9957 42.7517 18.9957C42.8536 18.9957 42.9046 18.9448 43.0065 18.8938C43.1084 18.8429 43.1594 18.8429 43.3122 18.8429C43.4142 18.741 43.5161 18.5881 43.567 18.4352C43.618 18.2824 43.6689 18.1295 43.7199 17.9766C43.618 17.6709 43.567 17.3652 43.5161 17.0594C43.4651 16.7537 43.4651 16.448 43.5161 16.0913C43.5161 15.9894 43.5161 15.8875 43.567 15.7855C43.618 15.6836 43.618 15.5308 43.567 15.3779C43.618 15.0212 43.618 14.7664 43.618 14.5117C43.618 14.2569 43.567 14.0531 43.4651 13.7983C43.4141 13.6964 43.3632 13.6454 43.3632 13.5435C43.3632 13.4416 43.2613 13.3906 43.1594 13.3906C43.0575 13.3397 42.9556 13.3397 42.8027 13.3906C42.7008 13.4416 42.5479 13.4416 42.3951 13.4926C42.1912 13.4926 41.9364 13.4926 41.6817 13.4416C41.4269 13.3906 41.1212 13.3906 40.6626 13.4416C40.5097 13.4416 40.4078 13.4416 40.3568 13.3906C40.2549 13.3397 40.153 13.3397 40.0511 13.3906C39.8982 13.4416 39.7963 13.4416 39.6434 13.4416C39.4906 13.4416 39.3377 13.4926 39.2358 13.5435C38.981 13.3906 38.7772 13.3397 38.5224 13.3906C38.2677 13.4416 38.0638 13.4926 37.8091 13.4926C37.2486 13.5435 36.7899 13.5945 36.3313 13.5945C35.8727 13.5945 35.4142 13.5945 34.9556 13.5945C34.6498 13.5945 34.3441 13.5945 34.0893 13.5945C33.7836 13.5945 33.5288 13.5945 33.2231 13.6454C33.0702 13.6454 32.8664 13.6454 32.7135 13.6454C32.5607 13.6454 32.3568 13.6454 32.153 13.5945C31.8473 13.5945 31.5925 13.5435 31.3377 13.4926C31.2358 13.3397 31.2358 13.1868 31.2358 13.034C31.2868 12.8811 31.2868 12.7282 31.2868 12.5244C31.2868 12.3206 31.2868 12.0658 31.2358 11.811C31.1849 11.5562 31.1849 11.3524 31.1849 11.1996C31.1849 11.0976 31.1849 11.0467 31.2358 10.9448C31.2868 10.8429 31.2868 10.741 31.2868 10.69C31.2358 10.3843 31.2358 10.0785 31.2358 9.77281C31.2358 9.46708 31.1849 9.16134 31.1849 8.85561C31.1339 8.54988 31.1339 8.24415 31.0829 7.93842C31.032 7.63268 31.0829 7.3779 31.2358 7.07217C31.6944 7.02122 32.153 6.97026 32.5606 6.97026C32.9683 6.97026 33.3759 7.02122 33.7836 7.07217C34.2931 7.12313 34.7517 7.17408 35.1594 7.17408C35.567 7.22504 35.9747 7.22504 36.3313 7.27599H37.0447C37.1976 7.27599 37.2995 7.27599 37.4524 7.22504C37.5543 7.17408 37.7072 7.17408 37.8091 7.22504C37.9619 7.22504 38.0638 7.27599 38.2167 7.32695C38.3696 7.3779 38.4715 7.42886 38.6243 7.47982C38.7262 7.53077 38.7772 7.53077 38.8791 7.47982C38.981 7.42886 39.032 7.42886 39.1339 7.42886C39.3887 7.47982 39.6434 7.47982 39.8982 7.53077C40.153 7.58173 40.3568 7.58173 40.6116 7.47982C40.8664 7.68364 41.0702 7.73459 41.325 7.68364C41.5288 7.63268 41.7836 7.68364 41.9874 7.8365C42.2422 7.73459 42.5479 7.73459 42.9046 7.8365C43.2103 7.93841 43.5161 7.93841 43.7199 7.78555C43.7708 7.73459 43.8218 7.63268 43.8728 7.53077C43.9237 7.42886 43.9747 7.27599 44.0256 7.17408C44.0766 7.07217 44.1275 6.97026 44.1785 6.86835C44.2294 6.76644 44.2804 6.66453 44.2804 6.51166C44.3313 6.25689 44.3314 5.95115 44.3314 5.64542C44.2804 5.33969 44.2804 5.03396 44.3314 4.72822C44.3314 4.57536 44.3823 4.47345 44.4333 4.37154C44.4842 4.26963 44.4842 4.16771 44.3314 4.0658C44.4842 4.01485 44.5861 3.96389 44.6371 3.81102C44.688 3.70911 44.688 3.55625 44.688 3.40338C44.688 3.25052 44.6371 3.1486 44.5861 2.99574C44.5352 2.89383 44.4842 2.74096 44.3823 2.69001C43.6689 2.63905 43.3122 2.63905 43.0065 2.69001Z" fill="#AD3919"/>
<path d="M69.7586 23.1239C69.6567 22.6653 69.5548 22.3086 69.5038 22.0538C69.4529 21.799 69.4019 21.5952 69.4019 21.4423C69.4019 21.2895 69.351 21.1366 69.3 21.0347C69.1981 20.7799 69.0962 20.5251 68.9943 20.2704C68.8924 20.0156 68.7905 19.7608 68.6376 19.608C68.5866 19.557 68.5357 19.506 68.4847 19.4041C68.4338 19.3022 68.4338 19.2513 68.3828 19.2003C68.2809 19.0984 68.179 18.9965 68.128 18.8946C68.0771 18.7927 67.9752 18.6398 67.8223 18.436C67.7204 18.1302 67.5675 17.8755 67.3637 17.6716C67.1599 17.4678 66.9561 17.213 66.8032 16.9583C66.5994 16.8054 66.3955 16.6525 66.1917 16.4997C65.9879 16.3468 65.7331 16.092 65.4274 15.7863C65.2745 15.6844 65.1726 15.5315 65.0198 15.4296C64.8669 15.2767 64.714 15.1748 64.5102 15.1239C64.4083 15.0729 64.3573 15.022 64.2554 15.0729C64.1535 15.1239 64.0516 15.0729 63.9497 15.0729C63.8987 15.022 63.7968 15.022 63.6949 14.971C63.593 14.9201 63.542 14.7672 63.593 14.5124C63.6439 14.4615 63.644 14.4105 63.6949 14.3086C63.7459 14.2067 63.8987 14.0538 64.1025 13.9009C64.2554 13.799 64.3573 13.7481 64.4083 13.6462C64.4592 13.5443 64.5611 13.4423 64.6631 13.3404C64.765 13.2385 64.8159 13.0857 64.9178 12.9837C65.0197 12.8818 65.0707 12.729 65.1217 12.6271C65.1726 12.5251 65.2236 12.4742 65.2745 12.3723C65.3255 12.3213 65.3764 12.2194 65.4274 12.1175C65.5293 11.9646 65.5803 11.8118 65.7331 11.6589C65.886 11.506 65.9369 11.3532 65.9879 11.2003C66.0389 11.0984 66.0898 10.9965 66.0898 10.8946C66.0898 10.7927 66.1408 10.6908 66.1917 10.5379C66.2427 10.436 66.2936 10.385 66.3446 10.2831C66.3955 10.2322 66.4465 10.1302 66.4975 10.0283C66.6503 9.62069 66.6503 9.16209 66.5994 8.7035C66.5484 8.60158 66.5484 8.55063 66.5484 8.44872C66.5484 8.34681 66.5484 8.2449 66.5484 8.19394C66.4975 8.09203 66.4465 7.99012 66.3955 7.88821C66.3446 7.78629 66.2936 7.68439 66.2427 7.53152C66.1917 7.37865 66.1917 7.27674 66.1408 7.12387C66.0898 6.97101 66.0898 6.81814 66.1408 6.66528C65.9879 6.51241 65.886 6.35955 65.835 6.20668C65.7331 6.05381 65.6312 5.90095 65.5293 5.74808C65.4783 5.59521 65.4274 5.4933 65.3764 5.39139C65.3255 5.28948 65.2236 5.13662 65.0707 4.88184C65.0707 4.83088 65.0707 4.83088 65.0707 4.77993C65.0707 4.72897 64.9688 4.62706 64.8159 4.47419C64.765 4.42324 64.714 4.32133 64.714 4.21942C64.714 4.11751 64.6631 4.06655 64.6121 3.96464C64.5611 3.91369 64.5102 3.86273 64.4083 3.76082C64.3573 3.65891 64.2554 3.60795 64.2045 3.557C64.0516 3.40413 63.9497 3.30222 63.8987 3.25126C63.8478 3.20031 63.6949 3.0984 63.542 2.99649C63.1854 2.79267 62.7268 2.53789 62.2682 2.33407C61.8096 2.13025 61.3 2.02833 60.7395 1.97738C60.5357 1.82451 60.3828 1.7226 60.179 1.67165C60.0261 1.62069 59.7204 1.56973 59.3637 1.51878C59.007 1.46782 58.6503 1.41687 58.2427 1.41687C57.835 1.41687 57.4784 1.41687 57.1726 1.46782C57.0198 1.46782 56.9178 1.51878 56.765 1.56974C56.6121 1.62069 56.5102 1.62069 56.4592 1.51878C56.4592 1.46782 56.4083 1.46782 56.3573 1.51878C56.3064 1.56973 56.1535 1.56974 55.9497 1.56974H54.8287C54.6248 1.51878 54.421 1.46782 54.3191 1.46782C54.2682 1.46782 54.2172 1.46782 54.1153 1.51878C54.0134 1.56973 53.9624 1.56974 53.8605 1.56974C53.8096 1.56974 53.7077 1.56973 53.6057 1.51878C53.5038 1.46782 53.4019 1.46782 53.3 1.46782C53.1981 1.46782 53.0962 1.46782 53.0452 1.46782C52.9943 1.46782 52.8924 1.46782 52.7905 1.46782C52.4847 1.51878 52.2809 1.56974 52.179 1.62069C52.0771 1.67165 51.8733 1.77356 51.6694 1.87547C51.5166 1.92642 51.3637 1.92642 51.1089 1.92642C50.8541 1.92642 50.6503 1.92642 50.3955 1.92642C50.1408 1.92642 49.9369 1.97738 49.6822 2.02833C49.4274 2.07929 49.2745 2.1812 49.1726 2.33407C48.9688 2.48694 48.9688 2.69076 49.1217 2.89458C49.2745 3.0984 49.3764 3.25127 49.4274 3.35318C49.3764 3.557 49.3764 3.70986 49.4784 3.81177C49.5803 3.91368 49.6312 4.0156 49.6822 4.11751C49.5803 4.21942 49.5803 4.32133 49.5803 4.52515C49.6312 4.72897 49.6312 4.88184 49.5803 5.0347C49.5803 5.18757 49.6312 5.28948 49.6822 5.34044C49.7331 5.39139 49.7841 5.4933 49.835 5.64617C49.6822 5.79904 49.6822 6.00286 49.7331 6.25763C49.7841 6.51241 49.7841 6.81814 49.7331 7.17483C49.7841 7.27674 49.7841 7.37865 49.835 7.48056C49.886 7.58248 49.886 7.68439 49.9369 7.7863C49.9879 7.88821 49.9879 7.99012 49.9369 8.14298C49.9369 8.24489 49.937 8.3468 50.0389 8.39776C49.886 8.70349 49.835 9.00923 49.886 9.264C49.9369 9.51878 49.937 9.77356 49.9879 9.97738C49.9879 10.0283 49.9879 10.0793 49.9879 10.1812C49.9879 10.2831 49.9879 10.3341 49.9879 10.436C49.9879 10.5379 49.9879 10.5888 50.0389 10.6908C50.0898 10.7927 50.0898 10.9455 50.0389 11.2513C49.9879 11.7099 49.9369 12.1685 49.9369 12.5761C49.9369 12.9837 49.937 13.3914 49.9879 13.6971C49.9879 13.85 49.9879 13.9519 49.9879 14.1048C49.9879 14.2576 49.9879 14.3086 49.9369 14.3595C49.9369 14.5124 49.937 14.6653 49.9879 14.7672C50.0389 14.9201 49.9879 15.022 49.835 15.1239C49.9879 15.5315 50.0389 15.9901 49.9879 16.4487C49.937 16.9073 49.9369 17.315 49.9369 17.7736C49.9369 17.8755 49.937 17.9774 49.9879 18.1302C50.0389 18.2322 50.0389 18.3341 50.0389 18.4869C50.0389 18.5888 50.0389 18.6908 49.9879 18.8436C49.937 18.9455 49.9369 19.0474 49.9369 19.2003V20.2704C49.886 20.3723 49.886 20.4232 49.9369 20.5251C49.9879 20.6271 49.9369 20.7799 49.886 21.0347C49.886 21.1366 49.886 21.1876 49.9369 21.2895C49.9879 21.3914 49.9879 21.4423 49.9879 21.4933C49.937 21.5952 49.9369 21.6971 49.886 21.799C49.835 21.9009 49.835 22.0029 49.835 22.1048V22.6653C49.835 22.7672 49.835 22.8691 49.835 22.9201C49.835 22.971 49.886 23.0729 49.9369 23.1748C49.835 23.2258 49.835 23.2767 49.835 23.3787C49.835 23.4806 49.835 23.5825 49.7841 23.6844C49.7841 23.7863 49.7841 23.9392 49.7841 24.0411C49.7841 24.143 49.7331 24.2958 49.7331 24.4487C49.7331 24.6016 49.7331 24.8054 49.7841 24.9583C49.835 25.1111 49.835 25.264 49.7841 25.4169C49.7841 25.5697 49.7841 25.7226 49.7331 25.8245C49.6822 25.9774 49.6822 26.0793 49.6822 26.2322C49.6822 26.3341 49.6822 26.436 49.7331 26.5379C49.7841 26.6398 49.7841 26.7417 49.835 26.7927C49.7331 26.9965 49.6822 27.2003 49.6822 27.4041C49.6822 27.608 49.6822 27.7099 49.6822 27.8627C49.6312 28.0665 49.5803 28.2704 49.5803 28.4742C49.5803 28.678 49.5803 28.8818 49.6312 29.0857C49.6822 29.2385 49.6822 29.3404 49.7331 29.4423C49.7841 29.5443 49.7841 29.6971 49.7841 29.799C49.7841 29.9519 49.7841 30.0538 49.7841 30.2067C49.7841 30.3086 49.7841 30.4615 49.7841 30.6143C49.835 30.7672 49.835 30.92 49.9369 31.0729C49.9879 31.2258 50.0389 31.3787 50.0389 31.5315C50.0389 31.7353 49.9879 31.9392 49.9369 32.092C49.835 32.2958 49.835 32.4997 49.835 32.7035C50.0389 33.0602 50.1917 33.315 50.3446 33.4678C50.6503 33.5188 50.9051 33.5188 51.058 33.4169C51.3637 33.6207 51.6185 33.6716 51.8732 33.5188C52.128 33.4169 52.3319 33.315 52.5357 33.213C52.5866 33.1621 52.6885 33.1621 52.7905 33.1621C52.8924 33.1621 53.0452 33.0602 53.249 32.9073C53.4529 32.9583 53.6567 32.9583 53.8096 32.8054C53.9624 32.7035 54.1153 32.6016 54.3191 32.6016C54.5229 32.5506 54.6758 32.6016 54.8796 32.6525C55.0325 32.7035 55.2363 32.7035 55.3892 32.5506C55.593 32.7544 55.7968 32.8054 56.0006 32.7544C56.2554 32.7035 56.4592 32.6525 56.6121 32.6525C56.8159 32.6016 56.9688 32.6016 57.1726 32.6525C57.3255 32.7035 57.5293 32.7035 57.6822 32.7035C57.886 32.6525 58.1408 32.6525 58.3955 32.6016C58.6503 32.5506 58.8541 32.5506 59.058 32.5506C59.2108 32.5506 59.3127 32.5506 59.4656 32.5506C59.6185 32.5506 59.8223 32.5506 60.0261 32.6016C60.0771 32.5506 60.179 32.5506 60.2299 32.4997C60.3319 32.4487 60.3828 32.4487 60.4338 32.4487C60.4847 32.3978 60.5357 32.3978 60.6376 32.3978C60.6885 32.3978 60.7905 32.3468 60.9433 32.2959C61.1471 32.2449 61.351 32.1939 61.5548 32.1939C61.7586 32.1939 62.0643 32.143 62.3701 32.0411C62.472 31.9901 62.5739 31.9392 62.6758 31.9392C62.7777 31.9392 62.8796 31.8882 63.0834 31.8372C63.1853 31.7863 63.2363 31.7863 63.2873 31.7353C63.3382 31.6844 63.542 31.6334 63.7968 31.5315C63.8987 31.4806 63.9497 31.4806 64.0516 31.5315C64.1535 31.5825 64.2045 31.5825 64.3573 31.5315C64.5102 31.3787 64.6631 31.2767 64.8669 31.2258C65.0707 31.1748 65.2745 31.0729 65.4783 30.92C65.5293 30.8691 65.6312 30.8181 65.6822 30.8181C65.7331 30.8181 65.835 30.8181 65.886 30.7672C65.9369 30.7162 66.0389 30.6653 66.0898 30.5634C66.1917 30.5124 66.3446 30.4105 66.5484 30.2576C66.6503 30.2067 66.7522 30.1557 66.8541 30.1048C66.9561 30.0538 67.058 30.0029 67.1089 29.9519C67.2618 29.85 67.3637 29.7481 67.4146 29.5952C67.5166 29.4933 67.6185 29.3914 67.7204 29.2385C67.8732 29.0857 68.0771 28.9837 68.3828 28.8818C68.3319 28.729 68.3828 28.6271 68.4847 28.5761C68.5866 28.5251 68.6376 28.4742 68.6885 28.3723C68.7395 28.2704 68.7905 28.1175 68.8414 27.9646C68.8924 27.8118 68.9433 27.6589 68.9943 27.506C69.0452 27.3532 69.0962 27.2003 69.1981 27.0984C69.249 26.9455 69.351 26.8436 69.4019 26.6908C69.4529 26.6398 69.4529 26.5379 69.4019 26.436C69.4019 26.3341 69.4019 26.2322 69.4019 26.1302C69.4529 26.0283 69.5038 25.8755 69.5548 25.6207C69.6057 25.4169 69.6567 25.1621 69.7076 24.9583C69.7586 24.7544 69.7586 24.5506 69.7586 24.3978C69.9115 23.9901 69.8605 23.5315 69.7586 23.1239ZM61.0452 10.2831C60.9943 10.4869 60.9943 10.6398 61.0452 10.8436C60.8924 10.9455 60.8414 11.0474 60.8414 11.1494C60.8414 11.2513 60.8414 11.4041 60.7904 11.4551C60.7395 11.506 60.7395 11.557 60.6376 11.608C60.5866 11.6589 60.4847 11.7608 60.3828 11.9137C60.3319 12.0156 60.2809 12.0666 60.179 12.1685C60.0771 12.2704 60.0261 12.3213 59.9752 12.4232C59.8223 12.4742 59.6694 12.5252 59.5166 12.5761C59.3637 12.6271 59.2618 12.729 59.2108 12.8818C58.7013 12.8818 58.2936 12.9837 57.9879 13.2385C57.7841 13.1876 57.5803 13.1876 57.3764 13.2895C57.2236 13.3914 57.0198 13.4423 56.8669 13.4933C56.6631 13.5443 56.4592 13.5443 56.2554 13.5443C56.0516 13.4933 55.8478 13.5443 55.644 13.5952C55.4911 13.6462 55.3892 13.6462 55.2363 13.6971C55.0834 13.7481 54.9306 13.799 54.8287 13.799C54.7268 13.4933 54.6248 13.1366 54.5229 12.7799C54.421 12.4232 54.421 12.0156 54.5739 11.6589C54.5229 11.506 54.472 11.4041 54.421 11.2513C54.3701 11.1494 54.3701 10.8946 54.421 10.5888C54.421 10.4869 54.421 10.385 54.3701 10.1812C54.3191 9.97738 54.3191 9.82451 54.3701 9.62069C54.3701 9.46782 54.3701 9.36592 54.421 9.21305C54.472 9.06018 54.472 8.95827 54.472 8.8054C54.472 8.65254 54.472 8.49967 54.421 8.39776C54.3701 8.24489 54.3701 8.14298 54.3701 7.99012C54.3701 7.88821 54.3701 7.7863 54.3701 7.68439C54.3701 7.58248 54.3701 7.48056 54.3701 7.37865C54.3701 7.17483 54.3701 6.92005 54.3191 6.76719C54.2682 6.56337 54.2682 6.35955 54.3191 6.15572C54.5229 6.10477 54.7777 6.05381 54.9815 6.05381C55.1854 6.05381 55.4911 6.00286 55.8478 5.84999C55.8987 5.84999 56.0006 5.84999 56.0516 5.84999C56.1535 5.84999 56.3064 5.84999 56.6121 5.79903C56.8159 5.74808 57.0707 5.74808 57.2745 5.79903C57.4783 5.84999 57.7331 5.84999 57.937 5.90095C58.1408 5.9519 58.3955 5.9519 58.5994 5.9519C58.8541 5.9519 59.1089 6.00286 59.4147 6.05381C59.4656 6.10477 59.5166 6.10477 59.5166 6.15572C59.5675 6.20668 59.6694 6.25763 59.8223 6.30859C59.9752 6.46145 60.128 6.61432 60.2299 6.81814C60.3319 7.02196 60.4847 7.12388 60.7395 7.27674C60.7905 7.37865 60.7904 7.42961 60.7904 7.48056C60.7904 7.53152 60.8414 7.63343 60.9943 7.7863C61.0452 7.83725 61.0452 7.88821 60.9943 7.93916C60.9943 7.99012 60.9943 8.09203 61.0962 8.2449C61.1471 8.49967 61.1471 8.75445 61.1471 9.06018C61.0962 9.36591 61.1471 9.56974 61.2491 9.7226C61.1471 9.92642 61.0962 10.0793 61.0452 10.2831ZM64.0006 23.5825C64.0516 23.9392 64.0006 24.2959 63.9497 24.6525C63.8987 24.7544 63.8478 24.8054 63.7968 24.9073C63.7459 25.0092 63.7459 25.1111 63.6949 25.264C63.542 25.315 63.4911 25.3659 63.4911 25.4678C63.4911 25.5697 63.4401 25.6716 63.3892 25.7736C63.1853 25.8755 62.9815 26.0283 62.8287 26.2322C62.6758 26.436 62.5229 26.5888 62.421 26.6908C62.2682 26.7417 62.1662 26.7417 62.0643 26.7417C61.9624 26.7417 61.8605 26.7927 61.7586 26.7927C61.3 27.0474 60.8414 27.2513 60.3318 27.3532C59.8732 27.4551 59.3637 27.608 58.8032 27.7099C58.7013 27.7608 58.6503 27.7608 58.5484 27.7608C58.4465 27.7608 58.3955 27.7608 58.2936 27.8118C58.2427 27.8118 58.1917 27.8118 58.0898 27.8627C58.0389 27.9137 57.9369 27.9137 57.7841 27.9646C57.5803 28.0156 57.3255 28.0156 57.1217 28.0666C56.9178 28.1175 56.6631 28.1175 56.4592 28.1685C56.1535 28.2194 55.8478 28.3213 55.542 28.4232C55.2363 28.5251 54.9815 28.5761 54.6758 28.5761C54.6248 28.4742 54.6249 28.3723 54.6249 28.3213C54.6249 28.2704 54.6249 28.1685 54.6249 28.0666C54.6249 27.9646 54.6248 27.9137 54.6758 27.8118C54.7268 27.7099 54.7268 27.6589 54.7268 27.6079C54.7268 27.4551 54.6758 27.3022 54.6249 27.1494C54.5739 26.9965 54.5739 26.7927 54.5739 26.5888C54.6248 26.436 54.5739 26.2322 54.5739 25.8755C54.5229 25.5697 54.5229 25.1621 54.5739 24.7544C54.472 23.9901 54.5229 23.1748 54.6249 22.3086C54.7268 21.4423 54.7777 20.5761 54.7268 19.7099C54.7777 19.6079 54.8796 19.506 54.9306 19.4551C55.0325 19.4041 55.0835 19.3532 55.1344 19.2003C55.7459 19.2513 56.2554 19.2003 56.6631 19.0474C57.0707 18.9455 57.5293 18.8946 58.0898 18.8946C58.4975 18.9455 58.9051 18.9965 59.3637 19.0474C59.8223 19.0984 60.2809 19.2003 60.7395 19.3022C60.8924 19.4551 61.0962 19.557 61.2491 19.6589C61.4529 19.7608 61.6567 19.8627 61.8605 20.0156C62.0134 20.1175 62.1153 20.1685 62.1662 20.2194C62.2682 20.2704 62.3701 20.3723 62.472 20.5251C62.5229 20.5761 62.6248 20.6271 62.7268 20.729C62.8287 20.8309 62.9306 20.9837 63.0325 21.1876C63.0834 21.2895 63.1344 21.3404 63.2363 21.3404C63.3382 21.3404 63.3892 21.4423 63.4401 21.5443C63.4911 21.7481 63.542 22.0029 63.6439 22.1557C63.6949 22.3595 63.7968 22.5124 63.8987 22.6653C63.9497 22.971 63.9497 23.2767 64.0006 23.5825Z" fill="#AD3919"/>
<path d="M100.178 30.9204C100.025 30.5637 99.821 30.207 99.7191 29.8503C99.5153 29.2389 99.3114 28.6274 99.1586 28.0669C99.0567 27.8631 98.9547 27.6592 98.9038 27.5064C98.8528 27.4045 98.8019 27.3535 98.8528 27.2516C98.8528 27.1497 98.8528 27.0478 98.8019 26.8949C98.7509 26.742 98.7 26.5892 98.5981 26.4873C98.5471 26.3344 98.4452 26.2325 98.3942 26.0796C98.3433 25.8758 98.2414 25.621 98.0885 25.4172C97.9356 25.2134 97.8337 24.9586 97.7828 24.7548C97.7318 24.6019 97.6809 24.449 97.6299 24.2962C97.5789 24.1433 97.528 24.0414 97.477 23.9395C97.4261 23.7866 97.3751 23.6847 97.2732 23.5318C97.2223 23.379 97.1203 23.2771 96.9675 23.1752C96.9165 22.9713 96.8656 22.7675 96.7637 22.5637C96.6617 22.3599 96.6108 22.207 96.5598 22.0032C96.5089 21.9013 96.4579 21.7994 96.4579 21.6975C96.4579 21.5955 96.407 21.4427 96.356 21.3408C96.2541 21.086 96.1012 20.7803 95.8974 20.5255C95.8465 20.4236 95.7955 20.3217 95.7445 20.2197C95.6936 20.1178 95.5917 19.965 95.4388 19.7102C95.3879 19.5573 95.3369 19.4045 95.235 19.2006C95.1331 18.9968 95.0312 18.793 94.8783 18.5892C94.8783 18.3853 94.8274 18.2325 94.7764 18.0796C94.6745 17.9268 94.6235 17.8248 94.5726 17.672C94.5216 17.4681 94.4707 17.2134 94.3688 16.9586C94.3178 16.7038 94.2159 16.449 94.114 16.2452C94.063 16.1943 94.063 16.1433 94.0121 16.0924C93.9611 16.0414 93.9102 15.9395 93.8592 15.7866C93.7573 15.6847 93.7063 15.5828 93.6554 15.5318C93.6044 15.4809 93.5025 15.379 93.4516 15.2771C93.3496 14.9713 93.2477 14.6656 93.0949 14.3089C92.993 14.0032 92.8401 13.6975 92.6872 13.4427C92.6363 13.2389 92.6363 12.9841 92.5344 12.7293C92.4834 12.4745 92.3815 12.2707 92.3305 12.1178C92.2796 11.914 92.2286 11.7102 92.1267 11.6083C92.0758 11.5064 91.9738 11.3535 91.9229 11.1497C91.821 11.0478 91.77 10.9459 91.7191 10.8439C91.6681 10.742 91.6172 10.6401 91.5662 10.5382C91.5153 10.4363 91.4643 10.3854 91.4133 10.2834C91.3624 10.1815 91.3114 10.1306 91.2605 10.0796C91.2095 9.97771 91.1586 9.8758 91.1076 9.77389C91.0566 9.67198 91.0057 9.62102 90.9547 9.51911C90.8019 9.21338 90.7 8.90764 90.5471 8.60191C90.4452 8.29618 90.2923 8.0414 90.1904 7.78662C90.1395 7.68471 90.0885 7.63376 90.0375 7.53185C89.9866 7.42994 89.9356 7.32803 89.8847 7.17516C89.8337 7.07325 89.7828 6.97134 89.7828 6.81847C89.7828 6.71656 89.7318 6.5637 89.6809 6.46179C89.5789 6.20701 89.528 5.90127 89.4261 5.59554C89.3242 5.28981 89.2223 5.03503 89.1713 4.83121C89.0694 4.62739 89.0184 4.47452 88.9675 4.2707C88.9165 4.11783 88.8146 3.96497 88.7637 3.8121C88.7127 3.65924 88.6617 3.55733 88.6108 3.40446C88.5598 3.25159 88.5089 3.14968 88.4579 3.04777C88.407 2.84395 88.3051 2.64013 88.2032 2.43631C88.1012 2.23249 87.9484 2.07962 87.8465 1.97771C87.7955 1.8758 87.7445 1.72293 87.6426 1.62102C87.5917 1.51911 87.4898 1.36624 87.3369 1.16242C87.235 1.06051 87.1331 0.907646 87.0821 0.805736C87.0312 0.652869 86.8783 0.550955 86.5726 0.5C86.4707 0.5 86.4197 0.5 86.3688 0.5C86.3178 0.5 86.1649 0.500003 86.0121 0.550959C85.9101 0.856691 85.8083 1.16242 85.7063 1.4172C85.5535 1.67198 85.3496 1.8758 85.0949 2.02866C85.0439 2.18153 84.993 2.33439 84.891 2.53822C84.8401 2.69108 84.7382 2.84395 84.6872 3.04777C84.5853 3.25159 84.5344 3.50637 84.4325 3.76115C84.3305 4.01592 84.2796 4.2707 84.1777 4.47452C84.0758 4.67835 84.0248 4.93312 83.9738 5.1879C83.9229 5.44268 83.821 5.74841 83.7191 6.10509C83.6681 6.20701 83.6172 6.30892 83.5152 6.41083C83.4133 6.51274 83.3624 6.61465 83.3114 6.76752C83.2605 6.92038 83.2095 7.07325 83.2095 7.22612C83.2095 7.37898 83.2095 7.5828 83.1586 7.73567C82.9547 7.93949 82.8019 8.14331 82.7 8.34713C82.598 8.55096 82.5471 8.80573 82.4452 8.9586C82.3433 9.16242 82.2923 9.4172 82.2414 9.67197C82.1395 9.72293 82.0885 9.82484 82.0375 9.92675C81.9866 10.0287 81.9866 10.1306 81.9356 10.2834C81.8847 10.3854 81.8337 10.4873 81.7318 10.5892C81.6809 10.6911 81.5789 10.793 81.528 10.9459C81.477 11.0987 81.4261 11.3025 81.3751 11.5064C81.3242 11.7102 81.2223 11.914 81.0184 12.1688C80.9675 12.2707 80.9165 12.3217 80.8656 12.4236C80.8146 12.5255 80.7637 12.6274 80.7127 12.6783C80.6617 12.8312 80.6108 12.9331 80.5598 13.035C80.5089 13.1369 80.5089 13.2389 80.5089 13.3917C80.356 13.5446 80.2541 13.7484 80.2031 13.9522C80.1012 14.1561 80.0503 14.3599 79.9484 14.4618C79.8465 14.6656 79.7445 14.8185 79.6426 15.0223C79.5407 15.1752 79.4388 15.328 79.286 15.4299C79.235 15.4809 79.235 15.5318 79.286 15.6338C79.286 15.7357 79.286 15.7866 79.235 15.8885C79.184 15.9395 79.184 15.9904 79.0821 16.0924C79.0312 16.1433 78.9293 16.3471 78.8274 16.6019L78.6235 17.0096C78.5726 17.1115 78.5216 17.2134 78.4197 17.3153C78.3178 17.4172 78.2668 17.5191 78.2159 17.621C78.1649 17.7739 78.114 17.9268 78.0121 18.0796C77.9611 18.2325 77.9611 18.3854 78.0121 18.5382C77.8592 18.5892 77.7063 18.6911 77.6554 18.793C77.5535 18.8949 77.5025 19.0478 77.4516 19.2006C77.3496 19.3535 77.2987 19.5064 77.2477 19.6592C77.1968 19.8121 77.0949 19.965 77.0439 20.1178C76.942 20.2707 76.8911 20.3726 76.7891 20.4745C76.6872 20.5764 76.6363 20.7293 76.5853 20.8312C76.4834 20.9841 76.4324 21.1369 76.3815 21.2898C76.3305 21.4427 76.2286 21.5446 76.0758 21.6465C76.0758 21.8503 76.0248 22.0032 75.8719 22.1051C75.77 22.207 75.6681 22.3599 75.6172 22.4618C75.4643 22.6656 75.3624 22.9204 75.2605 23.2261C75.1586 23.5318 75.0567 23.7357 74.9038 23.9904C74.8528 24.0414 74.8528 24.0924 74.8528 24.1433C74.8528 24.1943 74.8019 24.2962 74.8019 24.449C74.7509 24.5 74.7509 24.551 74.7 24.6019C74.649 24.6529 74.649 24.7548 74.5981 24.9586C74.5471 25.1115 74.4961 25.2643 74.3942 25.4172C74.2923 25.5191 74.2414 25.672 74.0885 25.8248C73.9866 26.0287 73.8847 26.2325 73.7828 26.4363C73.6809 26.6401 73.579 26.793 73.477 26.9459C73.4261 27.0478 73.3751 27.1497 73.2732 27.2516C73.1713 27.3535 73.1203 27.5573 73.0184 27.8631L72.6618 28.3726C72.5598 28.5255 72.5089 28.6274 72.4579 28.7293C72.407 28.8312 72.407 28.9331 72.356 29.086C72.3051 29.1369 72.3051 29.2389 72.2541 29.3408C72.2031 29.4427 72.1522 29.6465 72.0503 29.9013C71.9993 29.9522 71.9484 30.0032 71.8974 30.1051C71.8465 30.207 71.7446 30.3599 71.6426 30.6146C71.5407 30.8185 71.4388 31.0732 71.3369 31.2771C71.235 31.4809 71.1331 31.7357 71.0821 31.9395C71.1331 32.0414 71.0821 32.1433 70.9802 32.1943C70.8783 32.2452 70.8274 32.3471 70.7764 32.449C70.7254 32.6019 70.6745 32.7038 70.6745 32.8057C70.6235 32.9076 70.6235 33.0096 70.6235 33.1624C70.8783 33.2643 71.184 33.3662 71.4898 33.5191C71.7955 33.672 72.1012 33.7739 72.407 33.8248C72.5598 33.8758 72.6617 33.8758 72.7637 33.8248C72.8656 33.8248 72.9675 33.8248 73.0694 33.8248C73.1713 33.8758 73.2223 33.8758 73.3242 33.9268C73.4261 33.9777 73.528 33.9777 73.7318 33.9268C73.8847 33.9268 74.0375 33.9268 74.2923 33.9268C74.5471 33.9268 74.7 33.9777 74.7509 33.9777C74.9038 34.0796 75.0567 34.1306 75.2095 34.1815C75.3624 34.2325 75.6172 34.3344 75.821 34.4873C75.9738 34.5892 76.1267 34.5892 76.3305 34.4873C76.5344 34.3853 76.6363 34.3344 76.7382 34.2325C76.7382 33.9267 76.7891 33.672 76.8401 33.4172C76.891 33.1624 76.993 32.9586 77.0439 32.7548C77.1458 32.551 77.2477 32.3471 77.2987 32.0924C77.4006 31.8885 77.4516 31.6338 77.4516 31.379C77.6554 31.1752 77.8082 30.9204 77.9611 30.6656C78.063 30.3599 78.2159 30.156 78.4707 29.9522C78.4707 29.7484 78.5216 29.5446 78.6235 29.3917C78.7254 29.2388 78.7764 29.086 78.8274 28.8822C78.8783 28.7293 78.8783 28.6274 78.8274 28.5255C78.8274 28.4236 78.8273 28.2707 78.8783 28.1688C78.8783 28.1178 78.9293 28.0669 78.9802 27.965C79.0312 27.914 79.0821 27.7611 79.0821 27.5064C79.1331 27.5064 79.1331 27.4554 79.184 27.4045C79.235 27.3535 79.235 27.3025 79.286 27.2516C79.3369 27.2006 79.3369 27.0987 79.3879 26.9459C79.4898 26.793 79.5407 26.6401 79.5917 26.5382C79.6426 26.3854 79.6936 26.2834 79.7445 26.1306C79.8465 25.9268 79.9484 25.7229 80.0503 25.5701C80.1522 25.3662 80.2541 25.1624 80.3051 24.9586C80.356 24.7548 80.407 24.5 80.407 24.2962C80.407 24.0924 80.5089 23.8885 80.7127 23.6847C81.0184 23.7357 81.2732 23.6847 81.477 23.6338C81.6809 23.5828 81.9356 23.5828 82.2414 23.6338C82.2923 23.5318 82.3942 23.4809 82.4961 23.4809C82.5981 23.4299 82.7 23.4299 82.8019 23.379C83.0057 23.4299 83.2095 23.4299 83.4133 23.4299C83.6172 23.379 83.821 23.379 84.0248 23.4299C84.1267 23.4299 84.1777 23.4299 84.3305 23.4809C84.4324 23.5318 84.6363 23.5318 84.942 23.5828C85.0439 23.6338 85.1968 23.6338 85.4006 23.6338C85.6044 23.5828 85.7573 23.5828 85.9611 23.5318C86.114 23.5318 86.3178 23.5318 86.5216 23.5318C86.7254 23.5318 86.8783 23.5318 86.9293 23.5828C87.0821 23.5828 87.184 23.5828 87.235 23.5318C87.286 23.4809 87.3879 23.4809 87.4898 23.4809C87.6426 23.5318 87.7955 23.5318 87.9484 23.4809C88.1012 23.4299 88.2541 23.379 88.4579 23.379C88.5598 23.328 88.6108 23.328 88.7127 23.379C88.8146 23.379 88.9165 23.379 88.9675 23.379C89.1203 23.328 89.2732 23.328 89.4261 23.2771C89.5789 23.2261 89.7318 23.2261 89.9356 23.2771C90.0375 23.4299 90.0885 23.5828 90.1395 23.7357C90.1395 23.9395 90.1904 24.0924 90.2414 24.2452C90.2923 24.3471 90.2923 24.3981 90.3433 24.5C90.3942 24.6019 90.4452 24.7038 90.4961 24.8057C90.5471 24.9076 90.598 25.0605 90.598 25.1624C90.598 25.2643 90.649 25.4172 90.7 25.5191C90.7509 25.621 90.8019 25.7229 90.8528 25.7739C90.9038 25.8248 90.9547 25.9268 91.0057 26.0287C91.0567 26.1815 91.1076 26.3344 91.1586 26.4873C91.2095 26.6401 91.2605 26.8439 91.3624 27.0987C91.4133 27.2006 91.4133 27.3025 91.4133 27.4554C91.4133 27.5573 91.4643 27.7611 91.6172 28.0669C91.6681 28.1178 91.6681 28.1688 91.6172 28.2707C91.6172 28.3217 91.6172 28.4236 91.7191 28.5764C91.821 28.8822 91.8719 29.086 91.8719 29.2898C91.9229 29.4936 91.9738 29.6465 92.1267 29.7994C92.0758 29.9522 92.0758 30.1051 92.1777 30.258C92.2796 30.4108 92.3305 30.6656 92.3815 30.9204C92.4324 31.0732 92.4834 31.2261 92.5853 31.4809C92.6363 31.6338 92.6363 31.7357 92.6363 31.8376C92.6363 31.9395 92.6872 32.0414 92.7382 32.0924C92.6872 32.1433 92.6872 32.2452 92.6872 32.3981C92.6872 32.551 92.6872 32.7038 92.6872 32.8057C92.8401 32.9076 92.942 33.0605 92.993 33.2134C93.0439 33.3662 93.1968 33.4682 93.3497 33.5191C93.5535 33.4682 93.7063 33.4172 93.9101 33.3662C94.063 33.3153 94.2668 33.2643 94.3688 33.1624C94.5216 33.1115 94.5726 33.1624 94.6235 33.2134C94.6745 33.2643 94.7254 33.2643 94.8783 33.2643C94.9802 33.1115 95.1331 33.0605 95.235 33.1115C95.3879 33.1624 95.4898 33.1115 95.5917 33.0605C95.7955 33.0096 95.9993 33.0096 96.1522 33.0605C96.3051 33.1115 96.5089 33.1115 96.7127 33.1115C96.8146 33.1115 96.9675 33.1115 97.0694 33.0605C97.2223 33.0096 97.4261 33.0095 97.7318 32.9586C97.8337 33.0095 97.9356 33.0096 98.0375 33.0605C98.1395 33.1115 98.1904 33.1624 98.2923 33.1624C98.3942 33.0096 98.5471 32.9076 98.8019 32.8057C98.8528 32.7548 98.9038 32.7548 99.0057 32.7548C99.1076 32.7548 99.2095 32.6529 99.3114 32.5C99.4133 32.6019 99.5662 32.7038 99.821 32.7548C99.8719 32.6019 99.9739 32.5 100.178 32.449C100.381 32.3981 100.483 32.3471 100.534 32.1433C100.483 31.6847 100.331 31.328 100.178 30.9204ZM88.6108 19.5064C88.2541 19.4554 87.8974 19.4554 87.5917 19.5064C87.184 19.6083 86.7254 19.6592 86.2159 19.7102C85.6554 19.7611 85.1458 19.8121 84.6363 19.8121C84.3305 19.8121 84.0248 19.8121 83.7191 19.8121C83.4133 19.8121 83.1076 19.7611 82.8019 19.6083C82.8528 19.4554 82.9038 19.3025 82.9547 19.0987C83.0057 18.8949 83.1076 18.6911 83.3114 18.3854C83.3624 18.2834 83.3624 18.1815 83.3114 18.1306C83.3114 18.0796 83.3114 17.9777 83.3114 17.8758C83.3624 17.7229 83.4133 17.621 83.5152 17.5191C83.6172 17.4172 83.6681 17.3153 83.7191 17.2134C83.77 17.0605 83.821 16.9586 83.821 16.8057C83.8719 16.7038 83.8719 16.551 83.9229 16.3981C84.0758 16.0414 84.2286 15.6847 84.4325 15.328C84.6363 14.9713 84.8401 14.5637 85.0949 14.1051C85.1458 14.0541 85.1458 14.0032 85.1968 13.9013C85.2477 13.7994 85.2987 13.7484 85.3496 13.6465C85.4006 13.5446 85.4515 13.4427 85.5025 13.2898C85.5535 13.1879 85.6044 13.035 85.6554 12.9331C85.7063 12.7803 85.7573 12.6783 85.8082 12.5255C85.8592 12.4236 85.9102 12.1688 85.9611 11.8631C86.0121 11.8121 86.063 11.7102 86.1649 11.6083C86.2668 11.5064 86.3688 11.3025 86.4707 10.9968C86.5216 10.793 86.6235 10.5892 86.9293 10.4873C87.0821 10.5382 87.184 10.6911 87.235 10.8439C87.286 11.0478 87.3369 11.2006 87.3879 11.4045C87.4388 11.5064 87.4388 11.5573 87.4898 11.6592C87.5407 11.7611 87.5407 11.8121 87.5917 11.914C87.6426 12.0669 87.6936 12.2707 87.6936 12.4236C87.7446 12.5764 87.7445 12.7803 87.7955 13.035C87.8465 13.1879 87.8974 13.3408 87.9484 13.4936C87.9993 13.6465 88.0503 13.8503 88.1012 14.0541C88.1522 14.207 88.1522 14.3599 88.2032 14.5127C88.2541 14.6656 88.356 14.8694 88.5089 15.0732C88.6108 15.2261 88.7127 15.379 88.8146 15.4809C88.8656 15.7866 88.9165 16.0924 88.9675 16.3981C89.0184 16.7038 89.0694 17.0605 89.1203 17.4172C89.1713 17.5191 89.1713 17.5701 89.2732 17.672C89.3242 17.7229 89.4261 17.8248 89.477 17.9267C89.528 18.0287 89.5789 18.1815 89.5789 18.2834C89.5789 18.4363 89.6299 18.5382 89.6299 18.6401C89.6809 18.793 89.6809 18.8949 89.7318 18.9968C89.7828 19.0987 89.7318 19.2006 89.6809 19.3535C89.2732 19.5573 88.9675 19.5573 88.6108 19.5064Z" fill="#AD3919"/>
<path d="M123.924 23.1239C123.822 22.6653 123.72 22.3086 123.669 22.0538C123.618 21.799 123.567 21.5952 123.567 21.4423C123.567 21.2895 123.516 21.1366 123.465 21.0347C123.363 20.7799 123.261 20.5251 123.159 20.2704C123.057 20.0156 122.955 19.7608 122.803 19.608C122.752 19.557 122.701 19.506 122.65 19.4041C122.599 19.3022 122.599 19.2513 122.548 19.2003C122.446 19.0984 122.344 18.9965 122.293 18.8946C122.242 18.7927 122.14 18.6398 121.987 18.436C121.885 18.1302 121.733 17.8755 121.529 17.6716C121.325 17.4678 121.121 17.213 120.968 16.9583C120.764 16.8054 120.561 16.6525 120.357 16.4997C120.153 16.3468 119.898 16.092 119.592 15.7863C119.44 15.6844 119.338 15.5315 119.185 15.4296C119.032 15.2767 118.879 15.1748 118.675 15.1239C118.573 15.0729 118.522 15.022 118.42 15.0729C118.319 15.0729 118.217 15.0729 118.115 15.0729C118.064 15.022 117.962 15.022 117.86 14.971C117.758 14.9201 117.707 14.7672 117.758 14.5124C117.809 14.4615 117.809 14.4105 117.86 14.3086C117.911 14.2067 118.064 14.0538 118.268 13.9009C118.42 13.799 118.522 13.7481 118.573 13.6462C118.675 13.5443 118.726 13.4423 118.828 13.3404C118.93 13.2385 118.981 13.0857 119.083 12.9837C119.185 12.8818 119.236 12.729 119.287 12.6271C119.338 12.5251 119.389 12.4742 119.44 12.3723C119.491 12.3213 119.541 12.2194 119.592 12.1175C119.694 11.9646 119.745 11.8118 119.898 11.6589C120 11.506 120.102 11.3532 120.153 11.2003C120.204 11.0984 120.255 10.9965 120.255 10.8946C120.255 10.7927 120.306 10.6908 120.357 10.5379C120.408 10.436 120.459 10.385 120.51 10.2831C120.561 10.2322 120.612 10.1302 120.662 10.0283C120.815 9.62069 120.815 9.16209 120.764 8.7035C120.713 8.60158 120.713 8.55063 120.713 8.44872C120.713 8.34681 120.713 8.2449 120.713 8.19394C120.662 8.09203 120.612 7.99012 120.561 7.88821C120.51 7.78629 120.459 7.68439 120.408 7.53152C120.357 7.37865 120.357 7.27674 120.306 7.12387C120.255 6.97101 120.255 6.81814 120.306 6.66528C120.153 6.51241 120.051 6.35955 120 6.20668C119.898 6.05381 119.796 5.90095 119.694 5.74808C119.643 5.59521 119.592 5.4933 119.541 5.39139C119.491 5.28948 119.389 5.13662 119.236 4.88184C119.236 4.83088 119.236 4.83088 119.236 4.77993C119.236 4.72897 119.134 4.62706 118.981 4.47419C118.93 4.42324 118.879 4.32133 118.879 4.21942C118.879 4.11751 118.828 4.06655 118.777 3.96464C118.726 3.91369 118.675 3.86273 118.573 3.76082C118.522 3.65891 118.42 3.60795 118.369 3.557C118.217 3.40413 118.115 3.30222 118.064 3.25126C118.013 3.20031 117.86 3.0984 117.707 2.99649C117.299 2.79267 116.892 2.53789 116.433 2.33407C115.975 2.13025 115.465 2.02833 114.905 1.97738C114.701 1.82451 114.548 1.7226 114.344 1.67165C114.191 1.62069 113.885 1.56973 113.529 1.51878C113.172 1.46782 112.815 1.41687 112.408 1.41687C112 1.41687 111.643 1.41687 111.338 1.46782C111.185 1.46782 111.083 1.51878 110.93 1.56974C110.777 1.62069 110.675 1.62069 110.624 1.51878C110.624 1.46782 110.573 1.46782 110.522 1.51878C110.471 1.56973 110.319 1.56974 110.115 1.56974H108.994C108.79 1.51878 108.586 1.46782 108.484 1.46782C108.433 1.46782 108.382 1.46782 108.28 1.51878C108.178 1.56973 108.127 1.56974 108.026 1.56974C107.975 1.56974 107.873 1.56973 107.771 1.51878C107.669 1.46782 107.567 1.46782 107.465 1.46782C107.363 1.46782 107.261 1.46782 107.21 1.46782C107.159 1.46782 107.057 1.46782 106.955 1.46782C106.65 1.51878 106.446 1.56974 106.344 1.62069C106.242 1.67165 106.038 1.77356 105.834 1.87547C105.682 1.92642 105.529 1.92642 105.274 1.92642C105.019 1.92642 104.815 1.92642 104.561 1.92642C104.306 1.92642 104.102 1.97738 103.847 2.02833C103.592 2.07929 103.44 2.1812 103.338 2.33407C103.134 2.48694 103.134 2.69076 103.287 2.89458C103.44 3.0984 103.541 3.25127 103.592 3.35318C103.541 3.557 103.541 3.70986 103.643 3.81177C103.745 3.91368 103.796 4.0156 103.847 4.11751C103.745 4.21942 103.745 4.32133 103.745 4.52515C103.796 4.72897 103.796 4.88184 103.745 5.0347C103.745 5.18757 103.796 5.28948 103.847 5.34044C103.898 5.39139 103.949 5.4933 104 5.64617C103.847 5.79904 103.847 6.00286 103.898 6.25763C103.949 6.51241 103.949 6.81814 103.898 7.17483C103.949 7.27674 103.949 7.37865 104 7.48056C104.051 7.58248 104.051 7.68439 104.102 7.7863C104.153 7.88821 104.153 7.99012 104.102 8.14298C104.102 8.24489 104.102 8.3468 104.204 8.39776C104.051 8.70349 104 9.00923 104.051 9.264C104.102 9.51878 104.102 9.77356 104.153 9.97738C104.153 10.0283 104.153 10.0793 104.153 10.1812C104.153 10.2831 104.153 10.3341 104.153 10.436C104.153 10.5379 104.153 10.5888 104.204 10.6908C104.255 10.7927 104.255 10.9455 104.204 11.2513C104.153 11.7099 104.102 12.1685 104.102 12.5761C104.102 12.9837 104.102 13.3914 104.153 13.6971C104.153 13.85 104.153 13.9519 104.153 14.1048C104.153 14.2576 104.153 14.3086 104.102 14.3595C104.102 14.5124 104.102 14.6653 104.153 14.7672C104.204 14.9201 104.153 15.022 104 15.1239C104.153 15.5315 104.204 15.9901 104.153 16.4487C104.102 16.9073 104.102 17.315 104.102 17.7736C104.102 17.8755 104.102 17.9774 104.153 18.1302C104.204 18.2322 104.204 18.3341 104.204 18.4869C104.204 18.5888 104.204 18.6908 104.153 18.8436C104.102 18.9455 104.102 19.0474 104.102 19.2003V20.2704C104.051 20.3723 104.051 20.4232 104.102 20.5251C104.153 20.6271 104.102 20.7799 104.051 21.0347C104.051 21.1366 104.051 21.1876 104.102 21.2895C104.153 21.3914 104.153 21.4423 104.153 21.4933C104.102 21.5952 104.102 21.6971 104.051 21.799C104 21.9009 104 22.0029 104 22.1048V22.6653C104 22.7672 104 22.8691 104 22.9201C104 22.971 104.051 23.0729 104.102 23.1748C104 23.2258 104 23.2767 104 23.3787C104 23.4806 104 23.5825 103.949 23.6844C103.949 23.7863 103.949 23.9392 103.949 24.0411C103.949 24.143 103.898 24.2958 103.898 24.4487C103.898 24.6016 103.898 24.8054 103.949 24.9583C104 25.1111 104 25.264 103.949 25.4169C103.949 25.5697 103.949 25.7226 103.898 25.8245C103.847 25.9774 103.847 26.0793 103.847 26.2322C103.847 26.3341 103.847 26.436 103.898 26.5379C103.949 26.6398 103.949 26.7417 104 26.7927C103.898 26.9965 103.847 27.2003 103.847 27.4041C103.847 27.608 103.847 27.7099 103.847 27.8627C103.796 28.0665 103.745 28.2704 103.745 28.4742C103.745 28.678 103.745 28.8818 103.796 29.0857C103.847 29.2385 103.847 29.3404 103.898 29.4423C103.949 29.5443 103.949 29.6971 103.949 29.799C103.949 29.9519 103.949 30.0538 103.949 30.2067C103.949 30.3086 103.949 30.4615 103.949 30.6143C104 30.7672 104 30.92 104.102 31.0729C104.153 31.2258 104.204 31.3787 104.204 31.5315C104.204 31.7353 104.153 31.9392 104.102 32.092C104 32.2958 104 32.4997 104 32.7035C104.204 33.0602 104.357 33.315 104.51 33.4678C104.815 33.5188 105.07 33.5188 105.223 33.4169C105.529 33.6207 105.784 33.6716 106.038 33.5188C106.293 33.4169 106.497 33.315 106.701 33.213C106.752 33.1621 106.854 33.1621 106.955 33.1621C107.057 33.1621 107.21 33.0602 107.414 32.9073C107.618 32.9583 107.822 32.9583 107.975 32.8054C108.127 32.7035 108.28 32.6016 108.484 32.6016C108.688 32.5506 108.841 32.6016 109.045 32.6525C109.198 32.7035 109.401 32.7035 109.554 32.5506C109.758 32.7544 109.962 32.8054 110.166 32.7544C110.42 32.7035 110.624 32.6525 110.777 32.6525C110.981 32.6016 111.134 32.6016 111.338 32.6525C111.491 32.7035 111.694 32.7035 111.847 32.7035C112.051 32.6525 112.306 32.6525 112.561 32.6016C112.815 32.5506 113.019 32.5506 113.223 32.5506C113.376 32.5506 113.478 32.5506 113.631 32.5506C113.784 32.5506 113.987 32.5506 114.191 32.6016C114.242 32.5506 114.344 32.5506 114.395 32.4997C114.497 32.4487 114.548 32.4487 114.599 32.4487C114.65 32.3978 114.701 32.3978 114.803 32.3978C114.854 32.3978 114.955 32.3468 115.108 32.2959C115.312 32.2449 115.516 32.1939 115.72 32.1939C115.924 32.1939 116.229 32.143 116.535 32.0411C116.637 31.9901 116.739 31.9392 116.841 31.9392C116.943 31.9392 117.045 31.8882 117.248 31.8372C117.35 31.7863 117.401 31.7863 117.452 31.7353C117.503 31.6844 117.707 31.6334 117.962 31.5315C118.064 31.4806 118.115 31.4806 118.217 31.5315C118.319 31.5825 118.37 31.5825 118.522 31.5315C118.675 31.3787 118.828 31.2767 119.032 31.2258C119.236 31.1748 119.44 31.0729 119.643 30.92C119.694 30.8691 119.796 30.8181 119.847 30.8181C119.949 30.8181 120 30.8181 120.051 30.7672C120.102 30.7162 120.204 30.6653 120.255 30.5634C120.357 30.5124 120.51 30.4105 120.713 30.2576C120.815 30.2067 120.917 30.1557 121.019 30.1048C121.121 30.0538 121.223 30.0029 121.274 29.9519C121.427 29.85 121.529 29.7481 121.58 29.5952C121.682 29.4933 121.784 29.3914 121.885 29.2385C122.038 29.0857 122.242 28.9837 122.548 28.8818C122.497 28.729 122.548 28.6271 122.65 28.5761C122.752 28.5251 122.803 28.4742 122.854 28.3723C122.905 28.2704 122.955 28.1175 123.006 27.9646C123.057 27.8118 123.108 27.6589 123.159 27.506C123.21 27.3532 123.261 27.2003 123.363 27.0984C123.414 26.9455 123.516 26.8436 123.567 26.6908C123.618 26.6398 123.618 26.5379 123.567 26.436C123.567 26.3341 123.567 26.2322 123.567 26.1302C123.618 26.0283 123.669 25.8755 123.72 25.6207C123.771 25.4169 123.822 25.1621 123.873 24.9583C123.924 24.7544 123.924 24.5506 123.924 24.3978C124.026 23.9901 124.026 23.5315 123.924 23.1239ZM115.21 10.2831C115.159 10.4869 115.159 10.6398 115.21 10.8436C115.057 10.9455 115.006 11.0474 115.006 11.1494C115.006 11.2513 115.006 11.4041 114.955 11.4551C114.905 11.506 114.905 11.557 114.803 11.608C114.752 11.6589 114.65 11.7608 114.548 11.9137C114.497 12.0156 114.446 12.0666 114.344 12.1685C114.293 12.2194 114.191 12.3213 114.14 12.4232C113.987 12.4742 113.834 12.5252 113.682 12.5761C113.529 12.6271 113.427 12.729 113.376 12.8818C112.866 12.8818 112.459 12.9837 112.153 13.2385C111.949 13.1876 111.745 13.1876 111.541 13.2895C111.389 13.3914 111.185 13.4423 111.032 13.4933C110.828 13.5443 110.624 13.5443 110.42 13.5443C110.217 13.4933 110.013 13.5443 109.809 13.5952C109.656 13.6462 109.554 13.6462 109.401 13.6971C109.248 13.7481 109.096 13.799 108.994 13.799C108.892 13.4933 108.79 13.1366 108.688 12.7799C108.586 12.4232 108.586 12.0156 108.739 11.6589C108.688 11.506 108.637 11.4041 108.586 11.2513C108.535 11.1494 108.535 10.8946 108.586 10.5888C108.586 10.4869 108.586 10.385 108.535 10.1812C108.484 9.97738 108.484 9.82451 108.535 9.62069C108.535 9.46782 108.535 9.36592 108.586 9.21305C108.637 9.06018 108.637 8.95827 108.637 8.8054C108.637 8.65254 108.637 8.49967 108.586 8.39776C108.535 8.24489 108.535 8.14298 108.535 7.99012C108.535 7.88821 108.535 7.7863 108.535 7.68439C108.535 7.58248 108.535 7.48056 108.535 7.37865C108.535 7.17483 108.535 6.92005 108.484 6.76719C108.433 6.56337 108.433 6.35955 108.484 6.15572C108.688 6.10477 108.943 6.05381 109.147 6.05381C109.35 6.05381 109.656 6.00286 110.013 5.84999C110.064 5.84999 110.166 5.84999 110.217 5.84999C110.268 5.84999 110.471 5.84999 110.777 5.79903C110.981 5.74808 111.236 5.74808 111.44 5.79903C111.643 5.84999 111.898 5.84999 112.102 5.90095C112.306 5.9519 112.561 5.9519 112.764 5.9519C112.968 5.9519 113.274 6.00286 113.58 6.05381C113.631 6.10477 113.682 6.10477 113.682 6.15572C113.733 6.20668 113.834 6.25763 113.987 6.30859C114.14 6.46145 114.293 6.61432 114.395 6.81814C114.497 7.02196 114.65 7.12388 114.905 7.27674C114.955 7.37865 114.955 7.42961 114.955 7.48056C114.955 7.53152 115.006 7.63343 115.159 7.7863C115.21 7.83725 115.21 7.88821 115.159 7.93916C115.159 7.99012 115.159 8.09203 115.261 8.2449C115.312 8.49967 115.312 8.75445 115.312 9.06018C115.261 9.36591 115.312 9.56974 115.414 9.7226C115.261 9.92642 115.21 10.0793 115.21 10.2831ZM118.115 23.5825C118.166 23.9392 118.115 24.2959 118.064 24.6525C118.013 24.7544 117.962 24.8054 117.911 24.9073C117.86 25.0092 117.809 25.1111 117.809 25.264C117.656 25.315 117.605 25.3659 117.605 25.4678C117.605 25.5697 117.554 25.6716 117.503 25.7736C117.299 25.8755 117.096 26.0283 116.943 26.2322C116.79 26.436 116.637 26.5888 116.535 26.6908C116.382 26.7417 116.28 26.7417 116.178 26.7417C116.077 26.7417 115.975 26.7927 115.873 26.7927C115.414 27.0474 114.955 27.2513 114.446 27.3532C113.987 27.4551 113.478 27.608 112.917 27.7099C112.815 27.7608 112.764 27.7608 112.662 27.7608C112.561 27.7608 112.51 27.7608 112.408 27.8118C112.357 27.8118 112.306 27.8118 112.204 27.8627C112.153 27.9137 112.051 27.9137 111.898 27.9646C111.694 28.0156 111.44 28.0156 111.236 28.0666C111.032 28.1175 110.777 28.1175 110.573 28.1685C110.268 28.2194 109.962 28.3213 109.656 28.4232C109.35 28.5251 109.096 28.5761 108.79 28.5761C108.739 28.4742 108.739 28.3723 108.739 28.3213C108.739 28.2704 108.739 28.1685 108.739 28.0666C108.739 27.9646 108.739 27.9137 108.79 27.8118C108.841 27.7099 108.841 27.6589 108.841 27.6079C108.841 27.4551 108.79 27.3022 108.739 27.1494C108.688 26.9965 108.688 26.7927 108.688 26.5888C108.739 26.436 108.688 26.2322 108.688 25.8755C108.688 25.5188 108.637 25.1621 108.688 24.7544C108.586 23.9901 108.637 23.1748 108.739 22.3086C108.841 21.4423 108.892 20.5761 108.841 19.7099C108.892 19.6079 108.994 19.506 109.045 19.4551C109.147 19.4041 109.198 19.3532 109.248 19.2003C109.86 19.2513 110.369 19.2003 110.777 19.0474C111.185 18.9455 111.643 18.8946 112.204 18.8946C112.612 18.9455 113.019 18.9965 113.478 19.0474C113.936 19.0984 114.395 19.2003 114.854 19.3022C115.006 19.4551 115.21 19.557 115.363 19.6589C115.567 19.7608 115.771 19.8627 115.975 20.0156C116.127 20.1175 116.229 20.1685 116.28 20.2194C116.382 20.2704 116.484 20.3723 116.586 20.5251C116.637 20.5761 116.739 20.6271 116.841 20.729C116.943 20.8309 117.045 20.9837 117.147 21.1876C117.198 21.2895 117.248 21.3404 117.35 21.3404C117.401 21.3914 117.503 21.4423 117.554 21.5443C117.605 21.7481 117.656 22.0029 117.758 22.1557C117.809 22.3595 117.911 22.5124 118.013 22.6653C118.115 22.971 118.064 23.2767 118.115 23.5825Z" fill="#AD3919"/>
</svg>
