<svg width="124" height="37" viewBox="0 0 124 37" fill="none" xmlns="http://www.w3.org/2000/svg">
<path d="M22.7771 33.3851C22.7771 33.2322 22.7261 33.0284 22.5732 32.8755C22.5223 32.8246 22.4204 32.7736 22.3185 32.7736C22.2166 32.7736 22.1656 32.6717 22.2166 32.5188C21.9108 32.4679 21.707 32.4169 21.5032 32.366C21.3503 32.2641 21.2484 32.1112 21.1975 31.9583C21.0955 31.8055 21.0446 31.6526 20.8917 31.4997C20.7898 31.3469 20.6879 31.194 20.535 30.9902C20.4331 30.8373 20.2803 30.6844 20.1274 30.4806C19.9745 30.3787 19.8217 30.1749 19.6688 29.8692C19.5159 29.7673 19.3631 29.6144 19.3121 29.5125C19.2611 29.4615 19.2102 29.3596 19.1592 29.2577C19.1083 29.1558 19.0064 29.1048 18.9045 29.1048C18.8535 29.0029 18.8025 28.901 18.7516 28.7991C18.7006 28.6972 18.5987 28.4934 18.3949 28.2895C18.293 28.2386 18.242 28.1876 18.1911 28.1367C18.1401 28.0857 18.0382 28.0348 17.9873 28.0348C17.8344 27.729 17.6815 27.4743 17.4777 27.3214C17.2739 27.1685 17.172 26.9137 17.0701 26.608C16.9172 26.608 16.8662 26.5571 16.8662 26.4551C16.8662 26.3532 16.8153 26.2513 16.7643 26.2004C16.6624 26.0985 16.5605 25.9965 16.4586 25.8946C16.3567 25.7927 16.2548 25.6908 16.2038 25.6399C16.1019 25.538 16.051 25.436 16 25.436C15.949 25.3851 15.8471 25.3851 15.7452 25.3341C15.6943 25.1813 15.6433 25.0794 15.5414 24.9265C15.4395 24.8246 15.3376 24.6208 15.2357 24.4169C15.1847 24.315 15.0828 24.2131 15.0318 24.1112C14.9299 24.0093 14.879 23.9074 14.828 23.8055C14.7261 23.6526 14.6752 23.6016 14.6752 23.5507C14.6242 23.5507 14.5732 23.4997 14.5223 23.4488C14.3694 23.3978 14.2675 23.3469 14.2166 23.245C14.1656 23.194 14.0637 23.143 13.9618 23.0921C13.8599 22.7864 13.758 22.5825 13.6051 22.3787C13.4522 22.1749 13.2484 21.9711 13.0955 21.8182C13.0446 21.6653 12.9427 21.5634 12.8408 21.4615C12.7389 21.3596 12.6369 21.2577 12.586 21.1558C12.4841 20.952 12.3822 20.7991 12.2803 20.6462C12.1783 20.4934 12.1274 20.3915 11.9745 20.2895C11.8726 20.1876 11.8217 20.0857 11.7707 19.9329C11.6178 19.8819 11.5159 19.78 11.414 19.6781C11.3121 19.5762 11.2102 19.4743 11.1083 19.3723C10.9554 19.2195 10.8025 19.0157 10.6497 18.8118C10.4968 18.608 10.3949 18.4042 10.242 18.3023C10.0892 18.1494 9.93631 17.9966 9.73249 17.7927C9.52866 17.5889 9.42675 17.3851 9.42675 17.2322C9.47771 17.1303 9.52866 17.0284 9.63057 16.9265C9.73248 16.8246 9.83439 16.7227 9.93631 16.6208C10.242 16.366 10.4968 16.0602 10.7516 15.8055C11.0064 15.5507 11.3121 15.3469 11.6688 15.194C11.7707 14.9392 11.8726 14.7354 12.0764 14.6335C12.1274 14.5825 12.1783 14.5316 12.2293 14.4297C12.2803 14.3278 12.3822 14.2768 12.535 14.2768C12.586 14.1749 12.6369 14.073 12.6879 13.9711C12.7388 13.8692 12.7898 13.7673 12.8917 13.6653C13.0446 13.7163 13.0955 13.6653 13.1465 13.6144C13.1975 13.5634 13.2484 13.5125 13.3503 13.5634C13.4522 13.3596 13.6051 13.2067 13.707 13.1048C13.8599 13.0029 13.9618 12.901 14.1146 12.7481C14.2675 12.6462 14.3694 12.4934 14.5223 12.3915C14.6752 12.2895 14.7771 12.1367 14.879 11.9329C15.0828 11.8819 15.2357 11.78 15.2866 11.5762C15.3376 11.3723 15.4904 11.2704 15.6943 11.2195C15.8471 11.0157 16 10.8628 16.1529 10.7099C16.3057 10.5571 16.4586 10.4552 16.6624 10.3023C16.8153 10.1494 16.9172 9.9456 17.0701 9.79273C17.2229 9.58891 17.3758 9.43604 17.5796 9.28318C17.6306 9.23222 17.6306 9.13031 17.6815 9.0284C17.7325 8.92649 17.7325 8.87553 17.7834 8.77362C17.9873 8.72267 18.0892 8.67171 18.1911 8.5698C18.293 8.46789 18.3439 8.36598 18.4968 8.26407C18.5987 8.16216 18.7006 8.06025 18.8025 7.90738C18.9045 7.80547 19.0064 7.6526 19.1083 7.55069C19.3631 7.44878 19.5669 7.34687 19.7707 7.194C19.9745 7.04114 20.1274 6.88827 20.3312 6.73541C20.4331 6.6335 20.535 6.58254 20.6369 6.48063C20.7389 6.37872 20.7898 6.32776 20.9427 6.27681C21.0446 6.1749 21.0955 6.07299 21.1975 5.97107C21.2994 5.86916 21.4013 5.81821 21.5032 5.76725C21.6051 5.61439 21.707 5.46152 21.8599 5.30865C22.0127 5.15579 22.0637 4.95197 22.0127 4.74814C21.9618 4.64623 21.9108 4.59528 21.8089 4.49337C21.707 4.39146 21.5541 4.28955 21.3503 4.13668C21.2994 4.13668 21.1974 4.13668 21.0955 4.18764C20.9936 4.23859 20.7898 4.18763 20.4841 4.13668C20.3312 4.08572 20.1274 4.03477 19.9745 4.03477C19.8217 4.03477 19.6178 3.98381 19.5159 3.93286C19.465 3.8819 19.3631 3.8819 19.3121 3.83095C19.2102 3.77999 19.0573 3.77999 18.8535 3.77999C18.3949 3.72904 17.9363 3.67808 17.5287 3.72904C17.121 3.72904 16.7134 3.72904 16.3057 3.72904C16.1019 3.72904 15.8981 3.72904 15.7452 3.67808C15.5924 3.62713 15.4395 3.62713 15.3376 3.67808C15.1847 3.72904 15.0318 3.77999 14.879 3.93286C14.7261 4.03477 14.6242 4.08572 14.4713 4.08572C14.4713 4.23859 14.4204 4.39146 14.3185 4.49337C14.2166 4.59528 14.0637 4.7991 13.8599 5.00292C13.8089 5.15579 13.707 5.2577 13.6561 5.30865C13.5541 5.35961 13.5032 5.46152 13.4522 5.56343C13.4013 5.61439 13.3503 5.66534 13.2994 5.76725C13.2484 5.81821 13.1465 5.97107 13.0446 6.22585C12.9427 6.32776 12.8408 6.42967 12.7389 6.58254C12.6369 6.68445 12.4841 6.83732 12.2803 6.93923C12.1274 7.09209 12.0255 7.24496 11.8726 7.44878C11.7707 7.60165 11.6178 7.80547 11.5159 8.00929C11.3631 7.95834 11.3121 7.95834 11.2611 8.00929C11.2102 8.06025 11.1592 8.1112 11.0064 8.1112C10.9554 8.21311 10.8535 8.31502 10.8025 8.41693C10.7006 8.51885 10.5478 8.67171 10.3439 8.92649C10.293 8.97744 10.242 8.97744 10.1911 9.0284C10.1401 9.07936 10.0382 9.13031 9.93631 9.28318C9.63057 9.58891 9.32484 9.84368 9.01911 10.1494C8.71337 10.4551 8.40764 10.8118 8.10191 11.1685C8.05095 11.2195 8.05095 11.2195 8 11.2704C7.94904 11.3214 7.84713 11.3723 7.74522 11.5252C7.69427 11.5762 7.64331 11.6271 7.64331 11.6781C7.64331 11.729 7.59236 11.8819 7.43949 12.0348C7.38854 12.0857 7.28662 12.1367 7.23567 12.2386C7.18471 12.3405 7.03184 12.4934 6.82802 12.6972C6.77707 12.7481 6.72612 12.7991 6.67516 12.8501C6.62421 12.901 6.52229 13.0029 6.26752 13.1558C6.16561 13.2577 6.11465 13.3596 6.06369 13.4615C6.01274 13.5634 5.91082 13.6653 5.80891 13.6653C5.707 13.9711 5.55414 14.1239 5.29936 14.1239C5.2484 13.9201 5.24841 13.7673 5.24841 13.6653C5.29936 13.5634 5.29936 13.3596 5.35032 13.1558C5.29936 13.0029 5.24841 12.901 5.24841 12.8501C5.19745 12.7991 5.19745 12.6972 5.1465 12.5953C5.1465 12.5443 5.1465 12.4934 5.1465 12.3915C5.1465 12.2895 5.1465 12.1367 5.09554 11.9329C5.29936 11.729 5.35032 11.4743 5.24841 11.3214C5.1465 11.1176 5.09554 10.9137 5.09554 10.7099C5.1465 10.5571 5.1465 10.4552 5.24841 10.3532C5.29936 10.2513 5.35032 10.0985 5.40128 9.99655C5.45223 9.89464 5.45223 9.79273 5.45223 9.69082C5.45223 9.58891 5.45223 9.487 5.50319 9.38509C5.55414 9.28318 5.55414 9.18127 5.60509 9.07935C5.65605 8.97744 5.65605 8.87553 5.707 8.77362C5.75796 8.41693 5.75796 8.1112 5.75796 7.80547C5.70701 7.49974 5.70701 7.194 5.75796 6.93923C5.75796 6.78636 5.75796 6.63349 5.80891 6.48063C5.85987 6.32776 5.85987 6.1749 5.85987 6.02203C5.91083 5.81821 5.85987 5.56343 5.80891 5.35961C5.75796 5.15579 5.75796 4.95197 5.75796 4.69719C5.75796 4.54432 5.80892 4.44241 5.85987 4.28955C5.91083 4.18764 5.91083 4.03477 5.85987 3.93286C5.85987 3.8819 5.75796 3.72904 5.50319 3.37235C5.40127 3.32139 5.35032 3.32139 5.24841 3.32139C5.1465 3.37235 5.04458 3.37235 4.94267 3.32139C4.78981 3.32139 4.68789 3.32139 4.53503 3.27044C4.43312 3.21948 4.2293 3.27044 4.02547 3.32139C3.87261 3.37235 3.7707 3.37235 3.71975 3.32139C3.61784 3.27044 3.56688 3.27044 3.51592 3.27044C3.36305 3.32139 3.26115 3.32139 3.10828 3.32139C2.95542 3.32139 2.80255 3.32139 2.59873 3.27044C2.59873 3.32139 2.54777 3.32139 2.49681 3.32139H2.08917C1.78344 3.32139 1.47771 3.32139 1.17198 3.27044C0.866243 3.21948 0.611463 3.21948 0.356686 3.21948C0.20382 3.37235 0.101914 3.62713 0.0509585 3.8819C3.10931e-06 4.03477 3.10931e-06 4.18763 0.0509585 4.39146C0.0509585 4.59528 0.0509554 4.74814 0 4.90101C0.0509554 5.05388 0.101908 5.15579 0.203819 5.2577C0.254774 5.35961 0.305731 5.46152 0.356686 5.61439C0.356686 5.76725 0.356691 5.86916 0.305736 5.97107C0.25478 6.07299 0.254774 6.22585 0.203819 6.32776C0.203819 6.37872 0.203822 6.42967 0.254777 6.53158C0.305732 6.63349 0.254774 6.78636 0.203819 6.99018C0.203819 7.09209 0.203822 7.14305 0.254777 7.24496C0.305732 7.34687 0.305731 7.39783 0.356686 7.49974C0.407642 7.70356 0.356686 7.95834 0.356686 8.16216C0.305731 8.36598 0.305731 8.5698 0.356686 8.82458C0.356686 8.92649 0.356689 8.97744 0.407645 9.07935C0.4586 9.18127 0.4586 9.33413 0.407645 9.58891C0.407645 10.0475 0.407645 10.4042 0.407645 10.7609C0.407645 11.0666 0.356688 11.5252 0.254777 12.1367C0.356688 12.2895 0.305732 12.4934 0.254777 12.7481C0.152866 13.0029 0.152866 13.2067 0.254777 13.3596C0.203822 13.5634 0.25478 13.7163 0.305736 13.8692C0.356691 14.022 0.407645 14.1749 0.407645 14.2768C0.407645 14.4806 0.407642 14.6845 0.356686 14.8883C0.305731 15.0921 0.305731 15.3978 0.356686 15.7545C0.356686 15.8564 0.356691 15.9074 0.305736 16.0093C0.25478 16.1112 0.254777 16.1622 0.254777 16.2131C0.254777 16.5698 0.305731 16.8755 0.356686 17.1813C0.407642 17.436 0.458596 17.7418 0.458596 17.9966C0.458596 18.0985 0.4586 18.1494 0.407645 18.2513C0.356689 18.3532 0.356686 18.4551 0.356686 18.5061C0.407642 18.608 0.40764 18.7099 0.458596 18.8118C0.509551 18.9137 0.509554 19.0157 0.509554 19.1176C0.56051 19.2195 0.56051 19.3214 0.509554 19.4233C0.509554 19.5252 0.509554 19.6271 0.509554 19.729C0.509554 19.8819 0.509557 19.9838 0.560513 20.1367C0.611468 20.2386 0.611466 20.3915 0.662422 20.5443C0.713377 20.952 0.713377 21.3087 0.662422 21.6653C0.611466 22.022 0.611463 22.3787 0.611463 22.7354C0.611463 23.143 0.662417 23.5507 0.713373 23.9583C0.764328 24.366 0.764328 24.7736 0.713373 25.1813C0.764328 25.2832 0.764334 25.3851 0.81529 25.436C0.866245 25.487 0.917199 25.5889 0.917199 25.7418C0.917199 26.0985 0.968153 26.4551 1.01911 26.8628C1.07006 27.2704 1.12102 27.6271 1.17198 27.9329C1.22293 28.0857 1.22293 28.1876 1.17198 28.2895C1.12102 28.3915 1.17197 28.4934 1.22293 28.6462C1.12102 28.7991 1.12102 28.952 1.12102 29.1048C1.17197 29.2577 1.17197 29.4106 1.12102 29.6144C1.12102 29.7163 1.12102 29.8182 1.12102 29.9711C1.12102 30.1239 1.07007 30.3278 1.07007 30.4806C1.07007 30.6335 1.07007 30.7864 1.07007 30.9392C1.07007 31.0921 1.07007 31.143 1.07007 31.194C1.01911 31.4997 1.01911 31.7545 1.01911 31.9583C1.07006 32.1622 1.07006 32.366 1.12102 32.6208C1.12102 32.8246 1.07006 33.0284 1.01911 33.2322C0.968153 33.436 0.917199 33.6399 0.917199 33.7927C0.968154 33.9965 1.07006 34.1494 1.12102 34.3023C1.22293 34.4551 1.32484 34.608 1.37579 34.7609C1.52866 34.7099 1.68153 34.659 1.8344 34.659C1.98726 34.659 2.14013 34.659 2.19108 34.608C2.49682 34.5571 2.90446 34.5571 3.3121 34.608C3.71974 34.659 4.12739 34.659 4.43312 34.608C4.58599 34.5571 4.6879 34.5571 4.73885 34.5061C4.84077 34.4551 4.89172 34.4042 5.04458 34.3532C5.19745 34.5061 5.35032 34.5571 5.60509 34.5571C5.85987 34.5571 6.1656 34.608 6.57324 34.7099C6.72611 34.7099 6.82802 34.659 6.87898 34.608C6.98089 34.5061 7.03185 34.4551 7.18472 34.4042C7.23567 34.1494 7.23567 33.9456 7.13376 33.7927C7.03185 33.6399 7.03185 33.487 7.13376 33.2322C6.98089 33.0794 6.87898 32.9265 6.92994 32.7227C6.92994 32.5188 6.98089 32.366 6.98089 32.1622V31.6016C6.98089 31.3978 6.92994 31.245 6.87898 31.0411C6.82802 30.8883 6.77707 30.6844 6.72611 30.4297C6.67516 30.073 6.67516 29.8182 6.72611 29.5634C6.77707 29.3087 6.77707 29.0539 6.77707 28.6972C6.82803 28.4934 6.77707 28.2386 6.77707 27.9838C6.72612 27.729 6.72611 27.4743 6.72611 27.2195C6.67516 27.0666 6.67516 26.9647 6.72611 26.8628C6.72611 26.7609 6.72611 26.659 6.72611 26.5571C6.67516 26.4042 6.67516 26.3023 6.67516 26.1494C6.67516 25.9965 6.6242 25.8437 6.6242 25.6908C6.6242 25.487 6.62421 25.2322 6.67516 25.0284C6.72612 24.8246 6.72612 24.6208 6.67516 24.366C6.62421 24.1112 6.6242 23.9074 6.57324 23.7036C6.52229 23.4997 6.47134 23.3469 6.47134 23.194C6.42038 23.0411 6.42038 22.9392 6.47134 22.8373C6.52229 22.7354 6.47134 22.5825 6.47134 22.4806C6.52229 22.3787 6.52229 22.2768 6.47134 22.1749C6.42038 22.073 6.52229 21.9711 6.6242 21.9201C6.67516 21.9711 6.67516 22.022 6.77707 22.073C6.82803 22.1239 6.98089 22.2768 7.18472 22.4297C7.5414 22.6335 7.84713 22.9392 8.10191 23.2959C8.35668 23.6526 8.76433 23.8564 9.22293 23.9074C9.27389 24.0602 9.3758 24.2131 9.42675 24.2641C9.52866 24.315 9.57961 24.4169 9.63057 24.5698C9.68152 24.7227 9.73248 24.8755 9.8344 24.9774C9.93631 25.1303 10.0382 25.2832 10.1401 25.436C10.242 25.5889 10.3439 25.6908 10.4459 25.7927C10.4968 25.8437 10.5987 25.8946 10.6497 26.0475C10.7516 26.1494 10.8025 26.2513 10.8535 26.3023C11.0064 26.5061 11.2102 26.7099 11.414 26.8628C11.6178 27.0157 11.8217 27.1685 11.9236 27.4233C11.9745 27.5252 12.0255 27.5762 12.0255 27.6781C12.0255 27.78 12.0764 27.8819 12.1274 27.9838C12.1783 28.0857 12.2803 28.1367 12.3312 28.2386C12.4331 28.3405 12.4841 28.3915 12.535 28.4424C12.586 28.5443 12.6369 28.5953 12.6879 28.6972C12.7388 28.7991 12.7898 28.8501 12.8408 28.952C13.1465 29.2067 13.3503 29.4615 13.4522 29.8182C13.5032 29.8692 13.5541 29.9201 13.6561 29.9201C13.758 29.9201 13.8089 29.9711 13.8599 30.073C13.8089 30.1749 13.8089 30.2768 13.8089 30.3278C13.8599 30.3787 13.8599 30.4297 13.9108 30.5316C14.0637 30.5825 14.1656 30.6844 14.2166 30.8373C14.2675 30.9902 14.4204 31.143 14.5732 31.3978C14.6752 31.6016 14.7771 31.8055 14.879 31.9074C14.9299 32.0093 14.9809 32.0602 15.0318 32.1622C15.0828 32.2641 15.0828 32.366 15.0318 32.4679C15.3885 32.7227 15.6943 33.0284 15.949 33.3851C16 33.487 16.051 33.5379 16.051 33.6399C16.1019 33.6908 16.1019 33.7927 16.051 33.8946C16.2038 33.9456 16.2548 33.9965 16.3057 34.1494C16.3567 34.2513 16.4076 34.4042 16.5096 34.5571C16.6624 34.7609 16.8153 35.0666 16.8662 35.3723C17.0701 35.4233 17.2739 35.6271 17.5796 36.0348C17.6306 36.0857 17.6306 36.0857 17.6815 36.1367C17.7325 36.1876 17.8344 36.2895 18.0382 36.4424C18.1401 36.4934 18.242 36.4424 18.3439 36.4424C18.4459 36.3915 18.5478 36.3405 18.7516 36.3405C19.0573 35.9329 19.414 35.6781 19.8217 35.4743C20.0255 35.3723 20.2803 35.2195 20.4841 35.1176C20.7388 35.0157 20.9427 34.9137 21.0955 34.8628C21.4013 34.7609 21.707 34.659 22.1146 34.659C22.4713 34.608 22.7771 34.5061 23.0828 34.3023C22.6752 33.7927 22.7771 33.5889 22.7771 33.3851Z" fill="#AD3919"/>
<path d="M31.9484 33.8432C31.8975 33.7923 31.8975 33.6394 31.8465 33.4356C31.7956 33.3337 31.7956 33.2317 31.7446 33.1298C31.6936 33.0279 31.6937 32.926 31.6427 32.8751C31.5917 32.5693 31.5917 32.2126 31.6427 31.8559C31.6937 31.4993 31.6427 30.9897 31.5408 30.4292C31.4389 29.9706 31.4389 29.461 31.4389 28.9515C31.4389 28.4419 31.4898 27.8814 31.5408 27.3719C31.5408 26.9642 31.5408 26.6075 31.5408 26.1999C31.5408 25.7923 31.5408 25.4865 31.4898 25.2317C31.4389 25.0789 31.4389 24.977 31.3879 24.8751C31.337 24.7731 31.337 24.6712 31.337 24.5693C31.337 24.4165 31.337 24.3145 31.3879 24.1617C31.4389 24.0598 31.4389 23.9069 31.4389 23.754C31.4898 23.4483 31.4898 23.0916 31.3879 22.7859C31.286 22.4292 31.286 22.0725 31.286 21.7158C31.286 21.563 31.286 21.461 31.337 21.3082C31.3879 21.1553 31.3879 21.0024 31.3879 20.9005C31.337 20.7986 31.337 20.6458 31.286 20.5438C31.235 20.391 31.1841 20.2891 31.1841 20.1362C31.1841 19.9833 31.1841 19.8814 31.235 19.7795C31.286 19.6776 31.286 19.5757 31.235 19.4228C31.1841 19.3209 31.1331 19.1681 31.1331 19.0661C31.1331 18.9642 31.0822 18.8114 31.0312 18.7095C31.0822 18.6075 31.0822 18.5566 31.1331 18.4547C31.1841 18.3528 31.1841 18.2509 31.1331 18.047C31.1331 17.8942 31.1841 17.7413 31.235 17.5884C31.286 17.4356 31.337 17.2827 31.337 17.1298C31.337 17.0279 31.337 16.926 31.286 16.8241C31.235 16.7222 31.235 16.5184 31.286 16.2126C31.235 16.1107 31.235 15.9579 31.286 15.856C31.337 15.754 31.286 15.6012 31.235 15.5502C31.1841 15.3974 31.1841 15.2954 31.235 15.1426C31.286 15.0407 31.286 14.8878 31.286 14.7349C31.286 14.684 31.286 14.5821 31.235 14.4802C31.1841 14.3782 31.235 14.1744 31.286 13.9196C31.1841 13.7158 31.1331 13.512 31.1331 13.2063C31.1331 12.9515 31.0822 12.6458 31.0312 12.2891C31.0312 12.2381 31.0312 12.1362 31.0822 12.0343C31.1331 11.9324 31.1331 11.7286 31.1331 11.4738C31.1841 11.1681 31.1841 10.9133 31.1841 10.6585C31.1841 10.4037 31.1841 10.1489 31.1841 9.94512C31.1841 9.63939 31.1841 9.43557 31.235 9.23175C31.286 9.02793 31.1841 8.8241 31.0822 8.62028C31.1841 8.46742 31.2351 8.36551 31.1841 8.2636C31.1331 8.16168 31.0822 8.05977 31.0312 7.90691C31.1841 7.70309 31.1841 7.49926 31.1331 7.29544C31.0822 7.09162 31.0312 6.83684 31.0822 6.58207C31.0822 6.37824 31.0822 6.12347 31.1331 5.9706C31.1841 5.76678 31.1841 5.56296 31.235 5.35914C31.235 5.20627 31.235 5.00245 31.235 4.84958C31.235 4.64576 31.235 4.49289 31.235 4.28907C31.1841 4.08525 31.1841 3.88143 31.1841 3.72856C31.1841 3.52474 31.1331 3.37188 31.0312 3.21901C30.8784 3.16805 30.7765 3.1171 30.6236 3.06614C30.4707 3.01519 30.3688 2.91328 30.2159 2.81137C30.114 2.76041 30.0631 2.76041 30.0121 2.81137C29.9612 2.86232 29.8593 2.86232 29.8083 2.86232C29.7064 2.86232 29.6045 2.86232 29.5535 2.81137C29.5026 2.76041 29.4516 2.76041 29.3497 2.76041C29.1459 2.76041 28.9421 2.76041 28.7382 2.81137C28.5344 2.86232 28.3306 2.91328 28.1268 2.91328C28.0758 2.81137 27.9739 2.76041 27.7701 2.76041C27.5663 2.76041 27.4134 2.76041 27.2605 2.76041C27.1586 2.70946 27.1077 2.70945 27.0058 2.6585C26.9038 2.60754 26.8019 2.60754 26.7 2.60754C26.6491 2.60754 26.5981 2.6585 26.5472 2.70946C26.4962 2.76041 26.3943 2.81137 26.2414 2.81137C25.9866 2.86232 25.7319 2.96423 25.5281 3.06614C25.3242 3.16805 25.2223 3.37188 25.1714 3.62665C25.1204 3.77952 25.1714 3.88143 25.2733 3.98334C25.3752 4.08525 25.4771 4.23812 25.5281 4.39098C25.3752 4.5948 25.3752 4.79863 25.4261 5.00245C25.528 5.20627 25.5281 5.35914 25.5281 5.512C25.5281 5.56296 25.528 5.61391 25.4771 5.71582C25.4261 5.81773 25.4261 5.86869 25.4261 5.9706C25.3752 6.12347 25.3752 6.32729 25.3752 6.58207C25.3752 6.78589 25.3752 6.93875 25.3752 7.04066C25.3242 7.19353 25.3752 7.3464 25.4261 7.55022C25.4771 7.75404 25.4771 7.90691 25.3242 8.05977C25.528 8.26359 25.63 8.56933 25.63 8.92602C25.63 9.33366 25.63 9.69035 25.63 9.99608C25.6809 10.1999 25.6809 10.4037 25.63 10.5566C25.63 10.7095 25.63 10.8623 25.63 11.0661C25.579 11.1681 25.579 11.27 25.63 11.4228C25.6809 11.5247 25.6809 11.6776 25.6809 11.7795C25.6809 12.0852 25.6809 12.4419 25.63 12.7986C25.579 13.1553 25.579 13.6139 25.63 14.1744C25.579 14.2254 25.579 14.2763 25.63 14.3273C25.6809 14.3782 25.6809 14.4802 25.6809 14.684C25.7319 14.8878 25.7319 15.1426 25.6809 15.3464C25.63 15.5502 25.63 15.805 25.63 16.0598C25.6809 16.5184 25.6809 16.926 25.63 17.3846C25.579 17.4865 25.579 17.5884 25.63 17.7413C25.63 17.8432 25.579 17.9451 25.4771 18.047C25.579 18.6075 25.579 19.0661 25.579 19.3719C25.579 19.6776 25.4771 20.1362 25.3752 20.6967C25.528 20.8496 25.579 21.0534 25.579 21.2063C25.528 21.3591 25.5281 21.563 25.5281 21.7668C25.5281 22.1235 25.5281 22.5311 25.5281 22.9897C25.5281 23.4483 25.5281 23.805 25.5281 24.1107C25.4771 24.2636 25.4771 24.4165 25.5281 24.6203C25.579 24.7731 25.579 24.8751 25.579 24.926C25.528 25.0279 25.528 25.1298 25.4771 25.2317C25.4261 25.3337 25.4261 25.5375 25.4771 25.8432C25.528 25.9451 25.528 25.9961 25.579 26.098C25.63 26.1489 25.63 26.2509 25.63 26.3528C25.63 26.5056 25.63 26.6585 25.579 26.8114C25.528 26.9642 25.5281 27.1171 25.5281 27.27C25.5281 27.5757 25.528 27.8814 25.579 28.2381C25.63 28.5438 25.63 28.9005 25.63 29.2063C25.63 29.3591 25.63 29.512 25.579 29.6139C25.528 29.7668 25.5281 29.9196 25.5281 30.1235C25.5281 30.2763 25.528 30.4292 25.579 30.5821C25.63 30.7349 25.63 30.8878 25.63 31.0407C25.63 31.1426 25.63 31.1935 25.579 31.2954C25.528 31.3974 25.5281 31.4993 25.5281 31.5502C25.5281 31.6521 25.528 31.754 25.579 31.8559C25.63 31.9579 25.63 32.0598 25.6809 32.1617C25.6809 32.2636 25.6809 32.3145 25.6809 32.4165C25.6809 32.5184 25.6809 32.6203 25.6809 32.6712C25.7319 32.977 25.7319 33.2827 25.7319 33.5884C25.7319 33.8942 25.7319 34.1999 25.7319 34.4547C25.8847 34.5566 25.9357 34.6585 25.9866 34.8114C26.0376 34.9642 26.1395 35.1171 26.2414 35.219C26.4962 35.219 26.751 35.168 27.0058 35.1171C27.2605 35.0661 27.4644 34.9642 27.6682 34.9133C27.821 35.0152 27.923 35.0152 28.0758 35.0152C28.1777 35.0152 28.3306 35.0152 28.4835 35.0152C28.7382 35.0152 28.993 35.0152 29.1968 35.0152C29.4007 35.0152 29.6554 35.0152 29.8593 35.0152C29.9612 35.0152 30.0121 35.0152 30.114 35.0661C30.2159 35.1171 30.2669 35.1171 30.3688 35.1171C30.5217 35.1171 30.6236 35.1171 30.7255 35.0661C30.8274 35.0152 30.9293 35.0152 31.0312 35.0661C31.1331 35.0661 31.2351 35.0661 31.337 35.1171C31.4389 35.168 31.5408 35.168 31.5917 35.168C31.7446 35.0152 31.8465 34.8623 31.9994 34.8114C32.1522 34.7604 32.2542 34.6075 32.3051 34.3528C31.9484 33.9961 31.9484 33.8942 31.9484 33.8432Z" fill="#AD3919"/>
<path d="M54.0125 30.3793C53.9616 30.2774 53.9616 30.2265 53.9616 30.1245C53.9106 29.9717 53.9616 29.8698 53.9616 29.7679C54.0125 29.6659 54.0125 29.564 54.0125 29.4112C53.9616 29.3093 53.9615 29.2074 53.9106 29.1054C53.8596 29.0035 53.8596 28.9016 53.8596 28.7997C53.8087 28.6978 53.8087 28.5959 53.8087 28.443C53.8087 28.3411 53.7577 28.2392 53.7577 28.0863C53.6558 27.9844 53.5539 27.8825 53.3501 27.7806C53.1463 27.6787 52.8405 27.6787 52.4329 27.7806C52.2291 27.8316 52.0762 27.8825 51.8724 27.8825C51.7195 27.8825 51.4138 27.9335 51.0571 28.0354C51.0061 28.0354 50.9552 28.0354 50.9042 27.9844C50.8533 27.9335 50.7514 27.9844 50.5985 28.0354C50.4966 28.0354 50.3947 28.0354 50.2928 28.0354C50.1909 28.0354 50.0889 28.0354 49.987 28.0354C49.9361 28.0863 49.8342 28.0863 49.7832 28.1373C49.6813 28.1882 49.5284 28.1882 49.3756 28.1373C49.2737 28.0863 49.1717 28.0863 49.0698 28.1373C48.9679 28.1882 48.917 28.1882 48.866 28.1882C48.5603 28.2392 48.3055 28.2392 48.1017 28.1882C47.8979 28.1373 47.6431 28.1373 47.3883 28.1373C47.3374 28.1373 47.2864 28.1373 47.1845 28.1373C47.0826 28.1373 47.0316 28.1373 46.9297 28.1373C46.624 28.1882 46.3182 28.1882 46.0125 28.1373C45.7068 28.1373 45.3501 28.1373 45.0953 28.1373C44.7896 28.1882 44.4839 28.1882 44.1781 28.2392C43.8724 28.2902 43.5667 28.1882 43.3628 27.9844C43.3119 27.5258 43.3119 27.1182 43.3119 26.7615C43.3119 26.4048 43.3119 26.0481 43.21 25.6405C43.3628 25.4876 43.4138 25.3857 43.3628 25.2838C43.3119 25.1819 43.3119 25.08 43.2609 24.978C43.2609 24.6723 43.2609 24.3666 43.3119 24.1118C43.3628 23.857 43.3119 23.6532 43.2609 23.5003C43.3628 23.2456 43.4138 22.9908 43.3628 22.6851C43.3119 22.3793 43.2609 22.0736 43.21 21.7169C43.3119 21.615 43.3119 21.5131 43.3119 21.4112C43.3119 21.3093 43.3119 21.2073 43.3119 21.1054C43.3119 21.0545 43.3119 21.0035 43.2609 20.9016C43.21 20.7997 43.21 20.6978 43.159 20.5449C43.159 20.2392 43.159 19.9844 43.159 19.7806C43.159 19.5768 43.1081 19.322 43.1081 19.0672L43.0061 18.201C43.0061 18.0991 43.0061 17.9972 43.0061 17.8952C43.0061 17.7933 43.0061 17.6914 43.0061 17.5895C42.9552 17.4876 42.9552 17.4366 42.9042 17.3347C42.8533 17.2838 42.8533 17.1819 42.8533 17.08C42.8023 17.029 42.8023 16.9781 42.8533 16.9271C42.8533 16.8761 42.8533 16.7233 42.8023 16.5195C42.8023 16.4685 42.8023 16.4175 42.8533 16.3156C42.9042 16.2137 42.9042 16.1118 42.8533 15.908C42.8023 15.6532 42.8023 15.3984 42.8533 15.0927C42.9042 14.787 42.9042 14.5322 42.8533 14.2774C42.8533 14.0736 42.8023 13.8188 42.7514 13.615C42.7004 13.4112 42.6495 13.1564 42.6495 12.9016C42.5985 12.3921 42.5985 11.8825 42.5985 11.322C42.5985 10.7615 42.4966 10.3029 42.2418 9.99716C42.4456 9.69143 42.4966 9.43665 42.3947 9.23283C42.2928 9.02901 42.2418 8.82518 42.2418 8.57041C42.1909 8.4685 42.1909 8.41754 42.2418 8.31563C42.2928 8.26468 42.2928 8.16276 42.2418 8.06085C42.2928 7.70417 42.2928 7.39843 42.2928 7.14366C42.2928 6.88888 42.2928 6.6341 42.1908 6.32837C42.3437 6.07359 42.3437 5.81882 42.2928 5.56404C42.2418 5.30926 42.1908 5.05448 42.1908 4.85066C42.1908 4.6978 42.1909 4.54493 42.2418 4.44302C42.2928 4.29015 42.2928 4.18824 42.2928 4.03538C42.2928 3.93347 42.2928 3.83155 42.2418 3.72964C42.1909 3.62773 42.1909 3.57678 42.2418 3.47487C42.2418 3.11818 42.2418 2.76149 42.2928 2.45576C42.3437 2.15003 42.2418 1.79334 42.1399 1.48761C42.1909 1.33474 42.2418 1.23283 42.2418 1.18187C42.2928 1.13092 42.2418 1.02901 42.1908 0.87614C42.1399 0.774229 42.0889 0.672318 41.9361 0.570407C41.7832 0.468496 41.6813 0.366586 41.5284 0.366586C41.4775 0.31563 41.4265 0.31563 41.3246 0.366586C41.2227 0.417541 41.1718 0.417541 41.0698 0.417541C40.5603 0.468497 39.9488 0.468497 39.2864 0.468497C38.624 0.417541 38.1144 0.468497 37.7577 0.519453C37.6558 0.468497 37.6049 0.468497 37.6049 0.519453C37.5539 0.570408 37.5539 0.570407 37.503 0.621363C37.452 0.672318 37.401 0.672318 37.3501 0.621363C37.2991 0.621363 37.1463 0.570408 36.9934 0.468497C36.7386 0.417541 36.5348 0.417541 36.3819 0.570407C36.2291 0.672318 36.0762 0.774229 35.9743 0.87614C35.9233 1.28378 35.9233 1.64047 35.9233 1.99716C35.9743 2.35385 35.9743 2.76149 35.9233 3.22009C35.9743 3.322 36.0252 3.42391 36.1272 3.47487C36.2291 3.52582 36.28 3.62773 36.28 3.7806C36.2291 3.93347 36.2291 4.13729 36.28 4.34111C36.331 4.54493 36.3819 4.6978 36.3819 4.90162C36.4329 5.00353 36.4329 5.05448 36.3819 5.15639C36.331 5.25831 36.331 5.41117 36.3819 5.66595C36.4329 5.81881 36.4329 5.97168 36.4329 6.1755C36.4329 6.37932 36.4329 6.53219 36.4329 6.68506V7.29652C36.4329 7.34748 36.4329 7.39843 36.4329 7.50034C36.4329 7.60226 36.4329 7.75512 36.4329 7.95894C36.4329 8.11181 36.4329 8.21372 36.4329 8.31563C36.4329 8.41754 36.4329 8.57041 36.4839 8.67232C36.5348 8.82519 36.5348 9.02901 36.5858 9.18187C36.6367 9.3857 36.6877 9.58952 36.6877 9.79334C36.7386 9.94621 36.7386 10.0991 36.6877 10.3029C36.6877 10.5067 36.6877 10.6596 36.6877 10.8124C36.6877 10.8634 36.6877 10.9653 36.6877 11.0672C36.6877 11.1691 36.6877 11.2201 36.6877 11.322C36.6877 11.4239 36.6877 11.5258 36.6367 11.6277C36.5858 11.7296 36.5858 11.7806 36.5858 11.8316C36.6367 11.9335 36.6367 12.0354 36.6877 12.1373C36.7386 12.2392 36.7386 12.3411 36.7386 12.443C36.7896 12.7488 36.8405 13.0545 36.8405 13.4112C36.8915 13.7679 36.8405 14.0736 36.7896 14.3793C36.8915 14.4812 36.9424 14.5831 36.9424 14.6851C36.9424 14.787 36.9934 14.8889 37.0444 15.0417V15.5003V15.7551C37.0953 15.9589 37.0953 16.2137 37.1463 16.4175C37.1972 16.6214 37.1972 16.8761 37.2482 17.1309C37.2991 17.4876 37.2991 17.7933 37.2482 18.15C37.1972 18.5067 37.1972 18.8634 37.2482 19.2201C37.2482 19.322 37.2482 19.373 37.2991 19.4749C37.3501 19.5258 37.3501 19.6277 37.401 19.7296C37.401 19.8316 37.401 19.9335 37.401 20.0354C37.401 20.1373 37.401 20.2392 37.401 20.3921C37.452 20.5959 37.452 20.8507 37.452 21.0545C37.452 21.2583 37.503 21.4621 37.5539 21.6659C37.5539 21.7679 37.5539 21.8698 37.6049 21.9717C37.6558 22.0736 37.6558 22.1755 37.7068 22.2774C37.7577 22.6851 37.7577 22.9908 37.7068 23.2965C37.7068 23.6023 37.7068 23.857 37.7577 24.0609C37.8087 24.4175 37.8596 24.7233 37.9106 25.08C37.9616 25.4366 37.9616 25.7933 37.9616 26.0991C37.9616 26.201 37.9616 26.3029 37.9106 26.4048C37.8596 26.5067 37.8596 26.6086 37.8596 26.7105C37.9106 26.8634 37.9106 26.9653 37.9616 27.1182C38.0125 27.2201 38.0125 27.373 38.0125 27.5258C38.0635 27.7296 38.0635 27.9844 38.0125 28.2392C38.0125 28.494 38.0125 28.7997 38.0125 29.0545C37.9616 29.1564 37.9616 29.2583 37.9106 29.4112C37.8596 29.5131 37.8597 29.6659 37.8087 29.7679C37.7577 29.9717 37.7577 30.2265 37.8087 30.4303C37.8597 30.6341 37.8597 30.8889 37.8087 31.0927C37.8087 31.2456 37.8596 31.3984 37.9616 31.4494C38.0635 31.5003 38.1144 31.7551 38.0635 32.1118C38.0125 32.2137 37.9616 32.2647 37.9106 32.3156C37.8596 32.3666 37.8596 32.5195 37.9106 32.7742C37.9616 32.9271 38.0635 33.08 38.1654 33.1309C38.2673 33.2328 38.3692 33.3347 38.4711 33.4876C38.6749 33.5386 38.8788 33.5386 39.0316 33.5386C39.1845 33.5386 39.3374 33.5386 39.4902 33.5895C39.6431 33.5895 39.694 33.5386 39.745 33.4876C39.796 33.4367 39.8979 33.3857 39.9998 33.3857C40.1017 33.6914 40.3055 33.7933 40.5603 33.7424C40.8151 33.6914 41.0698 33.6914 41.3246 33.6914C41.4775 33.6914 41.6303 33.7424 41.7323 33.7933C41.8342 33.8443 41.987 33.8953 42.0889 33.9462C42.1909 33.8443 42.2928 33.7933 42.3947 33.7933C42.4966 33.7424 42.5985 33.7424 42.7004 33.6914C42.9552 33.8443 43.159 33.8953 43.4138 33.9462C43.6176 33.9462 43.8724 33.9462 44.0762 33.9462C44.4329 33.8953 44.7386 33.9462 45.0444 33.9462C45.3501 33.9972 45.6049 33.9972 45.8596 33.9462C46.2673 33.8953 46.7259 33.8443 47.2864 33.8952C47.8469 33.8952 48.3565 33.8443 48.866 33.6405C49.1717 33.6405 49.4775 33.6405 49.7323 33.6405C50.038 33.6405 50.2928 33.6405 50.4966 33.6405C50.5985 33.5895 50.6495 33.5895 50.7514 33.5386C50.8533 33.4876 50.9042 33.4367 51.0061 33.4367C51.1081 33.3857 51.159 33.3857 51.2609 33.4367C51.3628 33.4367 51.5157 33.4366 51.7195 33.3347C52.0762 33.2328 52.3819 33.1309 52.6877 33.029C52.8405 32.9781 52.9934 32.9781 53.1463 33.029C53.2991 33.08 53.401 32.9781 53.5539 32.8761C53.7068 32.6723 53.8087 32.3156 53.8596 31.908C53.9106 31.5003 53.9106 31.0417 53.8596 30.6341C54.0635 30.5322 54.0125 30.4303 54.0125 30.3793Z" fill="#AD3919"/>
<path d="M74.2918 30.3793C74.2409 30.2774 74.2409 30.2265 74.2409 30.1245C74.1899 29.9717 74.2409 29.8698 74.2409 29.7679C74.2918 29.6659 74.2918 29.564 74.2918 29.4112C74.2409 29.3093 74.2409 29.2074 74.1899 29.1054C74.139 29.0035 74.1389 28.9016 74.1389 28.7997C74.088 28.6978 74.088 28.5959 74.088 28.443C74.088 28.3411 74.037 28.2392 74.037 28.0863C73.9351 27.9844 73.8332 27.8825 73.6294 27.7806C73.4256 27.6787 73.1198 27.6787 72.7122 27.7806C72.5084 27.8316 72.3555 27.8825 72.1517 27.8825C71.9988 27.8825 71.6931 27.9335 71.3364 28.0354C71.2854 28.0354 71.2345 28.0354 71.1835 27.9844C71.1326 27.9335 71.0307 27.9844 70.8778 28.0354C70.7759 28.0354 70.674 28.0354 70.5721 28.0354C70.4702 28.0354 70.3682 28.0354 70.2663 28.0354C70.2154 28.0863 70.1135 28.0863 70.0625 28.1373C69.9606 28.1882 69.8077 28.1882 69.6549 28.1373C69.553 28.0863 69.4511 28.0863 69.3491 28.1373C69.2472 28.1882 69.1963 28.1882 69.1453 28.1882C68.8396 28.2392 68.5848 28.2392 68.381 28.1882C68.1772 28.1373 67.9224 28.1373 67.6676 28.1373C67.6166 28.1373 67.5657 28.1373 67.4638 28.1373C67.3619 28.1373 67.3109 28.1373 67.209 28.1373C66.9033 28.1882 66.5975 28.1882 66.2918 28.1373C65.9861 28.1373 65.6294 28.1373 65.3746 28.1373C65.0689 28.1882 64.7632 28.1882 64.4574 28.2392C64.1517 28.2902 63.846 28.1882 63.6421 27.9844C63.5912 27.5258 63.5912 27.1182 63.5912 26.7615C63.5912 26.4048 63.5912 26.0481 63.4893 25.6405C63.6421 25.4876 63.6931 25.3857 63.6421 25.2838C63.5912 25.1819 63.5912 25.08 63.5402 24.978C63.5402 24.6723 63.5402 24.3666 63.5912 24.1118C63.6421 23.857 63.5912 23.6532 63.5402 23.5003C63.6421 23.2456 63.6931 22.9908 63.6421 22.6851C63.5912 22.3793 63.5402 22.0736 63.4893 21.7169C63.5912 21.615 63.5912 21.5131 63.5912 21.4112C63.5912 21.3093 63.5912 21.2073 63.5912 21.1054C63.5912 21.0545 63.5912 21.0035 63.5402 20.9016C63.4893 20.7997 63.4893 20.6978 63.4383 20.5449C63.4383 20.2392 63.4383 19.9844 63.4383 19.7806C63.4383 19.5768 63.3874 19.322 63.3874 19.0672L63.2855 18.201C63.2855 18.0991 63.2855 17.9972 63.2855 17.8952C63.2855 17.7933 63.2855 17.6914 63.2855 17.5895C63.2345 17.4876 63.2345 17.4366 63.1835 17.3347C63.1326 17.2838 63.1326 17.1819 63.1326 17.08C63.0816 17.029 63.0816 16.9781 63.1326 16.9271C63.1326 16.8761 63.1326 16.7233 63.0816 16.5195C63.0816 16.4685 63.0816 16.4175 63.1326 16.3156C63.1835 16.2137 63.1835 16.1118 63.1326 15.908C63.0816 15.6532 63.0816 15.3984 63.1326 15.0927C63.1835 14.787 63.1835 14.5322 63.1326 14.2774C63.1326 14.0736 63.0816 13.8188 63.0307 13.615C62.9797 13.4112 62.9288 13.1564 62.9288 12.9016C62.8778 12.3921 62.8778 11.8825 62.8778 11.322C62.8778 10.7615 62.7759 10.3029 62.5211 9.99716C62.7249 9.69143 62.7759 9.43665 62.674 9.23283C62.5721 9.02901 62.5211 8.82518 62.5211 8.57041C62.4702 8.4685 62.4702 8.41754 62.5211 8.31563C62.5721 8.26468 62.5721 8.16276 62.5211 8.06085C62.5721 7.70417 62.5721 7.39843 62.5721 7.14366C62.5721 6.88888 62.5721 6.6341 62.4702 6.32837C62.623 6.07359 62.623 5.81882 62.5721 5.56404C62.5211 5.30926 62.4702 5.05448 62.4702 4.85066C62.4702 4.6978 62.4702 4.54493 62.5211 4.44302C62.5721 4.29015 62.5721 4.18824 62.5721 4.03538C62.5721 3.93347 62.5721 3.83155 62.5211 3.72964C62.4702 3.62773 62.4702 3.57678 62.5211 3.47487C62.5211 3.11818 62.5211 2.76149 62.5721 2.45576C62.623 2.15003 62.5211 1.79334 62.4192 1.48761C62.4702 1.33474 62.5211 1.23283 62.5211 1.18187C62.5721 1.13092 62.5211 1.02901 62.4702 0.87614C62.4192 0.774229 62.3683 0.672318 62.2154 0.570407C62.0625 0.468496 61.9606 0.366586 61.8077 0.366586C61.7568 0.31563 61.7058 0.31563 61.6039 0.366586C61.502 0.417541 61.451 0.417541 61.3491 0.417541C60.8396 0.468497 60.2281 0.468497 59.5657 0.468497C58.9033 0.417541 58.3937 0.468497 58.037 0.519453C57.9351 0.468497 57.8842 0.468497 57.8842 0.519453C57.8332 0.570408 57.8332 0.570407 57.7823 0.621363C57.7313 0.672318 57.6804 0.672318 57.6294 0.621363C57.5784 0.621363 57.4256 0.570408 57.2727 0.468497C57.0179 0.417541 56.8141 0.417541 56.6612 0.570407C56.5084 0.672318 56.3555 0.774229 56.2536 0.87614C56.2026 1.28378 56.2026 1.64047 56.2026 1.99716C56.2536 2.35385 56.2536 2.76149 56.2026 3.22009C56.2536 3.322 56.3046 3.42391 56.4065 3.47487C56.5084 3.52582 56.5593 3.62773 56.5593 3.7806C56.5084 3.93347 56.5084 4.13729 56.5593 4.34111C56.6103 4.54493 56.6612 4.6978 56.6612 4.90162C56.7122 5.00353 56.7122 5.05448 56.6612 5.15639C56.6103 5.25831 56.6103 5.41117 56.6612 5.66595C56.7122 5.81881 56.7122 5.97168 56.7122 6.1755C56.7122 6.37932 56.7122 6.53219 56.7122 6.68506V7.29652C56.7122 7.34748 56.7122 7.39843 56.7122 7.50034C56.7122 7.60226 56.7122 7.75512 56.7122 7.95894C56.7122 8.11181 56.7122 8.21372 56.7122 8.31563C56.7122 8.41754 56.7122 8.57041 56.7631 8.67232C56.8141 8.82519 56.8141 9.02901 56.8651 9.18187C56.916 9.3857 56.967 9.58952 56.967 9.79334C57.0179 9.94621 57.0179 10.0991 56.967 10.3029C56.967 10.5067 56.967 10.6596 56.967 10.8124C56.967 10.8634 56.967 10.9653 56.967 11.0672C56.967 11.1691 56.967 11.2201 56.967 11.322C56.967 11.4239 56.967 11.5258 56.916 11.6277C56.8651 11.7296 56.8651 11.7806 56.8651 11.8316C56.916 11.9335 56.916 12.0354 56.967 12.1373C57.0179 12.2392 57.0179 12.3411 57.0179 12.443C57.0689 12.7488 57.1198 13.0545 57.1198 13.4112C57.1708 13.7679 57.1198 14.0736 57.0689 14.3793C57.1708 14.4812 57.2217 14.5831 57.2217 14.6851C57.2217 14.787 57.2727 14.8889 57.3237 15.0417V15.5003V15.7551C57.3746 15.9589 57.3746 16.2137 57.4256 16.4175C57.4765 16.6214 57.4765 16.8761 57.5275 17.1309C57.5784 17.4876 57.5784 17.7933 57.5275 18.15C57.4765 18.5067 57.4765 18.8634 57.5275 19.2201C57.5275 19.322 57.5275 19.373 57.5784 19.4749C57.6294 19.5258 57.6294 19.6277 57.6804 19.7296C57.6804 19.8316 57.6804 19.9335 57.6804 20.0354C57.6804 20.1373 57.6804 20.2392 57.6804 20.3921C57.7313 20.5959 57.7313 20.8507 57.7313 21.0545C57.7313 21.2583 57.7823 21.4621 57.8332 21.6659C57.8332 21.7679 57.8332 21.8698 57.8842 21.9717C57.9351 22.0736 57.9351 22.1755 57.9861 22.2774C58.037 22.6851 58.037 22.9908 57.9861 23.2965C57.9861 23.6023 57.9861 23.857 58.037 24.0609C58.088 24.4175 58.139 24.7233 58.1899 25.08C58.2409 25.4366 58.2409 25.7933 58.2409 26.0991C58.2409 26.201 58.2409 26.3029 58.1899 26.4048C58.139 26.5067 58.139 26.6086 58.139 26.7105C58.1899 26.8634 58.1899 26.9653 58.2409 27.1182C58.2918 27.2201 58.2918 27.373 58.2918 27.5258C58.3428 27.7296 58.3428 27.9844 58.2918 28.2392C58.2918 28.494 58.2918 28.7997 58.2918 29.0545C58.2409 29.1564 58.2409 29.2583 58.1899 29.4112C58.139 29.5131 58.1389 29.6659 58.088 29.7679C58.037 29.9717 58.037 30.2265 58.088 30.4303C58.1389 30.6341 58.1389 30.8889 58.088 31.0927C58.088 31.2456 58.1389 31.3984 58.2409 31.4494C58.3428 31.5003 58.3937 31.7551 58.3428 32.1118C58.2918 32.2137 58.2409 32.2647 58.1899 32.3156C58.139 32.3666 58.139 32.5195 58.1899 32.7742C58.2409 32.9271 58.3428 33.08 58.4447 33.1309C58.5466 33.2328 58.6485 33.3347 58.7504 33.4876C58.9542 33.5386 59.1581 33.5386 59.3109 33.5386C59.4638 33.5386 59.6166 33.5386 59.7695 33.5895C59.9224 33.5895 59.9733 33.5386 60.0243 33.4876C60.0752 33.4367 60.1772 33.3857 60.2791 33.3857C60.381 33.6914 60.5848 33.7933 60.8396 33.7424C61.0944 33.6914 61.3491 33.6914 61.6039 33.6914C61.7568 33.6914 61.9097 33.7424 62.0116 33.7933C62.1135 33.8443 62.2663 33.8953 62.3682 33.9462C62.4702 33.8443 62.5721 33.7933 62.674 33.7933C62.7759 33.7424 62.8778 33.7424 62.9797 33.6914C63.2345 33.8443 63.4383 33.8953 63.6931 33.9462C63.8969 33.9462 64.1517 33.9462 64.3555 33.9462C64.7122 33.8953 65.0179 33.9462 65.3237 33.9462C65.6294 33.9972 65.8842 33.9972 66.1389 33.9462C66.5466 33.8953 67.0052 33.8443 67.5657 33.8952C68.1262 33.8952 68.6358 33.8443 69.1453 33.6405C69.4511 33.6405 69.7568 33.6405 70.0116 33.6405C70.3173 33.6405 70.5721 33.6405 70.7759 33.6405C70.8778 33.5895 70.9288 33.5895 71.0307 33.5386C71.1326 33.4876 71.1835 33.4367 71.2854 33.4367C71.3874 33.3857 71.4383 33.3857 71.5402 33.4367C71.6421 33.4367 71.795 33.4366 71.9988 33.3347C72.3555 33.2328 72.6612 33.1309 72.967 33.029C73.1198 32.9781 73.2727 32.9781 73.4256 33.029C73.5784 33.08 73.6803 32.9781 73.8332 32.8761C73.9861 32.6723 74.088 32.3156 74.1389 31.908C74.1899 31.5003 74.1899 31.0417 74.1389 30.6341C74.3428 30.5322 74.2918 30.4303 74.2918 30.3793Z" fill="#AD3919"/>
<path d="M95.6432 3.32282C95.3375 3.37377 94.9808 3.32282 94.5732 3.27186C94.4713 3.22091 94.4203 3.22091 94.3184 3.16995C94.2165 3.119 94.0636 3.119 93.8598 3.16995C93.5541 3.119 93.1974 3.06804 92.8407 3.01709C92.484 2.96613 92.1783 2.91518 91.9235 2.91518C91.7197 2.86422 91.5668 2.86422 91.363 2.91518C91.1591 2.96613 91.0063 2.96613 90.8534 2.96613C90.6496 2.91518 90.4458 2.91518 90.242 2.91518C90.0381 2.91518 89.8343 2.86422 89.6305 2.81327C89.4776 2.81327 89.3757 2.81326 89.2738 2.76231C89.1719 2.71135 89.019 2.71135 88.9171 2.71135C88.8662 2.71135 88.7643 2.71135 88.7133 2.71135C88.6114 2.71135 88.4585 2.71135 88.1528 2.6604C87.8471 2.71135 87.5923 2.71135 87.4394 2.76231C87.2356 2.81326 87.0827 2.81326 86.8789 2.76231C86.5732 2.71135 86.2674 2.6604 86.0126 2.60944C85.7069 2.55849 85.4521 2.45658 85.1464 2.40562C84.1273 2.30371 83.0063 2.35467 81.8853 2.45658C80.7643 2.55849 79.5923 2.55849 78.4203 2.30371C78.3184 2.35467 78.2165 2.45658 78.2165 2.55849C78.1655 2.6604 78.1146 2.76231 78.0636 2.86422C78.0127 3.01709 77.9617 3.16995 77.9107 3.27186C77.8598 3.42473 77.8088 3.5776 77.8088 3.67951C77.8088 3.83237 77.8598 3.98524 77.9107 4.18906C77.9617 4.39288 77.9617 4.64766 77.9617 4.95339C77.9107 5.36103 77.9107 5.76868 77.9617 6.17632C78.0127 6.53301 78.0127 6.8897 77.9617 7.24639C77.9617 7.75594 77.9108 8.26549 77.8088 8.72409C77.7069 9.23365 77.7579 9.64129 77.9107 9.99798C77.7579 10.2018 77.7069 10.4056 77.7069 10.7114C77.7069 11.0171 77.656 11.3738 77.5031 11.8324C77.4522 11.9343 77.4522 12.0362 77.5031 12.1381C77.5541 12.24 77.5541 12.3419 77.5541 12.4948C77.5541 12.5967 77.5541 12.6477 77.5031 12.7496C77.4522 12.8515 77.4521 12.9534 77.4521 13.0043C77.4521 13.2082 77.4522 13.4629 77.5031 13.7177C77.5541 13.9725 77.5541 14.2273 77.605 14.533C77.605 14.6349 77.605 14.7368 77.5541 14.7878C77.5031 14.8387 77.5541 15.0426 77.656 15.3483C77.5541 15.5012 77.5031 15.6031 77.5541 15.705C77.605 15.8069 77.656 15.9088 77.7069 16.0617C77.605 16.1126 77.605 16.2655 77.605 16.5203C77.605 16.6222 77.605 16.7241 77.656 16.826C77.7069 16.9279 77.7069 17.0298 77.7579 17.0808C77.7579 17.1827 77.7579 17.2336 77.7069 17.3356C77.656 17.4375 77.656 17.4884 77.656 17.5903C77.656 17.7942 77.656 17.947 77.656 18.0999C77.656 18.2528 77.656 18.4056 77.605 18.6094C77.605 18.7114 77.605 18.8133 77.656 18.9152C77.7069 19.0171 77.7069 19.119 77.7069 19.2209C77.656 19.3738 77.656 19.4757 77.605 19.5776C77.5541 19.6795 77.5541 19.8324 77.605 19.9343C77.605 20.291 77.656 20.5967 77.7069 20.9024C77.7579 21.2082 77.7579 21.4629 77.605 21.7687C77.7579 21.8706 77.8088 22.0235 77.7579 22.2273C77.7069 22.4311 77.7069 22.6349 77.7579 22.8387C77.7579 22.9407 77.7579 23.0426 77.7069 23.1954C77.656 23.2973 77.656 23.3993 77.656 23.5521C77.656 23.654 77.656 23.705 77.7069 23.7559C77.7579 23.8069 77.7579 23.9088 77.7069 24.1126C77.7579 24.2145 77.7579 24.3164 77.8088 24.4184C77.8598 24.5203 77.8598 24.6222 77.8598 24.775C77.8088 24.9279 77.7579 25.0808 77.7069 25.2846C77.656 25.4375 77.656 25.5903 77.656 25.7432C77.656 25.7942 77.656 25.8451 77.7069 25.947C77.7579 26.0489 77.7579 26.1508 77.7069 26.3037C77.605 26.5585 77.656 26.8133 77.7069 27.068C77.8088 27.3228 77.8598 27.5776 77.9107 27.7814C77.9617 27.9343 77.9617 27.9852 77.9107 28.0362C77.8598 28.0362 77.8598 28.1381 77.9107 28.291C77.9617 28.3929 77.9617 28.4438 78.0127 28.5457C78.0636 28.6477 78.0636 28.6986 78.0636 28.8005C78.0636 28.9024 78.0636 29.0043 78.0127 29.1063C77.9617 29.2082 77.9617 29.412 77.9617 29.6668C77.9107 30.0235 77.9617 30.3292 78.0127 30.584C78.0636 30.8897 78.0636 31.1445 78.0127 31.4502C78.0636 31.5521 78.1146 31.705 78.1655 31.8069C78.2165 31.9088 78.2674 32.0617 78.2674 32.2145C78.3184 32.3164 78.3184 32.4184 78.2674 32.5203C78.2165 32.6222 78.2165 32.7241 78.2674 32.877C78.2674 32.9789 78.2674 33.0808 78.3184 33.1827C78.3694 33.2846 78.3693 33.3865 78.4203 33.4375C78.4713 33.5903 78.5222 33.6922 78.5222 33.7942C78.5732 33.8961 78.6751 34.0489 78.828 34.1508C79.0318 34.2018 79.1846 34.2018 79.3884 34.1508C79.5413 34.0999 79.7451 34.0489 79.949 33.998C79.9999 33.998 80.0509 33.998 80.1528 33.998C80.2547 33.998 80.3566 33.998 80.4585 33.998C80.5604 33.998 80.6623 33.998 80.7642 34.0489C80.8662 34.0999 80.9681 34.0489 81.07 33.998C81.2738 34.1508 81.5286 34.2018 81.7834 34.2528C82.0381 34.2528 82.242 34.3037 82.4967 34.3547C82.5986 34.3547 82.7006 34.3547 82.8025 34.4056C82.9044 34.4566 83.0572 34.4566 83.2101 34.4056C83.363 34.4056 83.4649 34.4056 83.5668 34.4566C83.6687 34.5075 83.7706 34.5075 83.9235 34.5075C84.1273 34.5585 84.3311 34.5075 84.5349 34.5075C84.7388 34.4566 84.9426 34.4566 85.1974 34.4566C85.4012 34.4056 85.656 34.4056 85.8598 34.4566C86.1146 34.5075 86.3184 34.5075 86.5222 34.4566C86.777 34.4566 87.0318 34.4566 87.2865 34.4056C87.5413 34.3547 87.7451 34.3547 87.9999 34.4056C88.3566 34.4566 88.6623 34.4566 89.019 34.4566C89.3248 34.4566 89.6305 34.5075 89.8853 34.5585C90.0381 34.5585 90.14 34.5075 90.191 34.4566C90.242 34.4056 90.3439 34.3547 90.4967 34.4056C90.6496 34.5075 90.8534 34.5585 91.1082 34.5585C91.363 34.5585 91.6687 34.6094 91.9235 34.6094C92.1783 34.6604 92.484 34.6604 92.7388 34.7114C92.9935 34.7623 93.2483 34.7623 93.4521 34.7623C93.605 34.7623 93.7579 34.7623 93.8598 34.7114C93.9617 34.6604 94.1146 34.6604 94.2674 34.6604C94.3693 34.7113 94.4713 34.7113 94.5732 34.7623C94.6751 34.8133 94.777 34.8133 94.8789 34.8133C94.9808 34.8133 95.0827 34.7623 95.1846 34.7114C95.2865 34.6604 95.3884 34.6094 95.4394 34.5585C95.5413 34.5075 95.6432 34.4566 95.7451 34.4056C95.847 34.3547 95.898 34.3037 95.949 34.2018C95.9999 33.4884 96.0509 32.775 96.1018 32.1126C96.2037 31.4502 96.2037 30.7878 96.1528 30.1254C96.1018 30.0235 96.0509 29.9215 95.9999 29.9215C95.898 29.8706 95.898 29.8196 95.898 29.6668C95.7961 29.6158 95.7451 29.5139 95.7451 29.412C95.7451 29.3101 95.6942 29.2082 95.5923 29.1572C95.3375 29.1063 95.1337 29.1063 94.9808 29.1572C94.8279 29.2082 94.6751 29.2591 94.5732 29.1572C94.5222 29.1572 94.5222 29.1572 94.4713 29.2082C94.4203 29.2591 94.3184 29.2082 94.1655 29.1572C94.1146 29.1572 94.0636 29.1572 93.9617 29.1572C93.8598 29.1572 93.7579 29.1572 93.5541 29.1572C93.4521 29.1572 93.3502 29.1572 93.2483 29.2082C93.1464 29.2591 93.0445 29.2591 92.9426 29.3101C92.7388 29.361 92.535 29.361 92.3311 29.361C92.1273 29.361 91.9235 29.361 91.6687 29.361C91.5158 29.361 91.312 29.361 91.1591 29.3101C91.0063 29.2591 90.7515 29.2591 90.4458 29.3101C90.242 29.2591 89.9872 29.3101 89.7324 29.3101C89.4776 29.361 89.2738 29.412 89.07 29.4629C88.8662 29.5139 88.7133 29.5139 88.5095 29.4629C88.3566 29.412 88.1528 29.361 87.898 29.361C87.5413 29.361 87.0827 29.412 86.6241 29.4629C86.1655 29.5139 85.656 29.5649 85.1974 29.5649C84.8407 29.5649 84.484 29.5649 84.1783 29.6158C83.8725 29.6668 83.6178 29.5649 83.363 29.4629C83.4139 29.3101 83.4139 29.1063 83.363 28.9534C83.312 28.8005 83.312 28.6477 83.312 28.4948C83.312 28.3929 83.312 28.3419 83.363 28.24C83.4139 28.1381 83.4139 28.0871 83.4649 27.9852C83.5158 27.7814 83.5668 27.5776 83.5668 27.4247C83.5668 27.2719 83.5668 27.068 83.5668 26.9152C83.5668 26.7114 83.5668 26.4566 83.5668 26.2018C83.5668 25.947 83.5668 25.6922 83.5158 25.4884C83.5158 25.3356 83.4649 25.1827 83.4139 25.0298C83.5668 24.826 83.6178 24.6222 83.6178 24.3674C83.6178 24.1126 83.6687 23.7559 83.7706 23.2973C83.8216 23.0426 83.8725 22.7878 83.9744 22.533C84.0254 22.2782 84.0764 22.0235 84.0764 21.8196C84.1273 21.7177 84.0764 21.6158 84.0764 21.5139C84.0254 21.412 84.0254 21.3101 84.0254 21.2082C84.0254 21.1063 84.0254 21.0553 84.0764 20.9534C84.1273 20.8515 84.1273 20.8005 84.1783 20.6986C84.2292 20.5457 84.2292 20.3929 84.1783 20.24C84.1273 20.0871 84.2292 19.9852 84.3311 19.8833C84.433 19.7814 84.6369 19.7814 84.7897 19.8324C84.9426 19.8833 85.1464 19.8833 85.2483 19.8833C85.3502 19.8833 85.4521 19.8833 85.5541 19.8324C85.656 19.7814 85.7579 19.7814 85.8598 19.7814C86.0127 19.7305 86.1146 19.7814 86.2165 19.7814C86.3184 19.8324 86.3693 19.7814 86.4203 19.6795C86.5732 19.8324 86.777 19.8833 87.0318 19.8324C87.2865 19.7814 87.4904 19.7814 87.6432 19.9343C87.7451 19.8324 87.847 19.7814 88.0509 19.7814C88.2547 19.7814 88.4076 19.7814 88.5095 19.6795C88.6623 19.6285 88.7133 19.6795 88.7643 19.7814C88.8152 19.8833 88.8662 19.9343 89.019 19.8833C89.2229 19.7814 89.4267 19.7305 89.6305 19.6795C89.8343 19.6285 90.0891 19.6285 90.3439 19.7305C90.4967 19.6795 90.6496 19.6285 90.8025 19.5776C90.9553 19.4757 91.1592 19.4757 91.2611 19.5266C91.5158 19.5776 91.7197 19.5776 91.8725 19.5776C92.0254 19.5776 92.1783 19.6285 92.2802 19.6795C92.433 19.6285 92.6369 19.5776 92.7897 19.5776C92.9426 19.5776 93.1464 19.6285 93.2483 19.7305C93.3502 19.6285 93.4521 19.5776 93.656 19.5266C93.8598 19.5266 94.0636 19.4247 94.3693 19.2719C94.3184 19.4757 94.3693 19.5266 94.5222 19.4757C94.6241 19.4247 94.726 19.4247 94.777 19.4757C94.8789 19.5266 94.9808 19.5776 95.0827 19.6285C95.1846 19.6795 95.2865 19.6795 95.3885 19.6795C95.4904 19.6795 95.5413 19.6285 95.6432 19.5776C95.7451 19.5266 95.7961 19.5266 95.949 19.5266C96.0509 19.4247 96.1528 19.2719 96.2037 19.119C96.2547 18.9661 96.3057 18.8133 96.3566 18.6604C96.2547 18.3547 96.2037 18.0489 96.1528 17.7432C96.1018 17.4375 96.1018 17.1317 96.1528 16.775C96.1528 16.6731 96.1528 16.5712 96.2037 16.4693C96.2547 16.3674 96.2547 16.2145 96.2037 16.0617C96.2547 15.705 96.2547 15.4502 96.2547 15.1954C96.2547 14.9407 96.2037 14.7368 96.1018 14.4821C96.0509 14.3801 95.9999 14.3292 95.9999 14.2273C95.9999 14.1254 95.898 14.0744 95.7961 14.0744C95.6942 14.0235 95.5923 14.0235 95.4394 14.0744C95.3375 14.1254 95.1846 14.1254 95.0318 14.1763C94.8279 14.1763 94.5732 14.1763 94.3184 14.1254C94.0636 14.0744 93.7579 14.0744 93.2993 14.1254C93.1464 14.1254 93.0445 14.1254 92.9935 14.0744C92.8916 14.0235 92.7897 14.0235 92.6878 14.0744C92.5349 14.1254 92.433 14.1254 92.2802 14.1254C92.1273 14.1254 91.9744 14.1763 91.8725 14.2273C91.6177 14.0744 91.4139 14.0235 91.1591 14.0744C90.9044 14.1254 90.7006 14.1763 90.4458 14.1763C89.8853 14.2273 89.4267 14.2782 88.9681 14.2782C88.5095 14.2782 88.0509 14.2782 87.5923 14.2782C87.2865 14.2782 86.9808 14.2782 86.726 14.2782C86.4203 14.2782 86.1655 14.2782 85.8598 14.3292C85.7069 14.3292 85.5031 14.3292 85.3502 14.3292C85.1974 14.3292 84.9935 14.3292 84.7897 14.2782C84.484 14.2782 84.2292 14.2273 83.9744 14.1763C83.8725 14.0235 83.8725 13.8706 83.8725 13.6668C83.9235 13.5139 83.9235 13.361 83.9235 13.1572C83.9235 12.9534 83.9235 12.6986 83.8725 12.4438C83.8216 12.1891 83.8216 11.9852 83.8216 11.8324C83.8216 11.7305 83.8216 11.6795 83.8725 11.5776C83.9235 11.4757 83.9235 11.3738 83.9235 11.3228C83.8725 11.0171 83.8725 10.7114 83.8725 10.4056C83.8725 10.0999 83.8216 9.79416 83.8216 9.48842C83.7706 9.18269 83.7706 8.87696 83.7197 8.57123C83.6687 8.26549 83.7197 8.01072 83.8725 7.70498C84.3311 7.65403 84.7897 7.60307 85.1974 7.60307C85.605 7.60307 86.0127 7.65403 86.4203 7.70498C86.9299 7.75594 87.3884 7.80689 87.7961 7.80689C88.2037 7.85785 88.6114 7.85785 88.9681 7.90881H89.6814C89.8343 7.90881 89.9362 7.9088 90.0891 7.85785C90.191 7.80689 90.3439 7.80689 90.4458 7.85785C90.5986 7.85785 90.7005 7.9088 90.8534 7.95976C91.0063 8.01072 91.1082 8.06167 91.2611 8.11263C91.363 8.16358 91.4139 8.16358 91.5158 8.11263C91.6178 8.06167 91.6687 8.06167 91.7706 8.06167C92.0254 8.11263 92.2802 8.11263 92.535 8.16358C92.7897 8.21454 92.9935 8.21454 93.2483 8.11263C93.5031 8.31645 93.7069 8.3674 93.9617 8.31645C94.1655 8.26549 94.4203 8.31645 94.6241 8.46931C94.8789 8.3674 95.1846 8.3674 95.5413 8.46931C95.847 8.57123 96.1528 8.57123 96.3566 8.41836C96.4076 8.3674 96.4585 8.26549 96.5095 8.16358C96.5604 8.06167 96.6114 7.90881 96.6623 7.80689C96.7133 7.70498 96.7642 7.60307 96.8152 7.50116C96.8662 7.39925 96.9171 7.29734 96.9171 7.14447C96.9681 6.83874 96.9681 6.58396 96.9681 6.27823C96.9171 5.9725 96.9171 5.66677 96.9681 5.36104C96.9681 5.20817 97.019 5.10626 97.07 5.00435C97.1209 4.90244 97.1209 4.80053 96.9681 4.69861C97.1209 4.64766 97.2228 4.5967 97.2738 4.44384C97.3248 4.34193 97.3248 4.18906 97.3248 4.03619C97.3248 3.88333 97.2738 3.78142 97.2228 3.62855C97.1719 3.47568 97.1209 3.37377 97.019 3.32282C96.3566 3.32282 95.9999 3.27186 95.6432 3.32282Z" fill="#AD3919"/>
<path d="M123.313 33.5389C123.262 33.3861 123.211 33.1822 123.16 32.9784C123.007 32.9275 122.905 32.8765 122.803 32.7746C122.701 32.7236 122.599 32.6217 122.497 32.5708C122.548 32.4179 122.497 32.265 122.446 32.2141C122.395 32.1631 122.344 32.0612 122.293 31.9084C122.141 31.8574 122.039 31.7555 121.988 31.6026C121.937 31.4498 121.835 31.2459 121.682 31.0421C121.58 30.8892 121.478 30.7364 121.376 30.5835C121.274 30.4306 121.223 30.2778 121.071 30.1249C120.918 29.972 120.765 29.8192 120.714 29.7173C120.561 29.4625 120.357 29.2077 120.204 29.0039C120.051 28.8001 119.899 28.5453 119.797 28.2905C119.695 28.2396 119.593 28.1886 119.542 28.1377C119.491 28.0867 119.44 27.9848 119.338 27.9338C119.236 27.6281 119.134 27.3733 118.93 27.1695C118.727 26.9657 118.574 26.7619 118.421 26.558C118.421 26.4561 118.421 26.3542 118.37 26.3033C118.319 26.2523 118.319 26.1504 118.319 26.0485C118.217 25.9466 118.115 25.8956 118.013 25.7937C117.911 25.6918 117.86 25.6408 117.758 25.5389C117.707 25.3351 117.606 25.0803 117.504 24.9275C117.402 24.7236 117.249 24.5708 117.147 24.367C117.147 24.316 117.096 24.265 117.045 24.265C116.994 24.2141 116.892 24.1122 116.739 23.9084C116.688 23.8574 116.688 23.8064 116.688 23.7555C116.688 23.7045 116.586 23.6026 116.383 23.3988C116.23 23.195 116.128 22.9912 116.077 22.8383C115.873 22.7873 115.72 22.7364 115.669 22.5326C115.618 22.3797 115.516 22.1759 115.262 21.9211C115.109 21.8701 114.956 21.7682 114.854 21.6663C114.752 21.5644 114.701 21.4115 114.65 21.2587C114.497 21.1058 114.293 21.0039 114.141 20.902C113.988 20.8001 113.886 20.6982 113.937 20.4943C113.988 20.2905 114.09 20.1886 114.243 20.1886C114.395 20.1886 114.599 20.1886 114.803 20.1377C114.956 20.0867 115.109 20.0357 115.262 19.9338C115.414 19.8319 115.516 19.8319 115.669 19.8829C115.924 19.6791 116.23 19.5262 116.485 19.4243C116.79 19.3224 117.045 19.2205 117.3 19.1185C117.351 19.0676 117.351 19.0676 117.453 19.0166C117.504 18.9657 117.657 18.9147 117.809 18.7619C117.911 18.7109 117.962 18.6599 118.064 18.609C118.166 18.558 118.268 18.5071 118.319 18.4561C118.37 18.4052 118.421 18.4052 118.472 18.3542C118.523 18.3033 118.625 18.2523 118.829 18.1504C118.93 18.0994 118.981 18.0485 119.134 17.9975C119.236 17.9466 119.389 17.8447 119.644 17.6918C119.797 17.5899 119.899 17.5389 119.95 17.488C120 17.437 120.102 17.3351 120.153 17.2332C120.306 17.0294 120.408 16.8256 120.561 16.7236C120.663 16.6217 120.867 16.4689 121.071 16.316C121.071 16.1631 121.121 16.0612 121.172 16.0103C121.274 15.9593 121.274 15.8064 121.274 15.6536C121.427 15.6536 121.478 15.6026 121.529 15.5517C121.58 15.5007 121.58 15.3988 121.631 15.3478C121.835 15.0421 121.988 14.6854 122.039 14.3797C122.141 14.023 122.243 13.6663 122.344 13.3606C122.243 13.2587 122.192 13.1058 122.293 13.0039C122.344 12.851 122.395 12.6982 122.395 12.5963C122.395 12.4943 122.395 12.3415 122.344 12.1886C122.293 12.0867 122.344 11.9338 122.395 11.781C122.293 11.5771 122.243 11.3733 122.192 11.2205C122.141 11.0166 122.09 10.8128 122.141 10.609C121.937 10.4052 121.784 10.1504 121.784 9.74275C121.784 9.33511 121.682 8.97842 121.529 8.46887C121.427 8.41791 121.376 8.316 121.325 8.16313C121.274 8.01027 121.223 7.80645 121.071 7.55167C120.918 7.3988 120.816 7.29689 120.663 7.19498C120.51 7.09307 120.408 6.88925 120.357 6.68543C120.255 6.63447 120.204 6.58352 120.153 6.53256C120.102 6.48161 120 6.37969 119.848 6.27778C119.797 6.22683 119.746 6.17587 119.695 6.12492C119.644 6.02301 119.542 5.9211 119.389 5.76823C119.338 5.71727 119.287 5.66632 119.236 5.56441C119.185 5.51345 119.083 5.41154 118.93 5.25868C118.829 5.15676 118.727 5.05485 118.625 4.95294C118.523 4.85103 118.37 4.74912 118.268 4.64721C118.166 4.5453 118.013 4.44339 117.86 4.39243C117.707 4.34148 117.504 4.29052 117.402 4.23957C117.198 4.13766 116.943 4.03575 116.637 3.98479C116.332 3.93383 115.975 3.88288 115.618 3.88288C115.465 3.78097 115.313 3.67906 115.16 3.6281C115.007 3.57715 114.854 3.52619 114.701 3.47524C114.395 3.42428 114.09 3.32237 113.835 3.22046C113.529 3.11855 113.274 3.01664 112.969 2.96568C112.816 2.91473 112.714 2.86377 112.561 2.91473C112.408 2.91473 112.306 2.91473 112.153 2.91473C112.051 2.86377 112 2.86377 111.899 2.81282C111.797 2.76186 111.746 2.71091 111.644 2.71091C111.44 2.60899 111.185 2.55804 110.981 2.55804C110.727 2.50708 110.523 2.50708 110.319 2.45613C110.115 2.40517 109.86 2.40517 109.657 2.40517C109.453 2.40517 109.198 2.40517 108.994 2.35422C108.892 2.30326 108.79 2.30326 108.688 2.25231C108.586 2.20135 108.434 2.20135 108.332 2.25231C108.281 2.25231 108.23 2.25231 108.179 2.20135C108.128 2.1504 108.026 2.1504 107.771 2.1504C107.618 2.09944 107.414 2.09944 107.211 2.09944C107.007 2.09944 106.701 2.1504 106.344 2.20135C106.293 2.20135 106.192 2.20135 106.09 2.20135C105.988 2.20135 105.784 2.20135 105.58 2.25231C105.274 2.30326 105.02 2.35422 104.765 2.30326C104.51 2.30326 104.306 2.30326 104.051 2.35422C103.899 2.30326 103.797 2.20135 103.644 2.09944C103.542 1.99753 103.338 1.99753 103.134 2.04849C103.032 2.09944 102.981 2.1504 102.93 2.25231C102.879 2.30326 102.778 2.40517 102.727 2.45613C102.625 2.40517 102.523 2.45613 102.472 2.45613C102.421 2.50708 102.319 2.55804 102.268 2.60899C102.166 2.76186 102.115 2.91473 102.013 3.01664C101.911 3.1695 101.911 3.32237 101.911 3.47524C101.911 3.57715 101.962 3.67906 102.013 3.78097C102.064 3.88288 102.115 3.98479 102.115 4.13766C102.166 4.18861 102.166 4.29052 102.166 4.39243C102.166 4.49434 102.217 4.64721 102.319 4.90199C102.319 4.95294 102.319 5.05485 102.268 5.15676C102.217 5.25868 102.217 5.30963 102.217 5.41154C102.166 5.61536 102.166 5.87014 102.217 6.07396C102.268 6.27778 102.217 6.48161 102.166 6.68543C102.217 6.78734 102.268 6.88925 102.319 7.04212C102.37 7.14403 102.421 7.24594 102.421 7.34785C102.472 7.3988 102.421 7.44976 102.421 7.44976C102.37 7.50071 102.37 7.60262 102.421 7.80645C102.472 8.11218 102.472 8.316 102.421 8.46887C102.421 8.62173 102.37 8.82556 102.37 9.02938C102.37 9.13129 102.37 9.2332 102.421 9.28415C102.472 9.33511 102.421 9.38606 102.37 9.53893C102.37 9.58989 102.37 9.64084 102.421 9.64084C102.472 9.6918 102.421 9.79371 102.37 9.99753C102.37 10.0994 102.37 10.2523 102.421 10.3542C102.472 10.4561 102.472 10.6599 102.421 10.9657C102.421 11.1185 102.421 11.2205 102.421 11.3224C102.421 11.4243 102.421 11.4752 102.421 11.5771C102.472 11.781 102.472 11.9848 102.421 12.1886C102.37 12.3415 102.319 12.5453 102.319 12.7491C102.319 12.851 102.319 12.9529 102.37 13.0549C102.421 13.1568 102.37 13.3606 102.319 13.6154C102.268 13.9211 102.217 14.1759 102.217 14.4816C102.217 14.7873 102.166 15.0421 102.166 15.2969C102.115 15.4498 102.115 15.5517 102.166 15.6536C102.217 15.7555 102.217 15.8574 102.217 16.0103C102.217 16.1122 102.217 16.1631 102.166 16.265C102.115 16.367 102.115 16.4179 102.064 16.4689C102.013 16.7746 102.013 17.0294 102.013 17.2332C102.013 17.437 102.064 17.6408 102.064 17.8447C102.013 17.9975 102.013 18.0994 101.962 18.2013C101.911 18.3033 101.911 18.4561 101.86 18.558C101.962 18.609 102.013 18.9147 101.962 19.4752C101.962 19.6791 102.013 19.9338 102.064 20.2396C102.115 20.5453 102.166 20.7491 102.166 21.0039C102.166 21.1058 102.166 21.2077 102.115 21.3096C102.064 21.4115 102.064 21.4625 102.064 21.5644C102.115 21.6663 102.115 21.7173 102.166 21.8192C102.217 21.9211 102.217 22.074 102.166 22.3287C102.115 22.4816 102.115 22.5835 102.166 22.6854C102.217 22.7873 102.217 22.8892 102.217 23.0421C102.166 23.2459 102.166 23.3988 102.217 23.5517C102.217 23.7045 102.217 23.8574 102.217 24.0103C102.217 24.1122 102.217 24.2141 102.217 24.367C102.217 24.5198 102.217 24.7236 102.268 24.9784C102.319 25.0294 102.319 25.1313 102.268 25.2332C102.217 25.3351 102.217 25.3861 102.217 25.488C102.217 25.6408 102.217 25.7937 102.217 25.9466C102.217 26.0994 102.217 26.2523 102.217 26.4561C102.166 26.609 102.166 26.7109 102.166 26.8128C102.166 26.9147 102.166 27.0676 102.166 27.1695C102.166 27.3733 102.166 27.6281 102.166 27.8319C102.166 28.0357 102.166 28.2396 102.115 28.3415C102.013 28.4943 101.962 28.6982 102.064 28.851C102.115 29.0039 102.166 29.1568 102.166 29.3096C102.166 29.4625 102.166 29.6154 102.115 29.7682C102.064 29.9211 102.064 30.074 102.064 30.2268C102.064 30.3797 102.115 30.5326 102.166 30.7364C102.217 30.8892 102.217 31.0421 102.217 31.195C102.217 31.2969 102.217 31.3478 102.166 31.4498C102.115 31.5517 102.115 31.6536 102.064 31.7555C102.064 31.8574 102.064 32.0103 102.115 32.1122C102.166 32.265 102.166 32.4689 102.115 32.7746C102.064 32.8765 102.064 32.9784 102.115 33.0803C102.166 33.1822 102.166 33.2332 102.166 33.3351C101.962 33.6408 101.86 33.9466 101.962 34.3033C102.064 34.6599 102.115 35.1185 102.166 35.6791C102.217 35.73 102.319 35.73 102.37 35.73C102.472 35.6791 102.676 35.73 102.981 35.8319C103.236 35.8829 103.491 35.8319 103.746 35.781C104 35.73 104.255 35.6791 104.459 35.6281C104.714 35.781 104.969 35.781 105.223 35.73C105.478 35.6281 105.784 35.6281 106.09 35.6281C106.09 35.4752 106.192 35.3224 106.344 35.1695C106.497 35.0166 106.599 34.8638 106.65 34.6599C106.701 34.609 106.701 34.558 106.65 34.4561C106.599 34.4052 106.599 34.2523 106.548 34.0485C106.497 33.7427 106.497 33.488 106.548 33.3351C106.599 33.1822 106.65 32.9275 106.701 32.6217C106.752 32.5708 106.752 32.5198 106.701 32.4179C106.65 32.316 106.65 32.265 106.65 32.1631C106.65 32.1122 106.65 32.0612 106.701 32.0612C106.752 32.0103 106.701 31.9084 106.65 31.7045C106.701 31.5517 106.701 31.3988 106.752 31.2459C106.803 31.0931 106.803 30.8383 106.803 30.5326C106.854 30.3287 106.854 30.1759 106.854 29.972C106.854 29.7682 106.854 29.6154 106.854 29.3606C106.854 29.3096 106.854 29.2587 106.854 29.2077C106.854 29.1568 106.854 29.0039 106.854 28.8001C106.905 28.5963 106.905 28.2905 107.007 27.9848C107.058 27.6791 107.109 27.4243 107.058 27.2205C107.058 27.0166 107.007 26.8638 106.956 26.7109C106.905 26.609 106.854 26.4561 106.854 26.3033C106.803 26.2013 106.854 26.0994 106.854 25.9466C106.905 25.8447 106.905 25.7428 106.956 25.6408C107.007 25.488 106.956 25.3861 106.854 25.3861C106.752 25.3351 106.752 25.2332 106.803 25.1313C106.905 24.9275 106.956 24.6217 107.007 24.367C107.058 24.0612 107.109 23.7555 107.16 23.4498C107.211 23.195 107.211 22.9402 107.211 22.6854C107.16 22.4306 107.262 22.1759 107.364 21.972C107.72 22.023 107.975 22.1759 108.077 22.4306C108.485 22.6345 108.841 22.9402 109.147 23.2459C109.453 23.5517 109.809 23.8064 110.166 24.0103C110.319 24.316 110.523 24.5708 110.727 24.8256C110.93 25.0294 111.083 25.2842 111.236 25.5899C111.44 25.6408 111.542 25.6918 111.644 25.8447C111.695 25.9466 111.848 26.0485 112.051 26.0485C112.102 26.2523 112.204 26.4052 112.357 26.5071C112.51 26.609 112.612 26.7109 112.714 26.8638C112.765 26.9657 112.816 27.0166 112.816 27.1185C112.816 27.2205 112.867 27.3224 112.918 27.3733C113.02 27.6791 113.122 27.8319 113.172 27.9338C113.274 28.1377 113.376 28.3415 113.478 28.4434C113.58 28.5453 113.682 28.7491 113.733 28.9529C113.937 29.0039 114.09 29.1058 114.141 29.2077C114.243 29.3096 114.344 29.4625 114.446 29.5644C114.497 29.7682 114.548 29.972 114.65 30.1249C114.752 30.2778 114.854 30.4306 114.956 30.5835C115.007 30.6854 115.058 30.7873 115.058 30.8892C115.058 30.9912 115.109 31.0931 115.16 31.195C115.211 31.2969 115.313 31.4498 115.414 31.5517C115.516 31.6536 115.618 31.8064 115.72 31.9084C115.822 32.0612 115.873 32.1631 115.975 32.265C116.077 32.367 116.179 32.4689 116.23 32.6217C116.281 32.7746 116.383 32.9784 116.485 33.2332C116.586 33.488 116.739 33.7428 116.943 33.9466C116.994 33.9975 117.045 34.0994 117.096 34.2013C117.147 34.3033 117.198 34.3542 117.249 34.4561C117.351 34.609 117.504 34.8128 117.758 34.9657C117.809 35.1185 117.86 35.2205 117.962 35.3733C118.013 35.4752 118.115 35.6281 118.217 35.6791C118.37 35.6791 118.523 35.6791 118.625 35.6791C118.727 35.6791 118.879 35.6791 119.032 35.6281C119.134 35.5771 119.236 35.5262 119.338 35.4243C119.44 35.3733 119.542 35.3224 119.644 35.2714C119.95 35.1695 120.255 35.1695 120.561 35.1695C120.867 35.2205 121.223 35.1695 121.58 35.0676C121.733 35.2205 121.937 35.2714 122.243 35.1695C122.293 35.1695 122.344 35.1185 122.446 35.0676C122.497 35.0166 122.65 34.9147 122.854 34.8128C123.109 34.6599 123.313 34.4561 123.364 34.3033C123.364 33.8447 123.364 33.6918 123.313 33.5389ZM117.453 12.1377C117.402 12.1886 117.351 12.3415 117.402 12.5963C117.249 12.8001 117.147 13.0549 117.096 13.3096C116.994 13.6154 116.943 13.8701 116.841 14.1249C116.79 14.2268 116.739 14.2778 116.637 14.2778C116.536 14.2778 116.434 14.3287 116.383 14.3797C116.332 14.6854 116.179 14.8892 115.924 14.9402C115.669 14.9912 115.516 15.144 115.414 15.3988C115.262 15.4498 115.058 15.4498 114.854 15.5007C114.65 15.5517 114.344 15.6536 113.988 15.8064C113.733 15.9084 113.325 16.0612 112.816 16.265C112.765 16.316 112.663 16.316 112.561 16.316C112.459 16.316 112.255 16.4179 111.95 16.5198C111.899 16.5198 111.797 16.5198 111.746 16.5198C111.644 16.5198 111.491 16.5708 111.287 16.6217C111.134 16.6727 111.032 16.6727 110.879 16.6727C110.778 16.6727 110.625 16.6727 110.472 16.6727C110.217 16.7236 109.962 16.7236 109.707 16.6727C109.453 16.6217 109.249 16.5708 108.943 16.5708C108.841 16.5708 108.739 16.5708 108.739 16.5708C108.688 16.5708 108.586 16.5708 108.383 16.5708C108.23 16.5708 108.026 16.5708 107.771 16.5708C107.465 16.5708 107.211 16.5198 106.905 16.4689C106.803 16.1122 106.803 15.8064 106.803 15.5517C106.803 15.4498 106.803 15.3478 106.854 15.2459C106.905 15.144 106.905 14.9402 106.854 14.6345C106.905 14.2778 106.905 13.972 106.905 13.6663C106.905 13.3606 106.905 12.9529 106.905 12.5453C106.956 12.1886 106.956 11.8319 106.905 11.4752C106.905 11.1185 106.905 10.7619 106.956 10.4052V9.6918C106.956 9.64084 106.956 9.64084 106.905 9.58989C106.854 9.53893 106.905 9.38606 106.956 9.18224C106.956 9.08033 106.956 8.92746 106.905 8.82555C106.854 8.72364 106.854 8.46887 106.905 8.16313C106.905 8.01027 106.854 7.90836 106.803 7.8574C106.752 7.80645 106.752 7.70453 106.803 7.60262C107.262 7.55167 107.669 7.55167 108.128 7.60262C108.586 7.65358 108.994 7.70454 109.453 7.70454C109.707 7.65358 109.962 7.65358 110.166 7.60262C110.37 7.55167 110.625 7.55167 110.879 7.60262C111.032 7.60262 111.236 7.65358 111.542 7.75549C111.644 7.75549 111.746 7.75549 111.848 7.80645C111.95 7.8574 112.204 7.8574 112.51 7.80645C112.663 7.8574 112.765 7.8574 112.867 7.90836C112.969 7.95931 113.071 8.01027 113.223 8.01027C113.376 8.06122 113.478 8.01027 113.529 7.95931C113.58 7.90836 113.682 7.8574 113.733 7.8574C113.886 7.95931 114.039 8.06122 114.192 8.16313C114.344 8.26505 114.497 8.316 114.701 8.316C114.752 8.46887 114.854 8.57078 115.058 8.62173C115.211 8.67269 115.364 8.7746 115.414 8.92747C115.567 8.87651 115.669 8.92747 115.72 9.02938C115.771 9.13129 115.924 9.28415 116.128 9.43702C116.23 9.48798 116.281 9.53893 116.332 9.64084C116.383 9.74275 116.434 9.79371 116.536 9.89562C116.637 9.99753 116.79 10.1504 116.892 10.4561C116.943 10.558 116.994 10.609 117.096 10.6599C117.147 10.7109 117.198 10.7619 117.249 10.8638C117.3 10.9147 117.3 11.0166 117.3 11.1185C117.3 11.2205 117.402 11.4243 117.504 11.73C117.555 11.9338 117.504 12.0867 117.453 12.1377Z" fill="#AD3919"/>
</svg>
