<svg xmlns="http://www.w3.org/2000/svg" xmlns:xlink="http://www.w3.org/1999/xlink" width="362.69" height="533.1" viewBox="0 0 362.69 533.1">
  <defs>
    <style>
      .cls-1 {
        opacity: 0.3;
        filter: url(#AI_GaussianBlur_7);
      }

      .cls-2 {
        fill: #a85f4e;
      }

      .cls-3 {
        filter: url(#AI_GaussianBlur_4);
      }

      .cls-4 {
        fill: #020202;
      }

      .cls-5 {
        fill: #ad3919;
      }

      .cls-6 {
        fill: none;
        stroke: #cecece;
        stroke-linecap: round;
        stroke-miterlimit: 10;
        stroke-width: 2px;
      }

      .cls-7 {
        fill: #e6e6e6;
      }

      .cls-8 {
        opacity: 0.28;
      }
    </style>
    <filter id="AI_GaussianBlur_7" name="AI_GaussianBlur_7">
      <feGaussianBlur stdDeviation="7"/>
    </filter>
    <filter id="AI_GaussianBlur_4" name="AI_GaussianBlur_4">
      <feGaussianBlur stdDeviation="4"/>
    </filter>
  </defs>
  <g id="killerkebabSign">
    <g id="killerKebabSign-2" data-name="killerKebabSign">
      <g id="killerKebab">
        <g id="kebab">
          <g id="kebabLight">
            <g class="cls-1">
              <polygon class="cls-2" points="63.4 515.92 17.35 515.3 15.4 408.71 64.13 408.71 64.05 410.09 122.92 416.93 78.35 459.74 114.26 501.57 70.73 524.79 63.4 515.92"/>
            </g>
            <g class="cls-1">
              <polygon class="cls-2" points="76.16 515.58 76.16 407.19 157.37 410.32 152.75 443.48 153.41 469.24 154.36 469.21 152.2 517.12 76.16 515.58"/>
            </g>
            <g class="cls-1">
              <path class="cls-2" d="M163.37,514a124.89,124.89,0,0,1-13.67-.71L135,511.47,133.22,412l13.47-3.06A118.13,118.13,0,0,1,170,406.13c1.62,0,3.19.06,4.66.18,16.66,1.28,26.34,8.06,32.37,22.67a29,29,0,0,1,.59,20.26c7.24,7.17,11.07,18.93,9.75,30.07a35.35,35.35,0,0,1-17.68,26.82c-8.81,5.19-21,7.82-36.36,7.82Z"/>
            </g>
            <g class="cls-1">
              <polygon class="cls-2" points="177.03 508.91 243.48 379.61 298.86 509.13 244.02 515.78 237.17 493.75 226.14 519.96 177.03 508.91"/>
            </g>
            <g class="cls-1">
              <path class="cls-2" d="M293.86,513a124.89,124.89,0,0,1-13.67-.71l-14.69-1.77L263.7,411l13.48-3.06a118.13,118.13,0,0,1,23.35-2.81c1.62,0,3.19.06,4.66.18,16.66,1.28,26.34,8.06,32.37,22.67a29,29,0,0,1,.59,20.26c7.24,7.17,11.07,18.93,9.75,30.07a35.35,35.35,0,0,1-17.68,26.82c-8.81,5.19-21,7.82-36.36,7.82Z"/>
            </g>
          </g>
          <g id="kebabShadow" class="cls-3">
            <polygon class="cls-4" points="54.7 480.81 55.77 505.75 37.08 505.5 35.68 428.71 53.31 428.71 52.12 451.09 71.99 430.53 94.58 433.15 62.73 463.75 95.69 502.15 79.49 510.79 54.7 480.81"/>
            <polygon class="cls-4" points="96.16 505.88 96.16 427.78 145.22 429.67 142.99 445.71 113.35 443.86 113.57 455 142.91 455 143.31 470.57 114.32 472.21 112.62 490.7 143.64 489.72 142.87 506.82 96.16 505.88"/>
            <path class="cls-4" d="M168.37,504a107.46,107.46,0,0,1-11.87-.61l-1.73-.2-1.34-74.22,1.59-.36a104.33,104.33,0,0,1,20-2.43c1.24,0,2.42.05,3.5.13,11,.85,15.81,4.12,19.66,13.44,3.12,7.54-1.83,15-4.73,18.44a47.6,47.6,0,0,1,8.52,6.65c4,3.88,6.3,11.19,5.53,17.77a20.39,20.39,0,0,1-10.4,15.64C189.06,503,177,504,168.37,504Zm2.32-14.4c6.24-.82,14.26-2.56,16-4.55a9.58,9.58,0,0,0,2.34-7.65,6.4,6.4,0,0,0-3.88-4.53,16,16,0,0,0-6.88-1.37,29.18,29.18,0,0,0-7.46,1.05Zm0-34.22c3.16-.09,10.25-.82,11.27-5.44.61-2.79.34-5-.8-6.67a5.58,5.58,0,0,0-3.68-2.3,14.82,14.82,0,0,0-2-.1c-1.93,0-4.29.19-5.9.34Z"/>
            <path class="cls-4" d="M204.23,503.53l43-83.68,35,81.79-22.58,2.74L252.35,481l-19.37.94-10.8,25.66Zm35.31-34.73,10.57-.38-4.24-13.29Z"/>
            <path class="cls-4" d="M298.86,503a107.46,107.46,0,0,1-11.87-.61l-1.73-.2-1.34-74.22,1.59-.36a104.33,104.33,0,0,1,20-2.43c1.24,0,2.41.05,3.5.13,11,.85,15.81,4.12,19.66,13.44,3.12,7.54-1.83,15-4.73,18.44a48.08,48.08,0,0,1,8.52,6.65c4,3.88,6.3,11.19,5.53,17.77a20.39,20.39,0,0,1-10.4,15.64C319.55,502,307.53,503,298.86,503Zm2.32-14.4c6.24-.82,14.26-2.56,16-4.55a9.54,9.54,0,0,0,2.33-7.65,6.36,6.36,0,0,0-3.87-4.53,16,16,0,0,0-6.88-1.37,29.18,29.18,0,0,0-7.46,1.05Zm0-34.22c3.16-.09,10.26-.82,11.27-5.44.62-2.79.35-5-.79-6.67a5.57,5.57,0,0,0-3.69-2.3,14.56,14.56,0,0,0-2-.1c-1.93,0-4.29.19-5.91.34Z"/>
          </g>
          <g id="kebabBase">
            <polygon class="cls-5" points="49.7 475.81 50.77 500.75 32.08 500.5 30.68 423.71 48.31 423.71 47.12 446.09 66.99 425.53 89.58 428.15 57.73 458.75 90.69 497.15 74.49 505.79 49.7 475.81"/>
            <polygon class="cls-5" points="91.16 500.88 91.16 422.78 140.22 424.67 137.99 440.71 108.35 438.86 108.57 450 137.91 450 138.31 465.57 109.32 467.21 107.62 485.7 138.64 484.72 137.87 501.82 91.16 500.88"/>
            <path class="cls-5" d="M163.37,499a107.46,107.46,0,0,1-11.87-.61l-1.73-.2-1.34-74.22,1.59-.36a104.33,104.33,0,0,1,20-2.43c1.24,0,2.42.05,3.5.13,11,.85,15.81,4.12,19.66,13.44,3.12,7.54-1.83,15-4.73,18.44a47.6,47.6,0,0,1,8.52,6.65c4,3.88,6.3,11.19,5.53,17.77a20.39,20.39,0,0,1-10.4,15.64C184.06,498,172,499,163.37,499Zm2.32-14.4c6.24-.82,14.26-2.56,16-4.55a9.58,9.58,0,0,0,2.34-7.65,6.4,6.4,0,0,0-3.88-4.53,16,16,0,0,0-6.88-1.37,29.18,29.18,0,0,0-7.46,1.05Zm0-34.22c3.16-.09,10.25-.82,11.27-5.44.61-2.79.34-5-.8-6.67a5.58,5.58,0,0,0-3.68-2.3,14.82,14.82,0,0,0-2-.1c-1.93,0-4.29.19-5.9.34Z"/>
            <path class="cls-5" d="M199.23,498.53l43-83.68,35,81.79-22.58,2.74L247.35,476l-19.37.94-10.8,25.66Zm35.31-34.73,10.57-.38-4.24-13.29Z"/>
            <path class="cls-5" d="M293.86,498a107.46,107.46,0,0,1-11.87-.61l-1.73-.2-1.34-74.22,1.59-.36a104.33,104.33,0,0,1,20-2.43c1.24,0,2.41.05,3.5.13,11,.85,15.81,4.12,19.66,13.44,3.12,7.54-1.83,15-4.73,18.44a48.08,48.08,0,0,1,8.52,6.65c4,3.88,6.3,11.19,5.53,17.77a20.39,20.39,0,0,1-10.4,15.64C314.55,497,302.53,498,293.86,498Zm2.32-14.4c6.24-.82,14.26-2.56,16-4.55a9.54,9.54,0,0,0,2.33-7.65,6.36,6.36,0,0,0-3.87-4.53,16,16,0,0,0-6.88-1.37,29.18,29.18,0,0,0-7.46,1.05Zm0-34.22c3.16-.09,10.26-.82,11.27-5.44.62-2.79.35-5-.79-6.67a5.57,5.57,0,0,0-3.69-2.3,14.56,14.56,0,0,0-2-.1c-1.93,0-4.29.19-5.91.34Z"/>
          </g>
          <g id="kebabTubes">
            <polygon class="cls-6" points="46.32 467.02 47.63 497.71 35.03 497.54 33.73 426.71 45.14 426.71 43.69 453.95 68.12 428.68 82.91 430.4 53.61 458.55 85.98 496.26 75.24 501.99 46.32 467.02"/>
            <polygon class="cls-6" points="94.16 497.94 94.16 425.9 136.8 427.54 135.4 437.55 105.29 435.67 105.62 453 134.99 453 135.24 462.74 106.57 464.36 104.32 488.81 135.5 487.82 135.01 498.76 94.16 497.94"/>
            <path class="cls-6" d="M163.37,496c-4.94,0-9-.33-10.64-.49l-1.25-69.14A101,101,0,0,1,170,424.13c1.16,0,2.26,0,3.27.12,9.88.77,13.72,3.37,17.12,11.6s-5.78,17-5.87,17.12L183.44,454l1.42.59s4.34,1.83,10,7.33c2.78,2.68,5.41,8.6,4.63,15.26a17.5,17.5,0,0,1-8.94,13.41C183.12,495,171.66,496,163.37,496Zm9.94-32.5a31.83,31.83,0,0,0-9.78,1.62l-.66.23-.22,22.61,1.12-.11c1.69-.18,16.61-1.8,20.2-5.8a12.59,12.59,0,0,0,3-10.24,9.35,9.35,0,0,0-5.53-6.65A19,19,0,0,0,173.31,463.45Zm-2.78-30.63a79.14,79.14,0,0,0-8.17.57l-1,.11,1.52,19.76.87.05s.42,0,1.13,0c4,0,13.44-.76,15-7.81,1-4.53-.14-7.41-1.27-9a8.53,8.53,0,0,0-5.73-3.56A17.45,17.45,0,0,0,170.53,432.82Z"/>
            <path class="cls-6" d="M203.67,496.46,242,421.9l30.89,72.25-16.13,2-7.23-23.24L226,474l-10.56,25.08ZM229.77,467l19.4-.7-7.79-24.39Z"/>
            <path class="cls-6" d="M293.86,495c-4.94,0-8.95-.33-10.64-.49L282,425.32a101,101,0,0,1,18.56-2.19c1.16,0,2.26,0,3.27.12,9.88.77,13.72,3.37,17.12,11.6s-5.78,17-5.87,17.12L313.93,453l1.42.59s4.34,1.83,10,7.33c2.78,2.68,5.41,8.6,4.63,15.26a17.5,17.5,0,0,1-8.94,13.41C313.61,494,302.15,495,293.86,495Zm9.94-32.5a32,32,0,0,0-9.79,1.62l-.65.23-.22,22.61,1.12-.11c1.69-.18,16.61-1.8,20.2-5.8a12.59,12.59,0,0,0,3-10.24,9.35,9.35,0,0,0-5.53-6.65A19,19,0,0,0,303.8,462.45ZM301,431.82a79.14,79.14,0,0,0-8.17.57l-1,.11,1.52,19.76.87.05s.42,0,1.13,0c4,0,13.44-.76,15-7.81,1-4.53-.13-7.41-1.26-9a8.53,8.53,0,0,0-5.73-3.56A17.45,17.45,0,0,0,301,431.82Z"/>
          </g>
        </g>
        <g id="killer">
          <g id="killerLight">
            <g class="cls-1">
              <polygon class="cls-2" points="58.75 415.12 12.7 414.5 10.75 307.9 59.48 307.9 59.4 309.28 118.27 316.12 73.7 358.94 109.61 400.77 66.08 423.99 58.75 415.12"/>
            </g>
            <g class="cls-1">
              <polygon class="cls-2" points="73.16 414.89 71.44 307.31 118.3 307.31 122.73 416.16 73.16 414.89"/>
            </g>
            <g class="cls-1">
              <polygon class="cls-2" points="96.37 303.62 145.52 301.61 148.27 366.06 172.45 365.13 176.08 410.65 105.49 413.88 96.37 303.62"/>
            </g>
            <g class="cls-1">
              <polygon class="cls-2" points="145.17 302.29 195.91 302.29 197.84 365.22 222.68 363.73 226.31 411.03 153.07 413.74 145.17 302.29"/>
            </g>
            <g class="cls-1">
              <polygon class="cls-2" points="199.61 414.5 199.61 306.1 280.83 309.23 276.21 342.39 276.87 368.15 277.81 368.13 275.66 416.03 199.61 414.5"/>
            </g>
            <g class="cls-1">
              <path class="cls-2" d="M257.25,417.38l.15-17.15c0-.63.61-64.94.84-77.08l.32-16.31,16.31-.36a27,27,0,0,0,4.35-.41,40.53,40.53,0,0,1,6.85-.62c4.26,0,9.47.73,18,2.53,23.51,5,30.23,14,35,30l.28.94c2.87,9.54,1.11,22.14-10.29,32.07,5.66,8.54,10.46,17,11.8,19.46l12,21.58-24.42,3.51a121.94,121.94,0,0,1-15.47,1.12l-11.25-.08-.2-.42-.07,1.23Z"/>
            </g>
          </g>
          <g id="killerShadow" class="cls-3">
            <polygon class="cls-4" points="48.05 375.01 49.12 399.95 30.43 399.7 29.03 322.9 46.66 322.9 45.47 345.29 65.34 324.73 87.93 327.35 56.08 357.95 89.04 396.34 72.84 404.99 48.05 375.01"/>
            <polygon class="cls-4" points="90.93 400.26 89.68 322.31 106.89 322.31 110.09 400.75 90.93 400.26"/>
            <polygon class="cls-4" points="115.61 317.97 134.17 317.21 136.92 381.62 161.64 380.67 162.9 396.37 122.25 398.23 115.61 317.97"/>
            <polygon class="cls-4" points="164.27 317.29 184.36 317.29 186.32 381.12 211.85 379.58 213.16 396.62 170.01 398.21 164.27 317.29"/>
            <polygon class="cls-4" points="217.61 399.8 217.61 321.69 266.68 323.58 264.45 339.63 234.81 337.78 235.02 348.92 264.37 348.92 264.77 364.48 235.78 366.12 234.08 384.62 265.1 383.63 264.33 400.74 217.61 399.8"/>
            <path class="cls-4" d="M275.38,402.38l0-2c0-.64.61-64.83.84-76.92l0-1.92,1.92,0a41.75,41.75,0,0,0,6.38-.6,26.22,26.22,0,0,1,4.49-.43c3.11,0,7.55.66,14.86,2.2,18.28,3.86,20.6,9.09,23.74,19.61l.28.94c2.8,9.35-4,18.12-18,23.33,8.48,9.19,20.19,30.22,20.73,31.2l1.41,2.54-2.87.41a106.48,106.48,0,0,1-13.34,1l-1.79,0-.54-1.12C306.14,385,296.52,376,291.81,372.26l-1.62,30.12Zm15.65-48c1.61.12,4.19.27,7.31.27h.29c5.34,0,9.28-1.26,11.72-3.73a9.06,9.06,0,0,0,2.59-5.63,13.67,13.67,0,0,0-7.87-7.51,23.39,23.39,0,0,0-8.31-1.3,41.52,41.52,0,0,0-5.73.42Z"/>
          </g>
          <g id="killerBase">
            <polygon class="cls-5" points="43.05 370.01 44.12 394.95 25.43 394.7 24.03 317.9 41.66 317.9 40.47 340.29 60.34 319.73 82.93 322.35 51.08 352.95 84.04 391.34 67.84 399.99 43.05 370.01"/>
            <polygon class="cls-5" points="85.93 395.26 84.68 317.31 101.89 317.31 105.09 395.75 85.93 395.26"/>
            <polygon class="cls-5" points="110.61 312.97 129.17 312.21 131.92 376.62 156.64 375.67 157.9 391.37 117.25 393.23 110.61 312.97"/>
            <polygon class="cls-5" points="159.27 312.29 179.36 312.29 181.32 376.12 206.85 374.58 208.16 391.62 165.01 393.21 159.27 312.29"/>
            <polygon class="cls-5" points="212.61 394.8 212.61 316.69 261.68 318.58 259.45 334.63 229.81 332.78 230.02 343.92 259.37 343.92 259.77 359.48 230.78 361.12 229.08 379.62 260.1 378.63 259.33 395.74 212.61 394.8"/>
            <path class="cls-5" d="M270.38,397.38l0-2c0-.64.61-64.83.84-76.92l0-1.92,1.92,0a41.75,41.75,0,0,0,6.38-.6,26.22,26.22,0,0,1,4.49-.43c3.11,0,7.55.66,14.86,2.2,18.28,3.86,20.6,9.09,23.74,19.61l.28.94c2.8,9.35-4,18.12-18,23.33,8.48,9.19,20.19,30.22,20.73,31.2l1.41,2.54-2.87.41a106.48,106.48,0,0,1-13.34,1l-1.79,0-.54-1.12C301.14,380,291.52,371,286.81,367.26l-1.62,30.12Zm15.65-48c1.61.12,4.19.27,7.31.27h.29c5.34,0,9.28-1.26,11.72-3.73a9.06,9.06,0,0,0,2.59-5.63,13.67,13.67,0,0,0-7.87-7.51,23.39,23.39,0,0,0-8.31-1.3,41.52,41.52,0,0,0-5.73.42Z"/>
          </g>
          <g id="killerTubes">
            <polygon class="cls-6" points="39.67 361.22 40.98 391.9 28.38 391.74 27.08 320.9 38.49 320.9 37.04 348.14 61.47 322.88 76.26 324.59 46.96 352.75 79.33 390.46 68.59 396.19 39.67 361.22"/>
            <polygon class="cls-6" points="88.88 392.34 87.73 320.31 99.01 320.31 101.96 392.67 88.88 392.34"/>
            <polygon class="cls-6" points="113.86 315.83 126.3 315.33 129.05 379.74 153.88 378.78 154.66 388.52 120 390.1 113.86 315.83"/>
            <polygon class="cls-6" points="162.49 315.29 176.45 315.29 178.42 379.3 204.08 377.76 204.93 388.74 167.8 390.11 162.49 315.29"/>
            <polygon class="cls-6" points="215.61 391.86 215.61 319.81 258.25 321.45 256.86 331.46 226.75 329.58 227.08 346.92 256.45 346.92 256.7 356.65 228.03 358.27 225.78 382.72 256.96 381.73 256.47 392.68 215.61 391.86"/>
            <path class="cls-6" d="M273.41,394.38c.08-8.06.59-61.78.81-74.93a44.47,44.47,0,0,0,5.84-.61,23.2,23.2,0,0,1,4-.39c2.89,0,7.15.64,14.24,2.14,17.34,3.66,18.73,8.3,21.48,17.53l.28.94c3,9.89-7.92,17.17-19.1,20.68l-1.73.55,1.39,1.17c7,5.92,18.72,26.12,21.74,31.44a104.12,104.12,0,0,1-11.35.75c-10.6-21.66-24.87-30.67-25.48-31l-1.43-.89-1.76,32.66Zm18.35-65.87a41.56,41.56,0,0,0-7.94.76l-.79.17v22.69l.88.1a89.56,89.56,0,0,0,9.43.45h.3c6.21,0,10.89-1.58,13.92-4.69a11.94,11.94,0,0,0,3.39-8v-.14l0-.13a16.43,16.43,0,0,0-9.76-9.7A26.33,26.33,0,0,0,291.76,328.51Z"/>
          </g>
        </g>
      </g>
      <path id="hand" class="cls-7" d="M269.76,83c2.37-6.62,4.55-13.34,6.47-20.2a148.93,148.93,0,0,0,4.52-21.15,62.4,62.4,0,0,0,.5-11.25,33.15,33.15,0,0,0-.81-5.91,20.91,20.91,0,0,0-2.34-6,15.49,15.49,0,0,0-4.79-5.09,16.81,16.81,0,0,0-6.4-2.45,21.65,21.65,0,0,0-6.43-.14,19.46,19.46,0,0,0-6.33,1.9A25.09,25.09,0,0,0,245,21.21a58,58,0,0,0-5.32,10.15c-2.85,6.88-4.93,13.81-7,20.68l-3.12,10.27-1.61,5.09q-.82,2.63-1.6,5.23c-2.07,7-3.94,13.9-5.94,20.76a181.13,181.13,0,0,1-6.82,20,45,45,0,0,1-4.72,8.7,13,13,0,0,1-2.89,2.93,6.11,6.11,0,0,1-.71.43c-.23.07-.45.22-.66.26a3.43,3.43,0,0,1-1.27.14,6.68,6.68,0,0,1-3.1-1.28,20,20,0,0,1-3.35-3,53.86,53.86,0,0,1-5.91-8.18,163.71,163.71,0,0,1-9.55-18.89c-5.68-13.13-10.79-26.61-15.29-40.22-2.25-6.82-4.33-13.68-6.37-20.6-1-3.46-2-6.94-3.16-10.45a72.13,72.13,0,0,0-4.11-10.69,20.59,20.59,0,0,0-3.79-5.39,13.65,13.65,0,0,0-6.42-3.63,20.52,20.52,0,0,0-6.63-.39,27.45,27.45,0,0,0-6.21,1.24,20.84,20.84,0,0,0-5.87,3.19,20,20,0,0,0-4.41,5,29.34,29.34,0,0,0-3.85,11.72,57.77,57.77,0,0,0-.16,11.52,98.13,98.13,0,0,0,1.53,11.08,169.77,169.77,0,0,0,5.67,21.19,274.18,274.18,0,0,0,10.28,26,41.79,41.79,0,0,0-5.84,1.64,36.74,36.74,0,0,0-15,10.15,20.86,20.86,0,0,0-5.13-1.87A18.31,18.31,0,0,0,90,109.06a24.43,24.43,0,0,0-5.85,9.54,35.35,35.35,0,0,0-1.8,10.32,83.31,83.31,0,0,0,1.54,19.49,133.7,133.7,0,0,0,4.88,18.3,241.1,241.1,0,0,0,14.56,33.57c5.5,10.64,11.49,20.75,17.7,30.47,1.55,2.43,3.13,4.82,4.72,7.2l.46.68.37.54c3.9,5.78,6.71,9.62,6.86,9.83a2,2,0,0,0,.61.31c2.57.69,4,.08,4.85-.94a5.15,5.15,0,0,0,.94-3.4.6.6,0,0,0-.14-.51c-.14-.2-2.85-3.9-6.63-9.49-1-1.55-2.09-3.13-3.16-4.75-6.12-9.34-12-19.07-17.47-29.23-2.72-5.08-5.34-10.26-7.81-15.56s-4.73-10.71-6.78-16.23a143.87,143.87,0,0,1-5.22-16.92A90.79,90.79,0,0,1,90,134.84a42.49,42.49,0,0,1,0-4.37l.08-2.18c0-.73.15-1.38.21-2.08a23.55,23.55,0,0,1,2.25-7.67c2.24-4.67,6.7-7.6,11.36-7.14a12.27,12.27,0,0,1,3.41.89,34.78,34.78,0,0,0-2.91,7.45,41.24,41.24,0,0,0-1.3,11c0,.91,0,1.81.1,2.71s.11,1.81.24,2.7.2,1.75.37,2.69.36,1.84.58,2.73a47.44,47.44,0,0,0,3.8,10.18,24.76,24.76,0,0,0,1.49,2.53l.62.85a7.41,7.41,0,0,0,.72.89c.28.29.54.61.83.89l.9.74A6.53,6.53,0,0,0,116.8,159a6.12,6.12,0,0,0,3.9-1.63c.26-.26.52-.53.77-.81s.42-.66.63-1a10.47,10.47,0,0,0,.6-1l.45-1.09.43-1.06.2-.69c.13-.47.28-.94.37-1.38a47.51,47.51,0,0,0,.93-5.27,87.77,87.77,0,0,0,.71-10.31,47.47,47.47,0,0,0-1.2-10.57,32.45,32.45,0,0,0-4.18-10.14,27.47,27.47,0,0,0-2.61-3.43,28.19,28.19,0,0,1,5.22-4.44,31.92,31.92,0,0,1,13-4.85c1.05,2.17,2.12,4.34,3.22,6.49,3.3,6.37,6.79,12.63,10.68,18.7a107.93,107.93,0,0,0,6.29,8.94,45.71,45.71,0,0,0,3.84,4.31c.38.35.73.71,1.17,1.06l.64.52.75.53a11.49,11.49,0,0,0,1.74,1c.46.19.9.39,1.38.56a18.27,18.27,0,0,0,6.52,1.37,9.09,9.09,0,0,0,4.43-1.14,7.93,7.93,0,0,0,3.27-3.82,10.83,10.83,0,0,0,.77-3.92,18.44,18.44,0,0,0-.23-3.31,31.22,31.22,0,0,0-1.54-5.75,57.42,57.42,0,0,0-4.93-10,68.84,68.84,0,0,0-6.45-8.9,55.66,55.66,0,0,0-8-7.74,32.87,32.87,0,0,0-10.21-5.61,30.39,30.39,0,0,0-8.65-1.26c-2.74-5.91-5.3-11.93-7.63-18a207.41,207.41,0,0,1-6.5-19.71,114,114,0,0,1-3.77-20.12,53.14,53.14,0,0,1,.07-9.86,29,29,0,0,1,.91-4.58c.18-.75.48-1.41.72-2.12a16.08,16.08,0,0,1,1-1.9,14.59,14.59,0,0,1,1.15-1.71,13.13,13.13,0,0,1,1.39-1.4,10.93,10.93,0,0,1,3.43-2,6,6,0,0,1,1-.34c.34-.09.67-.2,1-.28.73-.11,1.41-.3,2.2-.35a13.65,13.65,0,0,1,4.2,0,6,6,0,0,1,3,1.35,11.52,11.52,0,0,1,2.39,3.12,54.28,54.28,0,0,1,3.68,9.2c2.12,6.63,4,13.56,6.15,20.4,4.18,13.73,8.95,27.34,14.29,40.68C172,92.29,174.81,99,178,105.5s6.62,13,11.35,19.09a39.1,39.1,0,0,0,4,4.37,19.24,19.24,0,0,0,5.53,3.67,12.61,12.61,0,0,0,3.73.93,11,11,0,0,0,4-.4,14.3,14.3,0,0,0,6.13-3.82,36.89,36.89,0,0,0,6.54-10,104.6,104.6,0,0,0,4.17-10.26c4.79-13.72,7.94-27.54,12.24-40.82,2.16-6.78,4.12-13.58,6.21-20.23s4.27-13.22,7.31-19a27.35,27.35,0,0,1,5.38-7.38,12,12,0,0,1,7.14-3.27,15.17,15.17,0,0,1,4.1.16A8.83,8.83,0,0,1,269.19,20c1.85,1.25,3.1,3.53,3.75,6.38a34.74,34.74,0,0,1,.61,9.28,81.09,81.09,0,0,1-1.17,9.82,176.47,176.47,0,0,1-4.82,19.62c-3.87,13-8.75,25.62-13.67,38.25s-9.86,25.19-14.24,37.91c-1.89,5.51-3.68,11.06-5.31,16.64-1.41-.18-2.81-.3-4.2-.37-.8,0-1.64-.07-2.4-.07h-2.26l-4.52,0-9,0c-11.91.12-23.62.45-35.13.87s-22.8,1-33.89,1.54l-8.28.46-4.11.24-3.35.21-2,.13c-.27.11-.84-.15-.83.3l-.31.94c-.41,1.24-.81,2.52-1.11,3.84-.21.78-.23,1-.32,1.39s-.14.73-.2,1.09a43.57,43.57,0,0,0-.57,4.39,40,40,0,0,0,.25,8.87,30.9,30.9,0,0,0,2.56,8.68,27.66,27.66,0,0,0,5.19,7.49,29,29,0,0,0,7.11,5.32c.64.34,1.28.69,1.93,1l2,.84,1,.41,1,.33,2,.65a62.7,62.7,0,0,0,15.88,2.3c1.3.08,2.6,0,3.9,0s2.61,0,3.81-.1l7.32-.4,14.37-.79,5.82-.32h0v1.62l0,1.77q0,1.77.15,3.51c.11,2.34.35,4.63.56,6.91s.51,4.54.88,6.76c.17,1.11.35,2.22.52,3.32s.41,2.19.62,3.28c.38,2.18.89,4.31,1.38,6.43.25,1.06.46,2.13.76,3.17.14.54.29,1.08.43,1.61.05.16.09.32.13.48.09.31.17.61.25.9.16.58.3,1.12.43,1.6.25,1,.47,1.71.64,2.22l.25.78.64,1.68c.41,1,.93,2.5,1.6,4.1a133.26,133.26,0,0,0,6.44,13.52c4.59,7.64,8.44,11.75,4-1.48-.61-2.38-1.36-5-2.1-7.51s-1.28-4.91-1.77-6.79c-.72-3-1.16-4.82-1.16-4.82s-.35-1-.9-2.89c-.25-.94-.56-2.07-.91-3.37-.14-.5-.28-1-.42-1.54-.58-2.13-1-4.32-1.54-6.5s-.87-4.41-1.27-6.65c-.73-4.49-1.33-9.06-1.67-13.71-.07-1.16-.14-2.32-.2-3.49s-.07-2.33-.1-3.51v-2.15c0-1.22.12-2.48.17-3.71l.11-1.89.07-.94c0-.29.1-.69,0-.87l-3.67.2L167.73,201c-1.31.1-2.49,0-3.74.07l-1.86,0-1.86-.08c-1.24-.06-2.5-.08-3.72-.24s-2.49-.21-3.69-.45a36.16,36.16,0,0,1-3.62-.7l-1.78-.43c-.58-.17-1.15-.37-1.73-.56a32.19,32.19,0,0,1-3.35-1.29c-.56-.23-1-.54-1.58-.81a10.82,10.82,0,0,1-1.51-.88,20,20,0,0,1-8.47-10.54,30.43,30.43,0,0,1-.93-14.62c.11-.63.22-1.26.35-1.89l.06-.28h0l.32,0,8.52-.49,17.27-.89q17.43-.83,35.43-1.35c12-.31,24.2-.52,36.47-.39,1.33,0,2.64.1,3.94.23-1.26,4.83-2.36,9.7-3.26,14.61-.27,1.65-.54,3.31-.82,5l-.41,2.47-.27,2.5c-.35,3.33-.78,6.64-.82,10l-.18,5c.07,1.68.14,3.36.2,5a36.35,36.35,0,0,0,1.53,10.57c.16.47.37,1,.56,1.44s.5,1,.76,1.48a14.32,14.32,0,0,0,1.07,1.5,9.57,9.57,0,0,0,1.53,1.43,8.91,8.91,0,0,0,2,1.1,8.13,8.13,0,0,0,2.3.44,9.22,9.22,0,0,0,4-.72,16.89,16.89,0,0,0,5.14-3.47,32.75,32.75,0,0,0,3.57-4.06,51.73,51.73,0,0,0,5.25-8.78,62.69,62.69,0,0,0,3.61-9.37,48.43,48.43,0,0,0,1.92-20.1,28.9,28.9,0,0,0-3.29-10.09,24.52,24.52,0,0,0-7.22-8.07,29.41,29.41,0,0,0-7.51-3.73c3.69-12.57,8.23-25.07,13-37.61C259.83,109.13,265.06,96.3,269.76,83ZM118,137.46a76.07,76.07,0,0,1-1,9.18c-.12.75-.3,1.43-.45,2.14l-.27,1-.09.32,0,0v0l-.21-.3a26.73,26.73,0,0,1-2-3.78,40.17,40.17,0,0,1-2.62-8.56c-.94-6-.89-12.23,1-17.76.27-.79.58-1.55.92-2.31a19.94,19.94,0,0,1,1.82,3C117.57,125.44,118.27,131.46,118,137.46Zm28.54-35.71a16.81,16.81,0,0,1,2,.67,28.92,28.92,0,0,1,7.56,4.81A58.07,58.07,0,0,1,168.14,122a44.71,44.71,0,0,1,3.93,8.6,18,18,0,0,1,.89,4.16,6.36,6.36,0,0,1,0,1.61,1.19,1.19,0,0,1-.18.56h0a.19.19,0,0,0-.1,0,3.52,3.52,0,0,1-1.2,0,15.33,15.33,0,0,1-3.9-1.19,1.49,1.49,0,0,1-.37-.18c-.07,0-.11,0-.22-.12s-.42-.28-.68-.51a8.92,8.92,0,0,1-.76-.68c-.26-.23-.52-.5-.79-.78-1-1.11-2.09-2.35-3.09-3.66a150.68,150.68,0,0,1-11-17.1c-2.11-3.75-4.12-7.57-6.06-11.43C145.28,101.45,145.91,101.6,146.53,101.75Zm100.69,69.74a18.31,18.31,0,0,1,2.35,3A20.78,20.78,0,0,1,252.2,182a40,40,0,0,1-1.59,17.27,50.93,50.93,0,0,1-7.87,16.06,24.06,24.06,0,0,1-2.81,3.08,7.74,7.74,0,0,1-2.67,1.72.69.69,0,0,1-.46.06s0,0,0,0-.09,0-.18-.17a6.69,6.69,0,0,1-1.26-2.7,24.67,24.67,0,0,1-.73-4.19c-.14-1.51-.15-3.15-.23-4.71l-.1-2.38,0-1.19,0-1.2.18-4.81a158.08,158.08,0,0,1,5.4-31.88,20.26,20.26,0,0,1,4.37,2.1A17.53,17.53,0,0,1,247.22,171.49Z"/>
    </g>
  </g>
</svg>
