<svg xmlns="http://www.w3.org/2000/svg" xmlns:xlink="http://www.w3.org/1999/xlink" width="701.61" height="170.52" viewBox="0 0 701.61 170.52">
  <defs>
    <style>
      .cls-1 {
        opacity: 0;
        filter: url(#AI_GaussianBlur_7);

        animation-duration: 5s;
        animation-delay:0s;
        animation-name: bagLight;
        animation-timing-function: linear;
        animation-iteration-count: infinite;
        animation-fill-mode: forwards;
      }

      .cls-2 {
        fill: #a85f4e;
      }

      .cls-3 {
        opacity: 0.8;
        filter: url(#AI_GaussianBlur_4);
      }

      .cls-4 {
        fill: #020202;
      }

      .cls-5 {
        fill: #ad3919;
      }

      .cls-6 {
        fill: none;
        stroke: #cecece;
        stroke-linecap: round;
        stroke-miterlimit: 10;
        stroke-width: 2px;
         
        animation-name: lighting;
        animation-duration: 5s;
        animation-delay:0s;
        animation-timing-function: linear;
        animation-iteration-count: infinite;
        
     
      }

      .cls-5:hover{
       opacity:0;
         
      }

      .letraB{
          animation-delay:1s;
        }
      .letraL{
        animation-delay:.5s;
      }  

       @keyframes lighting{
    0%{ stroke-width: 2px;
        stroke: #cecece; 
    }

    0.5%{ stroke-width: 3px;
          stroke: #fff;
          }

    1%{ stroke-width: 2px;
        stroke: #cecece;}

    1.5%{ stroke-width: 3px;
          stroke: #fff;
           }

    80%{stroke-width: 3px;
          stroke: #fff;

       
        }
    
    80.5%{stroke-width: 2px;
        stroke: #cecece; }

    81%{ stroke-width: 3px;
          stroke: #fff;
           }

    81.5%{ stroke-width: 2px;
        stroke: #cecece; }

     82%{ stroke-width: 3px;
          stroke: #fff;
           }
        
    100%{ stroke-width: 3px;
          stroke: #fff;
           }    
}

@keyframes strokefat{
   0%{ stroke-width: 2px;
      stroke: #cecece; 
    }

    100%{ stroke-width: 3px;
        stroke: #fff;
    }

   
    }

    @keyframes bagLight{
   0%{ opacity:0
         
    }

    0.5%{ opacity:0.3;
          
          }

    1%{ opacity:0
        }

    1.5%{ opacity:0.3;
          
           }

    80%{opacity:0.3;
          

       
        }
    
    80.5%{opacity:0
         }

    81%{ opacity:0.3;
          
           }

    81.5%{ opacity:0
         }

     82%{ opacity:0.3;
          
           }
        
    100%{ opacity:0.3;
          
           }    
}
    
    
    </style>
    <filter id="AI_GaussianBlur_7" name="AI_GaussianBlur_7">
      <feGaussianBlur stdDeviation="7"/>
    </filter>
    <filter id="AI_GaussianBlur_4" name="AI_GaussianBlur_4">
      <feGaussianBlur stdDeviation="4"/>
    </filter>
    <script type="text/javascript">
    window.addEventListener("load", consoleLog);
function consoleLog() {
  console.log("hola mundo svg");
}
</script>
  </defs>
  <g id="Layer_2" data-name="Layer 2">
    <g id="neonKK-v2">
      <g id="light">
        <g class="cls-1">
          <polygon class="cls-2" points="58.75 150.34 12.7 149.72 10.75 43.13 59.48 43.13 59.4 44.51 118.27 51.35 73.7 94.16 109.61 136 66.08 159.21 58.75 150.34"/>
        </g>
        <g class="cls-1">
          <polygon class="cls-2" points="73.16 150.12 71.44 42.54 118.3 42.54 122.73 151.38 73.16 150.12"/>
        </g>
        <g class="cls-1">
          <polygon class="cls-2" points="96.37 38.84 145.52 36.84 148.27 101.29 172.45 100.36 176.08 145.88 105.49 149.1 96.37 38.84"/>
        </g>
        <g class="cls-1">
          <polygon class="cls-2" points="145.17 37.51 195.91 37.51 197.84 100.44 222.68 98.95 226.31 146.26 153.07 148.97 145.17 37.51"/>
        </g>
        <g class="cls-1 letraL">
          <polygon class="cls-2" points="199.61 149.72 199.61 41.33 280.83 44.46 276.21 77.62 276.87 103.38 277.81 103.35 275.66 151.26 199.61 149.72"/>
        </g>
        <g class="cls-1">
          <path class="cls-2" d="M257.25,152.61l.15-17.16c0-.63.61-64.94.84-77.07l.32-16.32,16.31-.35a26.84,26.84,0,0,0,4.35-.42,40.73,40.73,0,0,1,6.85-.61c4.26,0,9.47.73,18,2.52,23.51,5,30.23,14,35,30l.28.94c2.87,9.54,1.11,22.13-10.29,32.06,5.66,8.54,10.46,17.06,11.8,19.47l12,21.58-24.42,3.5a119.92,119.92,0,0,1-15.47,1.12l-11.25-.07-.2-.42-.07,1.23Z"/>
        </g>
        <g class="cls-1">
          <polygon class="cls-2" points="408.75 150.34 362.7 149.72 360.75 43.13 409.48 43.13 409.4 44.51 468.27 51.35 423.7 94.16 459.61 136 416.08 159.21 408.75 150.34"/>
        </g>
        <g class="cls-1">
          <polygon class="cls-2" points="421.51 150.01 421.51 41.61 502.72 44.74 498.1 77.9 498.76 103.66 499.71 103.63 497.55 151.54 421.51 150.01"/>
        </g>
        <g class="cls-1 letraB">
          <path class="cls-2" d="M508.72,148.37a124.39,124.39,0,0,1-13.66-.71l-14.7-1.77-1.79-99.46L492,43.36a118.44,118.44,0,0,1,23.35-2.8c1.62,0,3.19,0,4.66.17C536.71,42,546.39,48.8,552.42,63.4A29,29,0,0,1,553,83.66c7.24,7.17,11.07,18.93,9.76,30.08a35.37,35.37,0,0,1-17.69,26.81c-8.81,5.19-21,7.82-36.36,7.82Z"/>
        </g>
        <g class="cls-1">
          <polygon class="cls-2" points="522.38 143.33 588.83 14.04 644.21 143.55 589.37 150.2 582.52 128.17 571.49 154.38 522.38 143.33"/>
        </g>
        <g class="cls-1">
          <path class="cls-2" d="M639.21,147.37a124.89,124.89,0,0,1-13.67-.71l-14.69-1.77-1.79-99.46,13.47-3.07a118.44,118.44,0,0,1,23.35-2.8c1.62,0,3.19,0,4.66.17C667.2,41,676.88,47.8,682.91,62.4a29.05,29.05,0,0,1,.59,20.27c7.24,7.17,11.07,18.92,9.75,30.06a35.33,35.33,0,0,1-17.68,26.82c-8.81,5.19-21,7.82-36.36,7.82Z"/>
        </g>
      </g>
      <g id="shadow" class="cls-3">
        <polygon class="cls-4" points="50.05 115.24 51.12 140.17 32.43 139.92 31.03 63.13 48.66 63.13 47.47 85.51 67.34 64.95 89.93 67.58 58.08 98.17 91.04 136.57 74.84 145.21 50.05 115.24"/>
        <polygon class="cls-4" points="92.93 140.49 91.68 62.54 108.89 62.54 112.09 140.98 92.93 140.49"/>
        <polygon class="cls-4" points="117.61 58.19 136.17 57.43 138.92 121.85 163.64 120.9 164.9 136.6 124.25 138.46 117.61 58.19"/>
        <polygon class="cls-4" points="166.27 57.51 186.36 57.51 188.32 121.34 213.85 119.81 215.16 136.85 172.01 138.44 166.27 57.51"/>
        <polygon class="cls-4" points="219.61 140.02 219.61 61.92 268.68 63.81 266.45 79.86 236.81 78 237.02 89.14 266.37 89.14 266.77 104.71 237.78 106.35 236.08 124.84 267.1 123.86 266.33 140.96 219.61 140.02"/>
        <path class="cls-4" d="M277.38,142.61l0-2c0-.65.61-64.83.84-76.93l0-1.92,1.92,0a42,42,0,0,0,6.38-.59,26.22,26.22,0,0,1,4.49-.43c3.11,0,7.55.66,14.86,2.2,18.28,3.86,20.6,9.09,23.74,19.61l.28.94c2.8,9.35-4,18.11-18,23.33C320.47,116,332.18,137,332.72,138l1.41,2.54-2.87.41a106.48,106.48,0,0,1-13.34,1h-1.79l-.54-1.12c-7.45-15.48-17.07-24.48-21.78-28.26l-1.62,30.13Zm15.65-48c1.61.12,4.19.27,7.31.27h.29c5.34,0,9.28-1.26,11.72-3.73a9.08,9.08,0,0,0,2.59-5.63A13.61,13.61,0,0,0,307.07,78a23.37,23.37,0,0,0-8.31-1.31,39.76,39.76,0,0,0-5.73.43Z"/>
        <polygon class="cls-4" points="400.05 115.24 401.12 140.17 382.43 139.92 381.03 63.13 398.66 63.13 397.47 85.51 417.34 64.95 439.93 67.58 408.08 98.17 441.04 136.57 424.84 145.21 400.05 115.24"/>
        <polygon class="cls-4" points="441.51 140.31 441.51 62.2 490.58 64.09 488.34 80.14 458.7 78.28 458.92 89.42 488.26 89.42 488.66 104.99 459.68 106.63 457.97 125.12 488.99 124.14 488.22 141.25 441.51 140.31"/>
        <path class="cls-4" d="M513.72,138.37a111.65,111.65,0,0,1-11.86-.6l-1.73-.21-1.35-74.22,1.59-.36a104.7,104.7,0,0,1,20-2.42c1.24,0,2.42,0,3.5.12,11,.86,15.82,4.12,19.66,13.44,3.12,7.55-1.83,15-4.73,18.44a48.08,48.08,0,0,1,8.52,6.65c4,3.89,6.3,11.19,5.53,17.77a20.42,20.42,0,0,1-10.4,15.65c-8.06,4.75-20.08,5.74-28.75,5.74ZM516,124c6.24-.81,14.26-2.56,16.05-4.55a9.56,9.56,0,0,0,2.33-7.64,6.41,6.41,0,0,0-3.88-4.54,15.93,15.93,0,0,0-6.88-1.37,29.18,29.18,0,0,0-7.46,1Zm0-34.22c3.16-.09,10.25-.82,11.27-5.44.61-2.79.34-5-.8-6.67a5.58,5.58,0,0,0-3.68-2.3,14.76,14.76,0,0,0-2-.1c-1.94,0-4.3.19-5.91.34Z"/>
        <path class="cls-4" d="M549.58,138l43-83.67,35,81.79L605,138.8l-7.28-23.41-19.36.94L567.53,142Zm35.31-34.73,10.57-.38-4.24-13.29Z"/>
        <path class="cls-4" d="M644.21,137.37a112.19,112.19,0,0,1-11.87-.6l-1.73-.21-1.34-74.22,1.59-.36a104.7,104.7,0,0,1,20-2.42c1.24,0,2.42,0,3.5.12,11,.86,15.82,4.12,19.66,13.44,3.12,7.55-1.83,15-4.73,18.44a48.08,48.08,0,0,1,8.52,6.65c4,3.89,6.3,11.19,5.53,17.77A20.42,20.42,0,0,1,673,131.63c-8.06,4.75-20.08,5.74-28.75,5.74Zm2.32-14.4c6.24-.81,14.26-2.56,16-4.55a9.53,9.53,0,0,0,2.34-7.64,6.41,6.41,0,0,0-3.88-4.54,16,16,0,0,0-6.88-1.37,29.18,29.18,0,0,0-7.46,1Zm0-34.22c3.16-.09,10.25-.82,11.27-5.44.61-2.79.34-5-.8-6.67a5.58,5.58,0,0,0-3.68-2.3,14.82,14.82,0,0,0-2-.1c-1.93,0-4.29.19-5.9.34Z"/>
      </g>
      <g id="base">
        <polygon class="cls-5" points="45.05 110.24 46.12 135.17 27.43 134.92 26.03 58.13 43.66 58.13 42.47 80.51 62.34 59.95 84.93 62.58 53.08 93.17 86.04 131.57 69.84 140.21 45.05 110.24"/>
        <polygon class="cls-5" points="87.93 135.49 86.68 57.54 103.89 57.54 107.09 135.98 87.93 135.49"/>
        <polygon class="cls-5" points="112.61 53.19 131.17 52.43 133.92 116.85 158.64 115.9 159.9 131.6 119.25 133.46 112.61 53.19"/>
        <polygon class="cls-5" points="161.27 52.51 181.36 52.51 183.32 116.34 208.85 114.81 210.16 131.85 167.01 133.44 161.27 52.51"/>
        <polygon class="cls-5" points="214.61 135.02 214.61 56.92 263.68 58.81 261.45 74.86 231.81 73 232.02 84.14 261.37 84.14 261.77 99.71 232.78 101.35 231.08 119.84 262.1 118.86 261.33 135.96 214.61 135.02"/>
        <path class="cls-5" d="M272.38,137.61l0-2c0-.65.61-64.83.84-76.93l0-1.92,1.92,0a42,42,0,0,0,6.38-.59,26.22,26.22,0,0,1,4.49-.43c3.11,0,7.55.66,14.86,2.2,18.28,3.86,20.6,9.09,23.74,19.61l.28.94c2.8,9.35-4,18.11-18,23.33C315.47,111,327.18,132,327.72,133l1.41,2.54-2.87.41a106.48,106.48,0,0,1-13.34,1h-1.79l-.54-1.12c-7.45-15.48-17.07-24.48-21.78-28.26l-1.62,30.13Zm15.65-48c1.61.12,4.19.27,7.31.27h.29c5.34,0,9.28-1.26,11.72-3.73a9.08,9.08,0,0,0,2.59-5.63A13.61,13.61,0,0,0,302.07,73a23.37,23.37,0,0,0-8.31-1.31,39.76,39.76,0,0,0-5.73.43Z"/>
        <polygon class="cls-5" points="395.05 110.24 396.12 135.17 377.43 134.92 376.03 58.13 393.66 58.13 392.47 80.51 412.34 59.95 434.93 62.58 403.08 93.17 436.04 131.57 419.84 140.21 395.05 110.24"/>
        <polygon class="cls-5" points="436.51 135.31 436.51 57.2 485.58 59.09 483.34 75.14 453.7 73.28 453.92 84.42 483.26 84.42 483.66 99.99 454.68 101.63 452.97 120.12 483.99 119.14 483.22 136.25 436.51 135.31"/>
        <path class="cls-5" d="M508.72,133.37a111.65,111.65,0,0,1-11.86-.6l-1.73-.21-1.35-74.22,1.59-.36a104.7,104.7,0,0,1,20-2.42c1.24,0,2.42,0,3.5.12,11,.86,15.82,4.12,19.66,13.44,3.12,7.55-1.83,15-4.73,18.44a48.08,48.08,0,0,1,8.52,6.65c4,3.89,6.3,11.19,5.53,17.77a20.42,20.42,0,0,1-10.4,15.65c-8.06,4.75-20.08,5.74-28.75,5.74ZM511,119c6.24-.81,14.26-2.56,16.05-4.55a9.56,9.56,0,0,0,2.33-7.64,6.41,6.41,0,0,0-3.88-4.54,15.93,15.93,0,0,0-6.88-1.37,29.18,29.18,0,0,0-7.46,1Zm0-34.22c3.16-.09,10.25-.82,11.27-5.44.61-2.79.34-5-.8-6.67a5.58,5.58,0,0,0-3.68-2.3,14.76,14.76,0,0,0-2-.1c-1.94,0-4.3.19-5.91.34Z"/>
        <path class="cls-5" d="M544.58,133l43-83.67,35,81.79L600,133.8l-7.28-23.41-19.36.94L562.53,137Zm35.31-34.73,10.57-.38-4.24-13.29Z"/>
        <path class="cls-5" d="M639.21,132.37a112.19,112.19,0,0,1-11.87-.6l-1.73-.21-1.34-74.22,1.59-.36a104.7,104.7,0,0,1,20-2.42c1.24,0,2.42,0,3.5.12,11,.86,15.82,4.12,19.66,13.44,3.12,7.55-1.83,15-4.73,18.44a48.08,48.08,0,0,1,8.52,6.65c4,3.89,6.3,11.19,5.53,17.77A20.42,20.42,0,0,1,668,126.63c-8.06,4.75-20.08,5.74-28.75,5.74Zm2.32-14.4c6.24-.81,14.26-2.56,16-4.55a9.53,9.53,0,0,0,2.34-7.64,6.41,6.41,0,0,0-3.88-4.54,16,16,0,0,0-6.88-1.37,29.18,29.18,0,0,0-7.46,1Zm0-34.22c3.16-.09,10.25-.82,11.27-5.44.61-2.79.34-5-.8-6.67a5.58,5.58,0,0,0-3.68-2.3,14.82,14.82,0,0,0-2-.1c-1.93,0-4.29.19-5.9.34Z"/>
      </g>
      <g id="tubes">
        <g>
          <polygon class="cls-6" points="41.67 101.44 42.98 132.13 30.38 131.96 29.08 61.13 40.49 61.13 39.04 88.37 63.47 63.1 78.26 64.82 48.96 92.98 81.33 130.68 70.59 136.41 41.67 101.44"/>
          <polygon class="cls-6" points="90.88 132.56 89.73 60.54 101.01 60.54 103.96 132.9 90.88 132.56"/>
          <polygon class="cls-6" points="115.86 56.06 128.3 55.55 131.05 119.96 155.88 119.01 156.66 128.75 122 130.33 115.86 56.06"/>
          <polygon class="cls-6" points="164.49 55.51 178.45 55.51 180.42 119.52 206.08 117.98 206.93 128.96 169.8 130.34 164.49 55.51"/>
          <polygon class="cls-6 letraL" points="217.61 132.08 217.61 60.04 260.25 61.68 258.86 71.69 228.75 69.81 229.08 87.14 258.45 87.14 258.7 96.88 230.03 98.5 227.78 122.95 258.96 121.96 258.47 132.91 217.61 132.08"/>
          <path class="cls-6" d="M275.41,134.61c.08-8.06.59-61.79.81-74.94a44.81,44.81,0,0,0,5.84-.6,23.2,23.2,0,0,1,4-.39c2.89,0,7.15.64,14.24,2.13,17.34,3.67,18.73,8.3,21.48,17.54l.28.94c3,9.89-7.92,17.17-19.1,20.68l-1.73.55,1.39,1.17c7,5.92,18.72,26.12,21.74,31.43a101.63,101.63,0,0,1-11.35.75c-10.6-21.66-24.87-30.66-25.48-31l-1.43-.88-1.76,32.66Zm18.35-65.88a41.08,41.08,0,0,0-7.94.77l-.79.17V92.36l.88.1a89.56,89.56,0,0,0,9.43.45h.3c6.21,0,10.89-1.59,13.92-4.7a11.92,11.92,0,0,0,3.39-8v-.13l0-.13a16.43,16.43,0,0,0-9.76-9.71A26.55,26.55,0,0,0,293.76,68.73Z"/>
          <polygon class="cls-6" points="391.67 101.44 392.98 132.13 380.38 131.96 379.08 61.13 390.49 61.13 389.04 88.37 413.47 63.1 428.26 64.82 398.96 92.98 431.33 130.68 420.59 136.41 391.67 101.44"/>
          <polygon class="cls-6" points="439.51 132.37 439.51 60.32 482.15 61.96 480.75 71.97 450.64 70.09 450.98 87.42 480.34 87.42 480.59 97.16 451.93 98.78 449.67 123.23 480.85 122.24 480.36 133.19 439.51 132.37"/>
          <path class="cls-6 letraB" d="M508.72,130.37c-4.94,0-9-.33-10.64-.49l-1.25-69.14a101.27,101.27,0,0,1,18.56-2.18c1.16,0,2.26,0,3.27.11,9.88.77,13.72,3.37,17.12,11.6s-5.78,17-5.87,17.12l-1.12,1.06,1.42.59s4.34,1.83,10,7.33c2.78,2.68,5.41,8.6,4.63,15.26A17.5,17.5,0,0,1,536,125c-7.48,4.41-18.94,5.33-27.23,5.33Zm9.94-32.5a31.83,31.83,0,0,0-9.78,1.62l-.66.24-.21,22.6,1.11-.11c1.69-.17,16.62-1.8,20.2-5.8a12.55,12.55,0,0,0,3-10.24,9.37,9.37,0,0,0-5.53-6.65A19,19,0,0,0,518.66,97.87Zm-2.77-30.63c-3.46,0-8,.55-8.18.57l-.95.12,1.52,19.75.87,0s.42,0,1.13,0c4,0,13.44-.76,15-7.81,1-4.53-.14-7.41-1.27-9a8.51,8.51,0,0,0-5.73-3.56A17.3,17.3,0,0,0,515.89,67.24Z"/>
          <path class="cls-6" d="M549,130.88l38.32-74.56,30.89,72.25-16.13,2-7.22-23.24-23.58,1.15-10.56,25.08Zm26.1-29.49,19.4-.7L586.74,76.3Z"/>
          <path class="cls-6" d="M639.21,129.37c-4.94,0-9-.33-10.64-.49l-1.25-69.14a101.27,101.27,0,0,1,18.56-2.18c1.16,0,2.26,0,3.27.11,9.88.77,13.72,3.37,17.12,11.6s-5.78,17-5.87,17.12l-1.12,1.06,1.42.59s4.34,1.83,10,7.33c2.78,2.68,5.41,8.6,4.63,15.26A17.5,17.5,0,0,1,666.44,124c-7.48,4.41-18.94,5.33-27.23,5.33Zm9.94-32.5a31.83,31.83,0,0,0-9.78,1.62l-.66.24-.22,22.6,1.12-.11c1.69-.17,16.62-1.8,20.2-5.8a12.58,12.58,0,0,0,3-10.24,9.37,9.37,0,0,0-5.53-6.65A19,19,0,0,0,649.15,96.87Zm-2.78-30.63c-3.46,0-8,.55-8.17.57l-1,.12,1.52,19.75.87,0s.42,0,1.13,0c4,0,13.44-.76,15-7.81,1-4.53-.14-7.41-1.27-9a8.53,8.53,0,0,0-5.73-3.56A17.45,17.45,0,0,0,646.37,66.24Z"/>
        </g>
      </g>
    </g>
  </g>
</svg>
