<svg xmlns="http://www.w3.org/2000/svg" width="335.48" height="444.85" viewBox="0 0 335.48 444.85">
  <defs>
    <style>
      .cls-1 {
        opacity: 0.28;
      }

      .cls-2 {
        fill: #fcfcfa;
      }

      .cls-3 {
        fill: #1d1d1b;
      }

      .cls-4 {
        fill: #fcfcfc;
      }

      .cls-5 {
        fill: none;
      }
    </style>
  </defs>
  <g id="Layer_4" data-name="Layer 4">
    <g>
      <path class="cls-2" d="M321.47,253.3c-1.39,33.65-6.39,61.83-15.28,86.15a178.6,178.6,0,0,1-19.89,39c-5.33,7.85-11.34,15.46-17.16,22.81-3.64,4.6-7.4,9.36-11,14.15A203.23,203.23,0,0,0,245.09,435a6.5,6.5,0,0,0-.88,2.58l-142.82-23a6.64,6.64,0,0,0-.29-2.47c-3.62-11.92-5.09-24.56-6.52-36.79-.46-4-1-8.16-1.5-12.24-2.16-15.86-6.53-31.35-13.78-48.73l-.73-1.74c-11.8-28.33-24-57.63-42.26-82.88-6.43-8.89-13.93-16.9-21.2-24.65l-.67-.71a1.65,1.65,0,0,1-.6-.24l-.48-.36c-.08-1-.25-1.93-.41-2.93-.37-2.38.52-3.07,2.56-4.14a20.94,20.94,0,0,1,10.64-2.21,3.67,3.67,0,0,0,1.72-.34c3.35-.24,6.62-.37,9.79-.37,15.17,0,28.26,2.62,40,8a75.86,75.86,0,0,1,15.77,9.67l-.12,3c-.09,2.15-.25,4.44-.42,6.86-1,14.18-2.24,31.83,10.06,41.7a7.11,7.11,0,0,0,4.5,1.69,7,7,0,0,0,3.14-.78c14.66-7.43,16.29-25.53,10.39-38.78a62.51,62.51,0,0,0-14.08-19.51L107,204q.75-18.7,1.54-37.4c1.38-32.32,3.11-67,6.42-101.54l.34-3.56c.69-7.34,1.4-14.93,2.49-22.3,1-6.83,2.53-13.9,6.74-19.3,3.34-4.27,7.7-6.73,12-6.73a11.29,11.29,0,0,1,2.58.3c6.35,1.47,10.89,7.6,12.84,12.39,2.67,6.56,3.06,13.94,3.23,20.93.13,5.68.2,11.46.27,17.06q0,3.78.1,7.58l.74,51.56q.17,11.16.4,22.34c-6.58,9.07-10.8,20.05-12.56,32.66a139.72,139.72,0,0,0-.64,29.26c.34,5,.82,9.9,1.3,14.44.07.65.13,1.31.19,2,.37,3.9.75,7.93,2.37,11.76,2.6,6.1,7.91,9.89,13.87,9.89a14.85,14.85,0,0,0,5.86-1.23,6.53,6.53,0,0,0,3.6-5.82c.54-27.52,0-55.5-.57-82.57l-.11-5.95c7.68-8.62,17.65-13.74,26.84-13.74a25.23,25.23,0,0,1,4.6.42c5.39,1,9.17,3.52,11.27,7.53A46.58,46.58,0,0,0,202,160.29a136.88,136.88,0,0,0-9.27,58c.24,4.52.73,9.28,1.46,14.15q.12.89.24,1.86c.49,3.83,1.1,8.59,4.16,11.8a10.22,10.22,0,0,0,7.52,3.31c5,0,10.21-3.65,12.43-8.66a46.42,46.42,0,0,0,2.89-11.44c.15-.9.3-1.8.46-2.68,1-5.34,1.84-10.87,2.6-16.44,1.44-10.57,2.46-21.13,3-31.38l.15-2.62c.5-8.81,1-17.92,0-26.8a18.31,18.31,0,0,1,7.32-1.48,26.37,26.37,0,0,1,7.82,1.3c9.16,2.88,15.88,9.37,20,19.3-5.85,13-10.62,28.31-14.55,46.84l-.2.9c-2,9.2-4,18.72-3.62,28.23.48,12.82,4.74,20.54,12,21.73a12,12,0,0,0,1.87.15c9.1,0,12.4-10.8,13.81-15.41a199.63,199.63,0,0,0,7-30.86c1.21-8.56,3.36-30.36-2.37-50.08,2.44-5.3,5.33-10.62,9.65-14.37a14.45,14.45,0,0,1,9.67-3.77c7.12,0,14.94,5.35,19,13,5.89,11,6.1,24.68,6.31,37.89,0,2.32.08,4.6.14,6.84C322,225.89,322,240.17,321.47,253.3Z"/>
      <g>
        <path class="cls-3" d="M333.36,182.54c-2.39-21.36-11.41-35.8-26.08-41.76a28.27,28.27,0,0,0-10.68-2.17c-9.92,0-19.56,5.93-26.47,16.09-7.06-11.46-17.42-18.08-30.85-19.69a37.18,37.18,0,0,0-4.31-.26,31.45,31.45,0,0,0-11.14,2,24.43,24.43,0,0,0-8.61-9.12,33.36,33.36,0,0,0-17.8-4.88c-9.38,0-19.44,3.46-27.82,9.53l-.12-7.49-.83-57.18c0-2.92,0-5.87,0-9,.15-13.91.3-28.3-5.94-40.73C157.38,7.18,146.68,0,136.12,0a24.6,24.6,0,0,0-9.42,1.89c-16.48,6.83-20.63,24.94-22.32,38C99.62,76.63,97.65,114,95.9,152.32c-.67,14.54-1.26,29.11-1.83,43.3-1.14-.73-2.3-1.43-3.46-2.09-15-8.59-32.92-12.94-53.14-12.94-4.3,0-8.73.22-13.29.61-4.6,1.29-9.36,2.07-13.69,4.1a66.69,66.69,0,0,0-7.44,8.43,22,22,0,0,0-3.32,8.33l.21,1.09c.41,2.11.87,4.22,1.4,6.3l0,.06c1.21,1.3,2.43,2.6,3.63,3.87a248.09,248.09,0,0,1,17.8,20.17c8,10.58,15.32,22.65,23,38,6.82,13.68,12.94,28,18.87,41.87l.1.25c5.77,13.48,12,29.66,14.75,47.35.86,5.6,1.53,11.36,2.18,16.92,1.46,12.47,3,25.36,6.73,37.78a6.43,6.43,0,0,0,6.27,4.65,6.91,6.91,0,0,0,5.56-2.71,5.84,5.84,0,0,0,1.17-3.13,6.64,6.64,0,0,0-.29-2.47c-3.62-11.92-5.09-24.56-6.52-36.79-.46-4-1-8.16-1.5-12.24-2.16-15.86-6.53-31.35-13.78-48.73l-.73-1.74c-11.8-28.33-24-57.63-42.26-82.88-6.43-8.89-13.93-16.9-21.2-24.65l-.67-.71a1.65,1.65,0,0,1-.6-.24l-.48-.36c-.08-1-.25-1.93-.41-2.93-.37-2.38.52-3.07,2.56-4.14a20.94,20.94,0,0,1,10.64-2.21,3.67,3.67,0,0,0,1.72-.34c3.35-.24,6.62-.37,9.79-.37,15.17,0,28.26,2.62,40,8a75.86,75.86,0,0,1,15.77,9.67l-.12,3c-.09,2.15-.25,4.44-.42,6.86-1,14.18-2.24,31.83,10.06,41.7a7.11,7.11,0,0,0,4.5,1.69,7,7,0,0,0,3.14-.78c14.66-7.43,16.29-25.53,10.39-38.78a62.51,62.51,0,0,0-14.08-19.51L107,204q.75-18.7,1.54-37.4c1.38-32.32,3.11-67,6.42-101.54l.34-3.56c.69-7.34,1.4-14.93,2.49-22.3,1-6.83,2.53-13.9,6.74-19.3,3.34-4.27,7.7-6.73,12-6.73a11.29,11.29,0,0,1,2.58.3c6.35,1.47,10.89,7.6,12.84,12.39,2.67,6.56,3.06,13.94,3.23,20.93.13,5.68.2,11.46.27,17.06q0,3.78.1,7.58l.74,51.56q.17,11.16.4,22.34c-6.58,9.07-10.8,20.05-12.56,32.66a139.72,139.72,0,0,0-.64,29.26c.34,5,.82,9.9,1.3,14.44.07.65.13,1.31.19,2,.37,3.9.75,7.93,2.37,11.76,2.6,6.1,7.91,9.89,13.87,9.89a14.85,14.85,0,0,0,5.86-1.23,6.53,6.53,0,0,0,3.6-5.82c.54-27.52,0-55.5-.57-82.57l-.11-5.95c7.68-8.62,17.65-13.74,26.84-13.74a25.23,25.23,0,0,1,4.6.42c5.39,1,9.17,3.52,11.27,7.53A46.58,46.58,0,0,0,202,160.29a136.88,136.88,0,0,0-9.27,58c.24,4.52.73,9.28,1.46,14.15q.12.89.24,1.86c.49,3.83,1.1,8.59,4.16,11.8a10.22,10.22,0,0,0,7.52,3.31c5,0,10.21-3.65,12.43-8.66a46.42,46.42,0,0,0,2.89-11.44c.15-.9.3-1.8.46-2.68,1-5.34,1.84-10.87,2.6-16.44,1.44-10.57,2.46-21.13,3-31.38l.15-2.62c.5-8.81,1-17.92,0-26.8a18.31,18.31,0,0,1,7.32-1.48,26.37,26.37,0,0,1,7.82,1.3c9.16,2.88,15.88,9.37,20,19.3-5.85,13-10.62,28.31-14.55,46.84l-.2.9c-2,9.2-4,18.72-3.62,28.23.48,12.82,4.74,20.54,12,21.73a12,12,0,0,0,1.87.15c9.1,0,12.4-10.8,13.81-15.41a199.63,199.63,0,0,0,7-30.86c1.21-8.56,3.36-30.36-2.37-50.08,2.44-5.3,5.33-10.62,9.65-14.37a14.45,14.45,0,0,1,9.67-3.77c7.12,0,14.94,5.35,19,13,5.89,11,6.1,24.68,6.31,37.89,0,2.32.08,4.6.14,6.84.49,16.26.46,30.54-.08,43.67-1.39,33.65-6.39,61.83-15.28,86.15a178.6,178.6,0,0,1-19.89,39c-5.33,7.85-11.34,15.46-17.16,22.81-3.64,4.6-7.4,9.36-11,14.15A203.23,203.23,0,0,0,245.09,435a6.5,6.5,0,0,0-.88,2.58,6.12,6.12,0,0,0,.79,3.83,7.07,7.07,0,0,0,6,3.49,6.25,6.25,0,0,0,5.49-3.24c6.83-11.74,15.41-22.63,23.71-33.17,3.45-4.38,7-8.91,10.43-13.46a200.69,200.69,0,0,0,27-48.62c11.3-29.49,16.82-63.58,17.38-107.28C335.34,218.85,335.39,200.63,333.36,182.54Zm-225,66.54c-3.6-6.39-3.15-15.85-2.52-24C110.3,232.19,113.63,242.73,108.39,249.08Zm49.19-29.85c-.08-.94-.15-1.94-.21-3-.05-.79-.08-1.41-.12-1.82a200.88,200.88,0,0,1-1-23.29,98.65,98.65,0,0,1,1-12.08C157.48,192.5,157.63,205.87,157.58,219.23Zm57.22-51.77c-.06,1.28-.12,2.54-.16,3.79a368.53,368.53,0,0,1-5.45,51.49l-.36,2.06c-.41,2.36-.83,4.78-1.37,7.13a126.93,126.93,0,0,1-1.65-23.2c.26-14.7,2.87-33,9.16-45.61C214.92,164.57,214.86,166,214.8,167.46Zm50.31,56.78a203,203,0,0,1-6,23.91l-.1.32c-.12.4-.36,1.19-.64,2-.93-3-.82-6.88-.75-9.13.47-15.72,5.05-31.95,9.93-47.16A148.78,148.78,0,0,1,265.11,224.24Z"/>
        <path class="cls-4" d="M265.11,224.24a203,203,0,0,1-6,23.91l-.1.32c-.12.4-.36,1.19-.64,2-.93-3-.82-6.88-.75-9.13.47-15.72,5.05-31.95,9.93-47.16A148.78,148.78,0,0,1,265.11,224.24Z"/>
        <path class="cls-4" d="M215,163.12c-.05,1.45-.11,2.91-.17,4.34-.06,1.28-.12,2.54-.16,3.79a368.53,368.53,0,0,1-5.45,51.49l-.36,2.06c-.41,2.36-.83,4.78-1.37,7.13a126.93,126.93,0,0,1-1.65-23.2C206.07,194,208.68,175.74,215,163.12Z"/>
        <path class="cls-4" d="M157.58,219.23c-.08-.94-.15-1.94-.21-3-.05-.79-.08-1.41-.12-1.82a200.88,200.88,0,0,1-1-23.29,98.65,98.65,0,0,1,1-12.08C157.48,192.5,157.63,205.87,157.58,219.23Z"/>
        <path class="cls-4" d="M108.39,249.08c-3.6-6.39-3.15-15.85-2.52-24C110.3,232.19,113.63,242.73,108.39,249.08Z"/>
      </g>
    </g>
    <line class="cls-5" x1="250.48" y1="438.5" x2="244.48" y2="437.53"/>
    <line class="cls-5" x1="101.66" y1="414.5" x2="95.48" y2="413.5"/>
  </g>
</svg>
